STARTFONT 2.3
FONT -FontForge-Roboto Condensed-Book-R-Condensed---8-80-72-72-P-39-ISO10646-1
SIZE 8 72 72  2
FONTBOUNDINGBOX 14 10 -6 -2
COMMENT "Generated by fontforge, http://fontforge.sourceforge.net"
COMMENT "Copyright 2011 Google Inc. All Rights Reserved."
STARTPROPERTIES 42
FOUNDRY "FontForge"
FAMILY_NAME "Roboto Condensed"
WEIGHT_NAME "Book"
SLANT "R"
SETWIDTH_NAME "Condensed"
ADD_STYLE_NAME ""
PIXEL_SIZE 8
POINT_SIZE 80
RESOLUTION_X 72
RESOLUTION_Y 72
SPACING "P"
AVERAGE_WIDTH 39
CHARSET_REGISTRY "ISO10646"
CHARSET_ENCODING "1"
FONTNAME_REGISTRY ""
CHARSET_COLLECTIONS "ISO8859-2 ISO8859-5 ISO8859-7 ISO8859-9 ISO8859-4 ISO10646-1"
BITS_PER_PIXEL 2
FONT_NAME "RobotoCondensed-Regular"
FACE_NAME "Roboto Condensed"
COPYRIGHT "Copyright 2011 Google Inc. All Rights Reserved."
FONT_VERSION "2.137; 2017"
FONT_ASCENT 6
FONT_DESCENT 2
UNDERLINE_POSITION -1
UNDERLINE_THICKNESS 1
X_HEIGHT 3
CAP_HEIGHT 5
DEFAULT_CHAR 1
RAW_ASCENT 750
RAW_DESCENT 250
NORM_SPACE 2
RELATIVE_WEIGHT 40
RELATIVE_SETWIDTH 50
SUPERSCRIPT_X 0
SUPERSCRIPT_Y 3
SUPERSCRIPT_SIZE 5
SUBSCRIPT_X 0
SUBSCRIPT_Y 1
SUBSCRIPT_SIZE 5
FIGURE_WIDTH 4
AVG_LOWERCASE_WIDTH 39
AVG_UPPERCASE_WIDTH 46
ENDPROPERTIES
CHARS 1296
STARTCHAR uni0000
ENCODING 0
SWIDTH 0 0
DWIDTH 0 0
BBX 1 1 0 0
BITMAP
00
ENDCHAR
STARTCHAR uni0002
ENCODING 2
SWIDTH 0 0
DWIDTH 0 0
BBX 1 1 0 0
BITMAP
00
ENDCHAR
STARTCHAR uni000D
ENCODING 13
SWIDTH 229 0
DWIDTH 2 0
BBX 1 1 0 0
BITMAP
00
ENDCHAR
STARTCHAR space
ENCODING 32
SWIDTH 229 0
DWIDTH 2 0
BBX 1 1 0 0
BITMAP
00
ENDCHAR
STARTCHAR exclam
ENCODING 33
SWIDTH 245 0
DWIDTH 2 0
BBX 2 6 0 0
BITMAP
50
50
50
50
00
50
ENDCHAR
STARTCHAR quotedbl
ENCODING 34
SWIDTH 319 0
DWIDTH 3 0
BBX 2 2 0 4
BITMAP
50
50
ENDCHAR
STARTCHAR numbersign
ENCODING 35
SWIDTH 547 0
DWIDTH 4 0
BBX 4 6 0 0
BITMAP
05
16
2A
25
69
28
ENDCHAR
STARTCHAR dollar
ENCODING 36
SWIDTH 493 0
DWIDTH 4 0
BBX 4 8 0 -1
BITMAP
04
28
55
60
19
45
69
14
ENDCHAR
STARTCHAR percent
ENCODING 37
SWIDTH 632 0
DWIDTH 5 0
BBX 5 6 0 0
BITMAP
6000
8500
6500
0940
1580
1240
ENDCHAR
STARTCHAR ampersand
ENCODING 38
SWIDTH 543 0
DWIDTH 4 0
BBX 4 6 0 0
BITMAP
28
68
28
69
8A
6A
ENDCHAR
STARTCHAR quotesingle
ENCODING 39
SWIDTH 174 0
DWIDTH 1 0
BBX 1 2 0 4
BITMAP
80
40
ENDCHAR
STARTCHAR parenleft
ENCODING 40
SWIDTH 313 0
DWIDTH 3 0
BBX 2 8 0 -2
BITMAP
10
10
50
50
50
50
20
10
ENDCHAR
STARTCHAR parenright
ENCODING 41
SWIDTH 318 0
DWIDTH 3 0
BBX 2 8 0 -2
BITMAP
40
20
20
20
20
20
50
40
ENDCHAR
STARTCHAR asterisk
ENCODING 42
SWIDTH 430 0
DWIDTH 3 0
BBX 3 4 0 2
BITMAP
10
68
24
44
ENDCHAR
STARTCHAR plus
ENCODING 43
SWIDTH 496 0
DWIDTH 4 0
BBX 4 4 0 1
BITMAP
14
14
69
14
ENDCHAR
STARTCHAR comma
ENCODING 44
SWIDTH 196 0
DWIDTH 2 0
BBX 1 2 0 -1
BITMAP
40
80
ENDCHAR
STARTCHAR hyphen
ENCODING 45
SWIDTH 248 0
DWIDTH 2 0
BBX 2 1 0 2
BITMAP
50
ENDCHAR
STARTCHAR period
ENCODING 46
SWIDTH 263 0
DWIDTH 2 0
BBX 2 1 0 0
BITMAP
50
ENDCHAR
STARTCHAR slash
ENCODING 47
SWIDTH 370 0
DWIDTH 3 0
BBX 3 7 0 -1
BITMAP
04
14
20
20
50
80
40
ENDCHAR
STARTCHAR zero
ENCODING 48
SWIDTH 493 0
DWIDTH 4 0
BBX 4 6 0 0
BITMAP
28
55
85
85
55
28
ENDCHAR
STARTCHAR one
ENCODING 49
SWIDTH 493 0
DWIDTH 4 0
BBX 3 6 0 0
BITMAP
14
58
18
18
18
18
ENDCHAR
STARTCHAR two
ENCODING 50
SWIDTH 493 0
DWIDTH 4 0
BBX 4 6 0 0
BITMAP
28
95
05
08
20
69
ENDCHAR
STARTCHAR three
ENCODING 51
SWIDTH 493 0
DWIDTH 4 0
BBX 4 6 0 0
BITMAP
28
55
08
18
45
68
ENDCHAR
STARTCHAR four
ENCODING 52
SWIDTH 493 0
DWIDTH 4 0
BBX 4 6 0 0
BITMAP
08
1C
28
58
6D
08
ENDCHAR
STARTCHAR five
ENCODING 53
SWIDTH 493 0
DWIDTH 4 0
BBX 4 6 0 0
BITMAP
29
20
68
05
42
29
ENDCHAR
STARTCHAR six
ENCODING 54
SWIDTH 493 0
DWIDTH 4 0
BBX 4 6 0 0
BITMAP
18
20
68
55
56
28
ENDCHAR
STARTCHAR seven
ENCODING 55
SWIDTH 493 0
DWIDTH 4 0
BBX 4 6 0 0
BITMAP
69
05
08
08
24
20
ENDCHAR
STARTCHAR eight
ENCODING 56
SWIDTH 493 0
DWIDTH 4 0
BBX 4 6 0 0
BITMAP
28
55
68
68
95
69
ENDCHAR
STARTCHAR nine
ENCODING 57
SWIDTH 493 0
DWIDTH 4 0
BBX 4 6 0 0
BITMAP
28
55
85
69
05
28
ENDCHAR
STARTCHAR colon
ENCODING 58
SWIDTH 233 0
DWIDTH 2 0
BBX 2 4 0 0
BITMAP
50
00
00
50
ENDCHAR
STARTCHAR semicolon
ENCODING 59
SWIDTH 202 0
DWIDTH 2 0
BBX 2 5 0 -1
BITMAP
40
00
00
50
80
ENDCHAR
STARTCHAR less
ENCODING 60
SWIDTH 445 0
DWIDTH 4 0
BBX 3 3 0 1
BITMAP
18
90
18
ENDCHAR
STARTCHAR equal
ENCODING 61
SWIDTH 479 0
DWIDTH 4 0
BBX 4 3 0 1
BITMAP
69
14
54
ENDCHAR
STARTCHAR greater
ENCODING 62
SWIDTH 459 0
DWIDTH 4 0
BBX 4 3 0 1
BITMAP
64
09
64
ENDCHAR
STARTCHAR question
ENCODING 63
SWIDTH 421 0
DWIDTH 3 0
BBX 3 6 0 0
BITMAP
64
48
08
24
10
10
ENDCHAR
STARTCHAR at
ENCODING 64
SWIDTH 769 0
DWIDTH 6 0
BBX 6 8 0 -2
BITMAP
0640
2050
5610
4950
8510
4A90
2000
1900
ENDCHAR
STARTCHAR A
ENCODING 65
SWIDTH 576 0
DWIDTH 5 0
BBX 5 6 0 0
BITMAP
0400
1800
2500
2600
6A00
8140
ENDCHAR
STARTCHAR B
ENCODING 66
SWIDTH 545 0
DWIDTH 4 0
BBX 4 6 0 0
BITMAP
69
52
66
66
52
69
ENDCHAR
STARTCHAR C
ENCODING 67
SWIDTH 566 0
DWIDTH 5 0
BBX 4 6 0 0
BITMAP
19
52
50
90
52
2A
ENDCHAR
STARTCHAR D
ENCODING 68
SWIDTH 570 0
DWIDTH 5 0
BBX 4 6 0 0
BITMAP
68
52
52
52
52
69
ENDCHAR
STARTCHAR E
ENCODING 69
SWIDTH 496 0
DWIDTH 4 0
BBX 4 6 0 0
BITMAP
69
50
54
64
50
69
ENDCHAR
STARTCHAR F
ENCODING 70
SWIDTH 480 0
DWIDTH 4 0
BBX 4 6 0 0
BITMAP
69
50
50
64
50
50
ENDCHAR
STARTCHAR G
ENCODING 71
SWIDTH 590 0
DWIDTH 5 0
BBX 5 6 0 0
BITMAP
2900
5200
5000
9600
5240
2A00
ENDCHAR
STARTCHAR H
ENCODING 72
SWIDTH 620 0
DWIDTH 5 0
BBX 5 6 0 0
BITMAP
5140
5140
5640
6640
5140
5140
ENDCHAR
STARTCHAR I
ENCODING 73
SWIDTH 250 0
DWIDTH 2 0
BBX 2 6 0 0
BITMAP
50
50
50
50
50
50
ENDCHAR
STARTCHAR J
ENCODING 74
SWIDTH 483 0
DWIDTH 4 0
BBX 4 6 0 0
BITMAP
05
05
05
05
45
68
ENDCHAR
STARTCHAR K
ENCODING 75
SWIDTH 544 0
DWIDTH 4 0
BBX 4 6 0 0
BITMAP
52
59
68
68
55
52
ENDCHAR
STARTCHAR L
ENCODING 76
SWIDTH 475 0
DWIDTH 4 0
BBX 4 6 0 0
BITMAP
50
50
50
50
50
69
ENDCHAR
STARTCHAR M
ENCODING 77
SWIDTH 755 0
DWIDTH 6 0
BBX 6 6 0 0
BITMAP
5050
70D0
6590
5A50
5A50
5550
ENDCHAR
STARTCHAR N
ENCODING 78
SWIDTH 619 0
DWIDTH 5 0
BBX 5 6 0 0
BITMAP
5140
7140
6540
5940
5740
5240
ENDCHAR
STARTCHAR O
ENCODING 79
SWIDTH 600 0
DWIDTH 5 0
BBX 5 6 0 0
BITMAP
1900
5200
5140
9140
5240
2A00
ENDCHAR
STARTCHAR P
ENCODING 80
SWIDTH 554 0
DWIDTH 4 0
BBX 4 6 0 0
BITMAP
69
52
52
69
50
50
ENDCHAR
STARTCHAR Q
ENCODING 81
SWIDTH 600 0
DWIDTH 5 0
BBX 5 7 0 -1
BITMAP
1900
5200
9140
9140
5200
2A00
0200
ENDCHAR
STARTCHAR R
ENCODING 82
SWIDTH 530 0
DWIDTH 4 0
BBX 4 6 0 0
BITMAP
69
52
52
6D
55
52
ENDCHAR
STARTCHAR S
ENCODING 83
SWIDTH 518 0
DWIDTH 4 0
BBX 4 6 0 0
BITMAP
28
52
60
19
42
69
ENDCHAR
STARTCHAR T
ENCODING 84
SWIDTH 520 0
DWIDTH 4 0
BBX 4 6 0 0
BITMAP
6A
14
14
14
14
14
ENDCHAR
STARTCHAR U
ENCODING 85
SWIDTH 561 0
DWIDTH 5 0
BBX 4 6 0 0
BITMAP
41
52
52
52
52
2A
ENDCHAR
STARTCHAR V
ENCODING 86
SWIDTH 560 0
DWIDTH 4 0
BBX 4 6 0 0
BITMAP
41
52
22
25
28
18
ENDCHAR
STARTCHAR W
ENCODING 87
SWIDTH 761 0
DWIDTH 6 0
BBX 6 6 0 0
BITMAP
4510
5620
5A50
2990
25C0
2480
ENDCHAR
STARTCHAR X
ENCODING 88
SWIDTH 550 0
DWIDTH 4 0
BBX 4 6 0 0
BITMAP
52
25
28
18
25
52
ENDCHAR
STARTCHAR Y
ENCODING 89
SWIDTH 524 0
DWIDTH 4 0
BBX 4 6 0 0
BITMAP
42
56
28
18
14
14
ENDCHAR
STARTCHAR Z
ENCODING 90
SWIDTH 522 0
DWIDTH 4 0
BBX 4 6 0 0
BITMAP
6A
05
08
24
20
AA
ENDCHAR
STARTCHAR bracketleft
ENCODING 91
SWIDTH 250 0
DWIDTH 2 0
BBX 2 9 0 -2
BITMAP
50
50
50
50
50
50
50
50
10
ENDCHAR
STARTCHAR backslash
ENCODING 92
SWIDTH 369 0
DWIDTH 3 0
BBX 3 7 0 -1
BITMAP
40
50
20
20
14
08
04
ENDCHAR
STARTCHAR bracketright
ENCODING 93
SWIDTH 250 0
DWIDTH 2 0
BBX 2 9 0 -2
BITMAP
50
50
50
50
50
50
50
50
40
ENDCHAR
STARTCHAR asciicircum
ENCODING 94
SWIDTH 371 0
DWIDTH 3 0
BBX 3 3 0 3
BITMAP
10
20
94
ENDCHAR
STARTCHAR underscore
ENCODING 95
SWIDTH 404 0
DWIDTH 3 0
BBX 3 1 0 -1
BITMAP
A8
ENDCHAR
STARTCHAR grave
ENCODING 96
SWIDTH 309 0
DWIDTH 2 0
BBX 2 1 0 5
BITMAP
50
ENDCHAR
STARTCHAR a
ENCODING 97
SWIDTH 479 0
DWIDTH 4 0
BBX 4 5 0 0
BITMAP
14
68
19
55
69
ENDCHAR
STARTCHAR b
ENCODING 98
SWIDTH 493 0
DWIDTH 4 0
BBX 4 6 0 0
BITMAP
50
54
69
52
52
69
ENDCHAR
STARTCHAR c
ENCODING 99
SWIDTH 461 0
DWIDTH 4 0
BBX 4 5 0 0
BITMAP
14
69
80
80
68
ENDCHAR
STARTCHAR d
ENCODING 100
SWIDTH 496 0
DWIDTH 4 0
BBX 4 6 0 0
BITMAP
05
15
69
85
85
69
ENDCHAR
STARTCHAR e
ENCODING 101
SWIDTH 468 0
DWIDTH 4 0
BBX 4 5 0 0
BITMAP
14
69
A9
90
68
ENDCHAR
STARTCHAR f
ENCODING 102
SWIDTH 316 0
DWIDTH 3 0
BBX 3 6 0 0
BITMAP
24
60
60
60
60
60
ENDCHAR
STARTCHAR g
ENCODING 103
SWIDTH 492 0
DWIDTH 4 0
BBX 4 7 0 -2
BITMAP
10
69
85
85
69
05
28
ENDCHAR
STARTCHAR h
ENCODING 104
SWIDTH 482 0
DWIDTH 4 0
BBX 4 6 0 0
BITMAP
50
54
69
55
55
55
ENDCHAR
STARTCHAR i
ENCODING 105
SWIDTH 229 0
DWIDTH 2 0
BBX 2 6 0 0
BITMAP
50
00
50
50
50
50
ENDCHAR
STARTCHAR j
ENCODING 106
SWIDTH 223 0
DWIDTH 2 0
BBX 2 8 0 -2
BITMAP
40
00
50
50
50
50
50
80
ENDCHAR
STARTCHAR k
ENCODING 107
SWIDTH 450 0
DWIDTH 4 0
BBX 4 6 0 0
BITMAP
50
50
58
74
58
59
ENDCHAR
STARTCHAR l
ENCODING 108
SWIDTH 229 0
DWIDTH 2 0
BBX 2 6 0 0
BITMAP
50
50
50
50
50
50
ENDCHAR
STARTCHAR m
ENCODING 109
SWIDTH 752 0
DWIDTH 6 0
BBX 6 5 0 0
BITMAP
0440
6A90
5550
5560
5560
ENDCHAR
STARTCHAR n
ENCODING 110
SWIDTH 483 0
DWIDTH 4 0
BBX 4 5 0 0
BITMAP
04
69
55
55
55
ENDCHAR
STARTCHAR o
ENCODING 111
SWIDTH 501 0
DWIDTH 4 0
BBX 4 5 0 0
BITMAP
14
69
82
82
69
ENDCHAR
STARTCHAR p
ENCODING 112
SWIDTH 493 0
DWIDTH 4 0
BBX 4 7 0 -2
BITMAP
04
69
52
52
69
50
40
ENDCHAR
STARTCHAR q
ENCODING 113
SWIDTH 500 0
DWIDTH 4 0
BBX 4 7 0 -2
BITMAP
10
69
85
85
69
05
01
ENDCHAR
STARTCHAR r
ENCODING 114
SWIDTH 304 0
DWIDTH 2 0
BBX 2 5 0 0
BITMAP
10
60
50
50
50
ENDCHAR
STARTCHAR s
ENCODING 115
SWIDTH 455 0
DWIDTH 4 0
BBX 3 5 0 0
BITMAP
10
68
64
08
68
ENDCHAR
STARTCHAR t
ENCODING 116
SWIDTH 295 0
DWIDTH 2 0
BBX 2 5 0 0
BITMAP
60
60
50
50
20
ENDCHAR
STARTCHAR u
ENCODING 117
SWIDTH 483 0
DWIDTH 4 0
BBX 4 4 0 0
BITMAP
95
95
55
69
ENDCHAR
STARTCHAR v
ENCODING 118
SWIDTH 427 0
DWIDTH 3 0
BBX 3 4 0 0
BITMAP
88
58
24
20
ENDCHAR
STARTCHAR w
ENCODING 119
SWIDTH 649 0
DWIDTH 5 0
BBX 5 4 0 0
BITMAP
8C80
5980
3640
2200
ENDCHAR
STARTCHAR x
ENCODING 120
SWIDTH 438 0
DWIDTH 4 0
BBX 3 4 0 0
BITMAP
58
24
24
98
ENDCHAR
STARTCHAR y
ENCODING 121
SWIDTH 416 0
DWIDTH 3 0
BBX 3 7 0 -2
BITMAP
40
88
58
24
20
20
50
ENDCHAR
STARTCHAR z
ENCODING 122
SWIDTH 438 0
DWIDTH 4 0
BBX 3 5 0 0
BITMAP
14
5C
14
20
A8
ENDCHAR
STARTCHAR braceleft
ENCODING 123
SWIDTH 306 0
DWIDTH 2 0
BBX 2 7 0 -1
BITMAP
20
20
20
90
20
20
20
ENDCHAR
STARTCHAR bar
ENCODING 124
SWIDTH 243 0
DWIDTH 2 0
BBX 2 7 0 -1
BITMAP
50
50
50
50
50
50
50
ENDCHAR
STARTCHAR braceright
ENCODING 125
SWIDTH 306 0
DWIDTH 2 0
BBX 2 8 0 -2
BITMAP
90
50
20
20
20
50
50
40
ENDCHAR
STARTCHAR asciitilde
ENCODING 126
SWIDTH 589 0
DWIDTH 5 0
BBX 4 2 0 1
BITMAP
6A
05
ENDCHAR
STARTCHAR uni00A0
ENCODING 160
SWIDTH 229 0
DWIDTH 2 0
BBX 1 1 0 0
BITMAP
00
ENDCHAR
STARTCHAR exclamdown
ENCODING 161
SWIDTH 231 0
DWIDTH 2 0
BBX 2 6 0 -2
BITMAP
40
50
50
50
50
40
ENDCHAR
STARTCHAR cent
ENCODING 162
SWIDTH 479 0
DWIDTH 4 0
BBX 4 6 0 -1
BITMAP
14
69
80
80
28
14
ENDCHAR
STARTCHAR sterling
ENCODING 163
SWIDTH 510 0
DWIDTH 4 0
BBX 4 6 0 0
BITMAP
19
21
20
74
20
69
ENDCHAR
STARTCHAR currency
ENCODING 164
SWIDTH 712 0
DWIDTH 6 0
BBX 5 5 0 0
BITMAP
6A80
6080
5080
6080
6A80
ENDCHAR
STARTCHAR yen
ENCODING 165
SWIDTH 463 0
DWIDTH 4 0
BBX 4 6 0 0
BITMAP
45
58
28
68
68
24
ENDCHAR
STARTCHAR brokenbar
ENCODING 166
SWIDTH 239 0
DWIDTH 2 0
BBX 2 7 0 -1
BITMAP
50
50
50
00
50
50
50
ENDCHAR
STARTCHAR section
ENCODING 167
SWIDTH 537 0
DWIDTH 4 0
BBX 4 8 0 -2
BITMAP
29
52
64
9A
62
19
42
69
ENDCHAR
STARTCHAR dieresis
ENCODING 168
SWIDTH 417 0
DWIDTH 3 0
BBX 3 1 0 5
BITMAP
48
ENDCHAR
STARTCHAR copyright
ENCODING 169
SWIDTH 785 0
DWIDTH 6 0
BBX 6 6 0 0
BITMAP
1540
1550
5550
5410
5A50
1580
ENDCHAR
STARTCHAR ordfeminine
ENCODING 170
SWIDTH 395 0
DWIDTH 3 0
BBX 3 4 0 2
BITMAP
24
18
58
10
ENDCHAR
STARTCHAR guillemotleft
ENCODING 171
SWIDTH 417 0
DWIDTH 3 0
BBX 3 4 0 0
BITMAP
14
64
64
14
ENDCHAR
STARTCHAR logicalnot
ENCODING 172
SWIDTH 487 0
DWIDTH 4 0
BBX 4 2 0 1
BITMAP
69
04
ENDCHAR
STARTCHAR uni00AD
ENCODING 173
SWIDTH 248 0
DWIDTH 2 0
BBX 2 1 0 2
BITMAP
50
ENDCHAR
STARTCHAR registered
ENCODING 174
SWIDTH 786 0
DWIDTH 6 0
BBX 6 6 0 0
BITMAP
1540
1950
4950
4A10
5550
1580
ENDCHAR
STARTCHAR macron
ENCODING 175
SWIDTH 414 0
DWIDTH 3 0
BBX 3 1 0 5
BITMAP
64
ENDCHAR
STARTCHAR degree
ENCODING 176
SWIDTH 373 0
DWIDTH 3 0
BBX 3 3 0 3
BITMAP
60
54
10
ENDCHAR
STARTCHAR plusminus
ENCODING 177
SWIDTH 469 0
DWIDTH 4 0
BBX 3 5 0 0
BITMAP
14
68
24
14
68
ENDCHAR
STARTCHAR uni00B2
ENCODING 178
SWIDTH 329 0
DWIDTH 3 0
BBX 2 4 0 2
BITMAP
60
50
60
50
ENDCHAR
STARTCHAR uni00B3
ENCODING 179
SWIDTH 329 0
DWIDTH 3 0
BBX 3 4 0 2
BITMAP
60
20
54
10
ENDCHAR
STARTCHAR acute
ENCODING 180
SWIDTH 313 0
DWIDTH 3 0
BBX 1 1 1 5
BITMAP
80
ENDCHAR
STARTCHAR mu
ENCODING 181
SWIDTH 498 0
DWIDTH 4 0
BBX 4 6 0 -2
BITMAP
55
55
55
69
50
40
ENDCHAR
STARTCHAR paragraph
ENCODING 182
SWIDTH 434 0
DWIDTH 3 0
BBX 3 6 0 0
BITMAP
28
BC
BC
7C
08
08
ENDCHAR
STARTCHAR periodcentered
ENCODING 183
SWIDTH 243 0
DWIDTH 2 0
BBX 1 1 0 2
BITMAP
40
ENDCHAR
STARTCHAR cedilla
ENCODING 184
SWIDTH 229 0
DWIDTH 2 0
BBX 2 2 0 -2
BITMAP
50
50
ENDCHAR
STARTCHAR uni00B9
ENCODING 185
SWIDTH 329 0
DWIDTH 3 0
BBX 2 4 0 2
BITMAP
50
20
20
10
ENDCHAR
STARTCHAR ordmasculine
ENCODING 186
SWIDTH 402 0
DWIDTH 3 0
BBX 3 4 0 2
BITMAP
24
88
58
10
ENDCHAR
STARTCHAR guillemotright
ENCODING 187
SWIDTH 417 0
DWIDTH 3 0
BBX 3 4 0 0
BITMAP
54
28
28
40
ENDCHAR
STARTCHAR onequarter
ENCODING 188
SWIDTH 637 0
DWIDTH 5 0
BBX 5 6 0 0
BITMAP
5000
2100
2500
1540
1680
1180
ENDCHAR
STARTCHAR onehalf
ENCODING 189
SWIDTH 677 0
DWIDTH 5 0
BBX 5 6 0 0
BITMAP
5000
2100
2400
1680
1080
1280
ENDCHAR
STARTCHAR threequarters
ENCODING 190
SWIDTH 673 0
DWIDTH 5 0
BBX 5 6 0 0
BITMAP
6000
2500
5500
1580
0680
0180
ENDCHAR
STARTCHAR questiondown
ENCODING 191
SWIDTH 421 0
DWIDTH 3 0
BBX 3 6 0 -2
BITMAP
10
10
20
80
98
14
ENDCHAR
STARTCHAR Agrave
ENCODING 192
SWIDTH 576 0
DWIDTH 5 0
BBX 5 8 0 0
BITMAP
1000
1400
0400
1800
2500
2600
6A00
8140
ENDCHAR
STARTCHAR Aacute
ENCODING 193
SWIDTH 576 0
DWIDTH 5 0
BBX 5 7 0 0
BITMAP
0800
0400
1800
2500
2600
6A00
8140
ENDCHAR
STARTCHAR Acircumflex
ENCODING 194
SWIDTH 576 0
DWIDTH 5 0
BBX 5 7 0 0
BITMAP
1800
0400
1800
2500
2600
6A00
8140
ENDCHAR
STARTCHAR Atilde
ENCODING 195
SWIDTH 576 0
DWIDTH 5 0
BBX 5 7 0 0
BITMAP
2900
0400
1800
2500
2600
6A00
8140
ENDCHAR
STARTCHAR Adieresis
ENCODING 196
SWIDTH 576 0
DWIDTH 5 0
BBX 5 7 0 0
BITMAP
2100
0400
1800
2500
2600
6A00
8140
ENDCHAR
STARTCHAR Aring
ENCODING 197
SWIDTH 576 0
DWIDTH 5 0
BBX 5 8 0 0
BITMAP
0400
1400
0800
1800
2500
2600
6A00
8140
ENDCHAR
STARTCHAR AE
ENCODING 198
SWIDTH 812 0
DWIDTH 7 0
BBX 7 6 0 0
BITMAP
06A0
0A00
1650
2250
6B00
82A4
ENDCHAR
STARTCHAR Ccedilla
ENCODING 199
SWIDTH 566 0
DWIDTH 5 0
BBX 4 8 0 -2
BITMAP
19
52
50
90
52
2A
08
04
ENDCHAR
STARTCHAR Egrave
ENCODING 200
SWIDTH 496 0
DWIDTH 4 0
BBX 4 8 0 0
BITMAP
10
14
69
50
54
64
50
69
ENDCHAR
STARTCHAR Eacute
ENCODING 201
SWIDTH 496 0
DWIDTH 4 0
BBX 4 7 0 0
BITMAP
08
69
50
54
64
50
69
ENDCHAR
STARTCHAR Ecircumflex
ENCODING 202
SWIDTH 496 0
DWIDTH 4 0
BBX 4 7 0 0
BITMAP
14
69
50
54
64
50
69
ENDCHAR
STARTCHAR Edieresis
ENCODING 203
SWIDTH 496 0
DWIDTH 4 0
BBX 4 7 0 0
BITMAP
15
69
50
54
64
50
69
ENDCHAR
STARTCHAR Igrave
ENCODING 204
SWIDTH 250 0
DWIDTH 2 0
BBX 2 8 0 0
BITMAP
40
40
50
50
50
50
50
50
ENDCHAR
STARTCHAR Iacute
ENCODING 205
SWIDTH 250 0
DWIDTH 2 0
BBX 2 8 0 0
BITMAP
10
10
50
50
50
50
50
50
ENDCHAR
STARTCHAR Icircumflex
ENCODING 206
SWIDTH 250 0
DWIDTH 2 0
BBX 2 7 0 0
BITMAP
50
50
50
50
50
50
50
ENDCHAR
STARTCHAR Idieresis
ENCODING 207
SWIDTH 250 0
DWIDTH 2 0
BBX 2 7 0 0
BITMAP
50
50
50
50
50
50
50
ENDCHAR
STARTCHAR Eth
ENCODING 208
SWIDTH 585 0
DWIDTH 5 0
BBX 5 6 0 0
BITMAP
6900
5200
6200
A240
5200
6900
ENDCHAR
STARTCHAR Ntilde
ENCODING 209
SWIDTH 619 0
DWIDTH 5 0
BBX 5 7 0 0
BITMAP
1900
5140
7140
6540
5940
5740
5240
ENDCHAR
STARTCHAR Ograve
ENCODING 210
SWIDTH 600 0
DWIDTH 5 0
BBX 5 7 0 0
BITMAP
1400
1900
5200
5140
9140
5240
2A00
ENDCHAR
STARTCHAR Oacute
ENCODING 211
SWIDTH 600 0
DWIDTH 5 0
BBX 5 7 0 0
BITMAP
0800
1900
5200
5140
9140
5240
2A00
ENDCHAR
STARTCHAR Ocircumflex
ENCODING 212
SWIDTH 600 0
DWIDTH 5 0
BBX 5 7 0 0
BITMAP
1800
1900
5200
5140
9140
5240
2A00
ENDCHAR
STARTCHAR Otilde
ENCODING 213
SWIDTH 600 0
DWIDTH 5 0
BBX 5 7 0 0
BITMAP
1900
1900
5200
5140
9140
5240
2A00
ENDCHAR
STARTCHAR Odieresis
ENCODING 214
SWIDTH 600 0
DWIDTH 5 0
BBX 5 7 0 0
BITMAP
2100
1900
5200
5140
9140
5240
2A00
ENDCHAR
STARTCHAR multiply
ENCODING 215
SWIDTH 470 0
DWIDTH 4 0
BBX 3 3 0 1
BITMAP
68
24
58
ENDCHAR
STARTCHAR Oslash
ENCODING 216
SWIDTH 600 0
DWIDTH 5 0
BBX 5 6 0 0
BITMAP
1A00
6300
5640
9540
6200
3A00
ENDCHAR
STARTCHAR Ugrave
ENCODING 217
SWIDTH 561 0
DWIDTH 5 0
BBX 4 8 0 0
BITMAP
10
14
41
52
52
52
52
2A
ENDCHAR
STARTCHAR Uacute
ENCODING 218
SWIDTH 561 0
DWIDTH 5 0
BBX 4 7 0 0
BITMAP
08
41
52
52
52
52
2A
ENDCHAR
STARTCHAR Ucircumflex
ENCODING 219
SWIDTH 561 0
DWIDTH 5 0
BBX 4 7 0 0
BITMAP
18
41
52
52
52
52
2A
ENDCHAR
STARTCHAR Udieresis
ENCODING 220
SWIDTH 561 0
DWIDTH 5 0
BBX 4 7 0 0
BITMAP
25
41
52
52
52
52
2A
ENDCHAR
STARTCHAR Yacute
ENCODING 221
SWIDTH 524 0
DWIDTH 4 0
BBX 4 7 0 0
BITMAP
08
42
56
28
18
14
14
ENDCHAR
STARTCHAR Thorn
ENCODING 222
SWIDTH 515 0
DWIDTH 4 0
BBX 4 6 0 0
BITMAP
50
64
56
52
69
50
ENDCHAR
STARTCHAR germandbls
ENCODING 223
SWIDTH 521 0
DWIDTH 4 0
BBX 4 6 0 0
BITMAP
68
58
58
58
52
5A
ENDCHAR
STARTCHAR agrave
ENCODING 224
SWIDTH 479 0
DWIDTH 4 0
BBX 4 6 0 0
BITMAP
20
14
68
19
55
69
ENDCHAR
STARTCHAR aacute
ENCODING 225
SWIDTH 479 0
DWIDTH 4 0
BBX 4 6 0 0
BITMAP
08
14
68
19
55
69
ENDCHAR
STARTCHAR acircumflex
ENCODING 226
SWIDTH 479 0
DWIDTH 4 0
BBX 4 6 0 0
BITMAP
14
14
68
19
55
69
ENDCHAR
STARTCHAR atilde
ENCODING 227
SWIDTH 479 0
DWIDTH 4 0
BBX 4 6 0 0
BITMAP
28
14
68
19
55
69
ENDCHAR
STARTCHAR adieresis
ENCODING 228
SWIDTH 479 0
DWIDTH 4 0
BBX 4 6 0 0
BITMAP
14
14
68
19
55
69
ENDCHAR
STARTCHAR aring
ENCODING 229
SWIDTH 479 0
DWIDTH 4 0
BBX 4 6 0 0
BITMAP
14
14
68
19
55
69
ENDCHAR
STARTCHAR ae
ENCODING 230
SWIDTH 728 0
DWIDTH 6 0
BBX 6 5 0 0
BITMAP
1040
6A90
1AA0
9900
6A90
ENDCHAR
STARTCHAR ccedilla
ENCODING 231
SWIDTH 461 0
DWIDTH 4 0
BBX 4 7 0 -2
BITMAP
14
69
80
80
68
14
14
ENDCHAR
STARTCHAR egrave
ENCODING 232
SWIDTH 468 0
DWIDTH 4 0
BBX 4 6 0 0
BITMAP
20
14
69
A9
90
68
ENDCHAR
STARTCHAR eacute
ENCODING 233
SWIDTH 468 0
DWIDTH 4 0
BBX 4 6 0 0
BITMAP
08
14
69
A9
90
68
ENDCHAR
STARTCHAR ecircumflex
ENCODING 234
SWIDTH 468 0
DWIDTH 4 0
BBX 4 6 0 0
BITMAP
24
14
69
A9
90
68
ENDCHAR
STARTCHAR edieresis
ENCODING 235
SWIDTH 468 0
DWIDTH 4 0
BBX 4 6 0 0
BITMAP
54
14
69
A9
90
68
ENDCHAR
STARTCHAR igrave
ENCODING 236
SWIDTH 234 0
DWIDTH 2 0
BBX 2 6 0 0
BITMAP
80
00
50
50
50
50
ENDCHAR
STARTCHAR iacute
ENCODING 237
SWIDTH 234 0
DWIDTH 2 0
BBX 2 6 0 0
BITMAP
20
00
50
50
50
50
ENDCHAR
STARTCHAR icircumflex
ENCODING 238
SWIDTH 234 0
DWIDTH 2 0
BBX 2 6 0 0
BITMAP
90
00
50
50
50
50
ENDCHAR
STARTCHAR idieresis
ENCODING 239
SWIDTH 234 0
DWIDTH 2 0
BBX 3 6 -1 0
BITMAP
54
00
14
14
14
14
ENDCHAR
STARTCHAR eth
ENCODING 240
SWIDTH 513 0
DWIDTH 4 0
BBX 4 6 0 0
BITMAP
28
18
29
52
56
28
ENDCHAR
STARTCHAR ntilde
ENCODING 241
SWIDTH 483 0
DWIDTH 4 0
BBX 4 6 0 0
BITMAP
28
04
69
55
55
55
ENDCHAR
STARTCHAR ograve
ENCODING 242
SWIDTH 501 0
DWIDTH 4 0
BBX 4 6 0 0
BITMAP
20
14
69
82
82
69
ENDCHAR
STARTCHAR oacute
ENCODING 243
SWIDTH 501 0
DWIDTH 4 0
BBX 4 6 0 0
BITMAP
08
14
69
82
82
69
ENDCHAR
STARTCHAR ocircumflex
ENCODING 244
SWIDTH 501 0
DWIDTH 4 0
BBX 4 6 0 0
BITMAP
14
14
69
82
82
69
ENDCHAR
STARTCHAR otilde
ENCODING 245
SWIDTH 501 0
DWIDTH 4 0
BBX 4 6 0 0
BITMAP
28
14
69
82
82
69
ENDCHAR
STARTCHAR odieresis
ENCODING 246
SWIDTH 501 0
DWIDTH 4 0
BBX 4 6 0 0
BITMAP
14
14
69
82
82
69
ENDCHAR
STARTCHAR divide
ENCODING 247
SWIDTH 500 0
DWIDTH 4 0
BBX 4 4 0 1
BITMAP
14
00
69
10
ENDCHAR
STARTCHAR oslash
ENCODING 248
SWIDTH 498 0
DWIDTH 4 0
BBX 4 5 0 0
BITMAP
14
69
9A
A6
38
ENDCHAR
STARTCHAR ugrave
ENCODING 249
SWIDTH 483 0
DWIDTH 4 0
BBX 4 6 0 0
BITMAP
20
00
95
95
55
69
ENDCHAR
STARTCHAR uacute
ENCODING 250
SWIDTH 483 0
DWIDTH 4 0
BBX 4 6 0 0
BITMAP
08
00
95
95
55
69
ENDCHAR
STARTCHAR ucircumflex
ENCODING 251
SWIDTH 483 0
DWIDTH 4 0
BBX 4 6 0 0
BITMAP
24
00
95
95
55
69
ENDCHAR
STARTCHAR udieresis
ENCODING 252
SWIDTH 483 0
DWIDTH 4 0
BBX 4 6 0 0
BITMAP
54
00
95
95
55
69
ENDCHAR
STARTCHAR yacute
ENCODING 253
SWIDTH 416 0
DWIDTH 3 0
BBX 3 8 0 -2
BITMAP
18
40
88
58
24
20
20
50
ENDCHAR
STARTCHAR thorn
ENCODING 254
SWIDTH 508 0
DWIDTH 4 0
BBX 4 8 0 -2
BITMAP
50
54
69
52
52
69
50
40
ENDCHAR
STARTCHAR ydieresis
ENCODING 255
SWIDTH 416 0
DWIDTH 3 0
BBX 3 8 0 -2
BITMAP
58
40
88
58
24
20
20
50
ENDCHAR
STARTCHAR Amacron
ENCODING 256
SWIDTH 576 0
DWIDTH 5 0
BBX 5 7 0 0
BITMAP
1900
0400
1800
2500
2600
6A00
8140
ENDCHAR
STARTCHAR amacron
ENCODING 257
SWIDTH 479 0
DWIDTH 4 0
BBX 4 6 0 0
BITMAP
28
14
68
19
55
69
ENDCHAR
STARTCHAR Abreve
ENCODING 258
SWIDTH 576 0
DWIDTH 5 0
BBX 5 7 0 0
BITMAP
2900
0400
1800
2500
2600
6A00
8140
ENDCHAR
STARTCHAR abreve
ENCODING 259
SWIDTH 479 0
DWIDTH 4 0
BBX 4 6 0 0
BITMAP
28
14
68
19
55
69
ENDCHAR
STARTCHAR Aogonek
ENCODING 260
SWIDTH 576 0
DWIDTH 5 0
BBX 5 8 0 -2
BITMAP
0400
1800
2500
2600
6A00
8140
0200
0100
ENDCHAR
STARTCHAR aogonek
ENCODING 261
SWIDTH 479 0
DWIDTH 4 0
BBX 4 7 0 -2
BITMAP
14
68
19
55
69
08
04
ENDCHAR
STARTCHAR Cacute
ENCODING 262
SWIDTH 566 0
DWIDTH 5 0
BBX 4 7 0 0
BITMAP
08
19
52
50
90
52
2A
ENDCHAR
STARTCHAR cacute
ENCODING 263
SWIDTH 461 0
DWIDTH 4 0
BBX 4 6 0 0
BITMAP
18
14
69
80
80
68
ENDCHAR
STARTCHAR Ccircumflex
ENCODING 264
SWIDTH 566 0
DWIDTH 5 0
BBX 4 8 0 0
BITMAP
04
14
19
52
50
90
52
2A
ENDCHAR
STARTCHAR ccircumflex
ENCODING 265
SWIDTH 461 0
DWIDTH 4 0
BBX 4 6 0 0
BITMAP
24
14
69
80
80
68
ENDCHAR
STARTCHAR Cdotaccent
ENCODING 266
SWIDTH 566 0
DWIDTH 5 0
BBX 4 7 0 0
BITMAP
04
19
52
50
90
52
2A
ENDCHAR
STARTCHAR cdotaccent
ENCODING 267
SWIDTH 461 0
DWIDTH 4 0
BBX 4 6 0 0
BITMAP
10
14
69
80
80
68
ENDCHAR
STARTCHAR Ccaron
ENCODING 268
SWIDTH 566 0
DWIDTH 5 0
BBX 4 8 0 0
BITMAP
10
08
19
52
50
90
52
2A
ENDCHAR
STARTCHAR ccaron
ENCODING 269
SWIDTH 461 0
DWIDTH 4 0
BBX 4 6 0 0
BITMAP
24
14
69
80
80
68
ENDCHAR
STARTCHAR Dcaron
ENCODING 270
SWIDTH 570 0
DWIDTH 5 0
BBX 4 7 0 0
BITMAP
14
68
52
52
52
52
69
ENDCHAR
STARTCHAR dcaron
ENCODING 271
SWIDTH 569 0
DWIDTH 5 0
BBX 5 6 0 0
BITMAP
0640
1600
6900
8500
8500
6900
ENDCHAR
STARTCHAR Dcroat
ENCODING 272
SWIDTH 585 0
DWIDTH 5 0
BBX 5 6 0 0
BITMAP
6900
5200
6200
A240
5200
6900
ENDCHAR
STARTCHAR dcroat
ENCODING 273
SWIDTH 529 0
DWIDTH 4 0
BBX 4 6 0 0
BITMAP
0A
1A
69
85
85
69
ENDCHAR
STARTCHAR Emacron
ENCODING 274
SWIDTH 496 0
DWIDTH 4 0
BBX 4 7 0 0
BITMAP
28
69
50
54
64
50
69
ENDCHAR
STARTCHAR emacron
ENCODING 275
SWIDTH 468 0
DWIDTH 4 0
BBX 4 6 0 0
BITMAP
28
14
69
A9
90
68
ENDCHAR
STARTCHAR Ebreve
ENCODING 276
SWIDTH 496 0
DWIDTH 4 0
BBX 4 7 0 0
BITMAP
28
69
50
54
64
50
69
ENDCHAR
STARTCHAR ebreve
ENCODING 277
SWIDTH 468 0
DWIDTH 4 0
BBX 4 6 0 0
BITMAP
28
14
69
A9
90
68
ENDCHAR
STARTCHAR Edotaccent
ENCODING 278
SWIDTH 496 0
DWIDTH 4 0
BBX 4 7 0 0
BITMAP
14
69
50
54
64
50
69
ENDCHAR
STARTCHAR edotaccent
ENCODING 279
SWIDTH 468 0
DWIDTH 4 0
BBX 4 6 0 0
BITMAP
14
14
69
A9
90
68
ENDCHAR
STARTCHAR Eogonek
ENCODING 280
SWIDTH 496 0
DWIDTH 4 0
BBX 4 8 0 -2
BITMAP
69
50
54
64
50
69
08
05
ENDCHAR
STARTCHAR eogonek
ENCODING 281
SWIDTH 468 0
DWIDTH 4 0
BBX 4 7 0 -2
BITMAP
14
69
A9
90
68
14
04
ENDCHAR
STARTCHAR Ecaron
ENCODING 282
SWIDTH 496 0
DWIDTH 4 0
BBX 4 7 0 0
BITMAP
14
69
50
54
64
50
69
ENDCHAR
STARTCHAR ecaron
ENCODING 283
SWIDTH 468 0
DWIDTH 4 0
BBX 4 6 0 0
BITMAP
28
14
69
A9
90
68
ENDCHAR
STARTCHAR Gcircumflex
ENCODING 284
SWIDTH 590 0
DWIDTH 5 0
BBX 5 8 0 0
BITMAP
0400
1400
2900
5200
5000
9600
5240
2A00
ENDCHAR
STARTCHAR gcircumflex
ENCODING 285
SWIDTH 492 0
DWIDTH 4 0
BBX 4 8 0 -2
BITMAP
24
14
69
85
85
69
05
28
ENDCHAR
STARTCHAR Gbreve
ENCODING 286
SWIDTH 590 0
DWIDTH 5 0
BBX 5 7 0 0
BITMAP
1900
2900
5200
5000
9600
5240
2A00
ENDCHAR
STARTCHAR gbreve
ENCODING 287
SWIDTH 492 0
DWIDTH 4 0
BBX 4 8 0 -2
BITMAP
28
14
69
85
85
69
05
28
ENDCHAR
STARTCHAR Gdotaccent
ENCODING 288
SWIDTH 590 0
DWIDTH 5 0
BBX 5 7 0 0
BITMAP
0400
2900
5200
5000
9600
5240
2A00
ENDCHAR
STARTCHAR gdotaccent
ENCODING 289
SWIDTH 492 0
DWIDTH 4 0
BBX 4 8 0 -2
BITMAP
14
10
69
85
85
69
05
28
ENDCHAR
STARTCHAR uni0122
ENCODING 290
SWIDTH 590 0
DWIDTH 5 0
BBX 5 8 0 -2
BITMAP
2900
5200
5000
9600
5240
2A00
0400
0800
ENDCHAR
STARTCHAR uni0123
ENCODING 291
SWIDTH 492 0
DWIDTH 4 0
BBX 4 9 0 -2
BITMAP
04
14
10
69
85
85
69
05
28
ENDCHAR
STARTCHAR Hcircumflex
ENCODING 292
SWIDTH 620 0
DWIDTH 5 0
BBX 5 7 0 0
BITMAP
1800
5140
5140
5640
6640
5140
5140
ENDCHAR
STARTCHAR hcircumflex
ENCODING 293
SWIDTH 482 0
DWIDTH 4 0
BBX 4 7 0 0
BITMAP
24
50
54
69
55
55
55
ENDCHAR
STARTCHAR Hbar
ENCODING 294
SWIDTH 611 0
DWIDTH 5 0
BBX 5 6 0 0
BITMAP
5140
AA80
6640
6640
5140
5140
ENDCHAR
STARTCHAR hbar
ENCODING 295
SWIDTH 497 0
DWIDTH 4 0
BBX 4 6 0 0
BITMAP
A0
64
69
55
55
55
ENDCHAR
STARTCHAR Itilde
ENCODING 296
SWIDTH 250 0
DWIDTH 2 0
BBX 2 7 0 0
BITMAP
A0
50
50
50
50
50
50
ENDCHAR
STARTCHAR itilde
ENCODING 297
SWIDTH 234 0
DWIDTH 2 0
BBX 2 6 0 0
BITMAP
A0
00
50
50
50
50
ENDCHAR
STARTCHAR Imacron
ENCODING 298
SWIDTH 250 0
DWIDTH 2 0
BBX 2 7 0 0
BITMAP
A0
50
50
50
50
50
50
ENDCHAR
STARTCHAR imacron
ENCODING 299
SWIDTH 234 0
DWIDTH 2 0
BBX 2 6 0 0
BITMAP
A0
00
50
50
50
50
ENDCHAR
STARTCHAR Ibreve
ENCODING 300
SWIDTH 250 0
DWIDTH 2 0
BBX 2 7 0 0
BITMAP
A0
50
50
50
50
50
50
ENDCHAR
STARTCHAR ibreve
ENCODING 301
SWIDTH 234 0
DWIDTH 2 0
BBX 2 6 0 0
BITMAP
A0
40
50
50
50
50
ENDCHAR
STARTCHAR Iogonek
ENCODING 302
SWIDTH 250 0
DWIDTH 2 0
BBX 2 8 0 -2
BITMAP
50
50
50
50
50
50
80
40
ENDCHAR
STARTCHAR iogonek
ENCODING 303
SWIDTH 229 0
DWIDTH 2 0
BBX 2 8 0 -2
BITMAP
50
00
50
50
50
50
80
40
ENDCHAR
STARTCHAR Idotaccent
ENCODING 304
SWIDTH 250 0
DWIDTH 2 0
BBX 2 7 0 0
BITMAP
50
50
50
50
50
50
50
ENDCHAR
STARTCHAR dotlessi
ENCODING 305
SWIDTH 234 0
DWIDTH 2 0
BBX 2 4 0 0
BITMAP
50
50
50
50
ENDCHAR
STARTCHAR IJ
ENCODING 306
SWIDTH 733 0
DWIDTH 6 0
BBX 6 6 0 0
BITMAP
5050
5050
5050
5050
5450
5680
ENDCHAR
STARTCHAR ij
ENCODING 307
SWIDTH 452 0
DWIDTH 4 0
BBX 3 8 0 -2
BITMAP
54
00
58
58
58
58
08
08
ENDCHAR
STARTCHAR Jcircumflex
ENCODING 308
SWIDTH 483 0
DWIDTH 4 0
BBX 4 7 0 0
BITMAP
09
05
05
05
05
45
68
ENDCHAR
STARTCHAR jcircumflex
ENCODING 309
SWIDTH 237 0
DWIDTH 2 0
BBX 2 8 0 -2
BITMAP
50
50
50
50
50
50
50
80
ENDCHAR
STARTCHAR uni0136
ENCODING 310
SWIDTH 544 0
DWIDTH 4 0
BBX 4 8 0 -2
BITMAP
52
59
68
68
55
52
08
04
ENDCHAR
STARTCHAR uni0137
ENCODING 311
SWIDTH 450 0
DWIDTH 4 0
BBX 4 8 0 -2
BITMAP
50
50
58
74
58
59
10
10
ENDCHAR
STARTCHAR kgreenlandic
ENCODING 312
SWIDTH 491 0
DWIDTH 4 0
BBX 4 4 0 0
BITMAP
58
64
68
59
ENDCHAR
STARTCHAR Lacute
ENCODING 313
SWIDTH 475 0
DWIDTH 4 0
BBX 4 7 0 0
BITMAP
20
50
50
50
50
50
69
ENDCHAR
STARTCHAR lacute
ENCODING 314
SWIDTH 229 0
DWIDTH 2 0
BBX 2 8 0 0
BITMAP
10
10
50
50
50
50
50
50
ENDCHAR
STARTCHAR uni013B
ENCODING 315
SWIDTH 475 0
DWIDTH 4 0
BBX 4 8 0 -2
BITMAP
50
50
50
50
50
69
04
14
ENDCHAR
STARTCHAR uni013C
ENCODING 316
SWIDTH 229 0
DWIDTH 2 0
BBX 2 8 0 -2
BITMAP
50
50
50
50
50
50
40
40
ENDCHAR
STARTCHAR Lcaron
ENCODING 317
SWIDTH 475 0
DWIDTH 4 0
BBX 4 6 0 0
BITMAP
54
54
50
50
50
69
ENDCHAR
STARTCHAR lcaron
ENCODING 318
SWIDTH 302 0
DWIDTH 2 0
BBX 3 6 0 0
BITMAP
64
50
50
50
50
50
ENDCHAR
STARTCHAR Ldot
ENCODING 319
SWIDTH 475 0
DWIDTH 4 0
BBX 4 6 0 0
BITMAP
50
50
54
54
50
69
ENDCHAR
STARTCHAR ldot
ENCODING 320
SWIDTH 336 0
DWIDTH 3 0
BBX 2 6 0 0
BITMAP
50
50
50
50
50
50
ENDCHAR
STARTCHAR Lslash
ENCODING 321
SWIDTH 475 0
DWIDTH 4 0
BBX 4 6 0 0
BITMAP
50
50
60
90
50
69
ENDCHAR
STARTCHAR lslash
ENCODING 322
SWIDTH 250 0
DWIDTH 2 0
BBX 2 6 0 0
BITMAP
50
50
60
90
50
50
ENDCHAR
STARTCHAR Nacute
ENCODING 323
SWIDTH 619 0
DWIDTH 5 0
BBX 5 7 0 0
BITMAP
0800
5140
7140
6540
5940
5740
5240
ENDCHAR
STARTCHAR nacute
ENCODING 324
SWIDTH 483 0
DWIDTH 4 0
BBX 4 6 0 0
BITMAP
08
14
69
55
55
55
ENDCHAR
STARTCHAR uni0145
ENCODING 325
SWIDTH 619 0
DWIDTH 5 0
BBX 5 8 0 -2
BITMAP
5140
7140
6540
5940
5740
5240
0400
0400
ENDCHAR
STARTCHAR uni0146
ENCODING 326
SWIDTH 483 0
DWIDTH 4 0
BBX 4 7 0 -2
BITMAP
04
69
55
55
55
10
10
ENDCHAR
STARTCHAR Ncaron
ENCODING 327
SWIDTH 619 0
DWIDTH 5 0
BBX 5 7 0 0
BITMAP
0800
5140
7140
6540
5940
5740
5240
ENDCHAR
STARTCHAR ncaron
ENCODING 328
SWIDTH 483 0
DWIDTH 4 0
BBX 4 6 0 0
BITMAP
28
04
69
55
55
55
ENDCHAR
STARTCHAR napostrophe
ENCODING 329
SWIDTH 483 0
DWIDTH 4 0
BBX 4 6 0 0
BITMAP
80
44
69
55
55
55
ENDCHAR
STARTCHAR Eng
ENCODING 330
SWIDTH 599 0
DWIDTH 5 0
BBX 5 8 0 -2
BITMAP
5100
7140
6540
5A40
5740
5240
0240
0200
ENDCHAR
STARTCHAR eng
ENCODING 331
SWIDTH 498 0
DWIDTH 4 0
BBX 4 7 0 -2
BITMAP
04
69
55
55
55
05
08
ENDCHAR
STARTCHAR Omacron
ENCODING 332
SWIDTH 600 0
DWIDTH 5 0
BBX 5 7 0 0
BITMAP
1900
1900
5200
5140
9140
5240
2A00
ENDCHAR
STARTCHAR omacron
ENCODING 333
SWIDTH 501 0
DWIDTH 4 0
BBX 4 6 0 0
BITMAP
28
14
69
82
82
69
ENDCHAR
STARTCHAR Obreve
ENCODING 334
SWIDTH 600 0
DWIDTH 5 0
BBX 5 7 0 0
BITMAP
1900
1900
5200
5140
9140
5240
2A00
ENDCHAR
STARTCHAR obreve
ENCODING 335
SWIDTH 501 0
DWIDTH 4 0
BBX 4 6 0 0
BITMAP
28
14
69
82
82
69
ENDCHAR
STARTCHAR Ohungarumlaut
ENCODING 336
SWIDTH 600 0
DWIDTH 5 0
BBX 5 7 0 0
BITMAP
1900
1900
5200
5140
9140
5240
2A00
ENDCHAR
STARTCHAR ohungarumlaut
ENCODING 337
SWIDTH 501 0
DWIDTH 4 0
BBX 4 6 0 0
BITMAP
29
14
69
82
82
69
ENDCHAR
STARTCHAR OE
ENCODING 338
SWIDTH 826 0
DWIDTH 7 0
BBX 6 6 0 0
BITMAP
2AA0
5200
8240
8250
5200
2BA0
ENDCHAR
STARTCHAR oe
ENCODING 339
SWIDTH 777 0
DWIDTH 6 0
BBX 6 5 0 0
BITMAP
1040
6A60
83A0
8600
2A90
ENDCHAR
STARTCHAR Racute
ENCODING 340
SWIDTH 530 0
DWIDTH 4 0
BBX 4 7 0 0
BITMAP
08
69
52
52
6D
55
52
ENDCHAR
STARTCHAR racute
ENCODING 341
SWIDTH 304 0
DWIDTH 2 0
BBX 3 6 0 0
BITMAP
24
10
60
50
50
50
ENDCHAR
STARTCHAR uni0156
ENCODING 342
SWIDTH 530 0
DWIDTH 4 0
BBX 4 8 0 -2
BITMAP
69
52
52
6D
55
52
04
14
ENDCHAR
STARTCHAR uni0157
ENCODING 343
SWIDTH 304 0
DWIDTH 2 0
BBX 2 7 0 -2
BITMAP
10
60
50
50
50
40
40
ENDCHAR
STARTCHAR Rcaron
ENCODING 344
SWIDTH 530 0
DWIDTH 4 0
BBX 4 7 0 0
BITMAP
14
69
52
52
6D
55
52
ENDCHAR
STARTCHAR rcaron
ENCODING 345
SWIDTH 304 0
DWIDTH 2 0
BBX 2 6 0 0
BITMAP
60
10
60
50
50
50
ENDCHAR
STARTCHAR Sacute
ENCODING 346
SWIDTH 518 0
DWIDTH 4 0
BBX 4 7 0 0
BITMAP
08
28
52
60
19
42
69
ENDCHAR
STARTCHAR sacute
ENCODING 347
SWIDTH 455 0
DWIDTH 4 0
BBX 3 6 0 0
BITMAP
08
14
68
64
08
68
ENDCHAR
STARTCHAR Scircumflex
ENCODING 348
SWIDTH 518 0
DWIDTH 4 0
BBX 4 7 0 0
BITMAP
14
28
52
60
19
42
69
ENDCHAR
STARTCHAR scircumflex
ENCODING 349
SWIDTH 455 0
DWIDTH 4 0
BBX 3 6 0 0
BITMAP
24
14
68
64
08
68
ENDCHAR
STARTCHAR Scedilla
ENCODING 350
SWIDTH 518 0
DWIDTH 4 0
BBX 4 8 0 -2
BITMAP
28
52
60
19
42
69
08
04
ENDCHAR
STARTCHAR scedilla
ENCODING 351
SWIDTH 455 0
DWIDTH 4 0
BBX 3 7 0 -2
BITMAP
10
68
64
08
68
14
04
ENDCHAR
STARTCHAR Scaron
ENCODING 352
SWIDTH 518 0
DWIDTH 4 0
BBX 4 7 0 0
BITMAP
14
28
52
60
19
42
69
ENDCHAR
STARTCHAR scaron
ENCODING 353
SWIDTH 455 0
DWIDTH 4 0
BBX 3 6 0 0
BITMAP
28
10
68
64
08
68
ENDCHAR
STARTCHAR uni0162
ENCODING 354
SWIDTH 520 0
DWIDTH 4 0
BBX 4 8 0 -2
BITMAP
6A
14
14
14
14
14
08
04
ENDCHAR
STARTCHAR uni0163
ENCODING 355
SWIDTH 295 0
DWIDTH 2 0
BBX 2 7 0 -2
BITMAP
60
60
50
50
20
20
10
ENDCHAR
STARTCHAR Tcaron
ENCODING 356
SWIDTH 520 0
DWIDTH 4 0
BBX 4 7 0 0
BITMAP
14
6A
14
14
14
14
14
ENDCHAR
STARTCHAR tcaron
ENCODING 357
SWIDTH 314 0
DWIDTH 3 0
BBX 3 7 0 0
BITMAP
04
14
60
60
50
50
20
ENDCHAR
STARTCHAR Tbar
ENCODING 358
SWIDTH 520 0
DWIDTH 4 0
BBX 4 6 0 0
BITMAP
6A
14
28
14
14
14
ENDCHAR
STARTCHAR tbar
ENCODING 359
SWIDTH 295 0
DWIDTH 2 0
BBX 2 5 0 0
BITMAP
60
60
A0
50
20
ENDCHAR
STARTCHAR Utilde
ENCODING 360
SWIDTH 561 0
DWIDTH 5 0
BBX 4 7 0 0
BITMAP
29
41
52
52
52
52
2A
ENDCHAR
STARTCHAR utilde
ENCODING 361
SWIDTH 483 0
DWIDTH 4 0
BBX 4 6 0 0
BITMAP
28
00
95
95
55
69
ENDCHAR
STARTCHAR Umacron
ENCODING 362
SWIDTH 561 0
DWIDTH 5 0
BBX 4 7 0 0
BITMAP
19
41
52
52
52
52
2A
ENDCHAR
STARTCHAR umacron
ENCODING 363
SWIDTH 483 0
DWIDTH 4 0
BBX 4 6 0 0
BITMAP
28
00
95
95
55
69
ENDCHAR
STARTCHAR Ubreve
ENCODING 364
SWIDTH 561 0
DWIDTH 5 0
BBX 4 7 0 0
BITMAP
29
41
52
52
52
52
2A
ENDCHAR
STARTCHAR ubreve
ENCODING 365
SWIDTH 483 0
DWIDTH 4 0
BBX 4 6 0 0
BITMAP
28
00
95
95
55
69
ENDCHAR
STARTCHAR Uring
ENCODING 366
SWIDTH 561 0
DWIDTH 5 0
BBX 4 8 0 0
BITMAP
04
14
41
52
52
52
52
2A
ENDCHAR
STARTCHAR uring
ENCODING 367
SWIDTH 483 0
DWIDTH 4 0
BBX 4 7 0 0
BITMAP
10
14
00
95
95
55
69
ENDCHAR
STARTCHAR Uhungarumlaut
ENCODING 368
SWIDTH 561 0
DWIDTH 5 0
BBX 4 7 0 0
BITMAP
19
41
52
52
52
52
2A
ENDCHAR
STARTCHAR uhungarumlaut
ENCODING 369
SWIDTH 483 0
DWIDTH 4 0
BBX 4 6 0 0
BITMAP
29
04
95
95
55
69
ENDCHAR
STARTCHAR Uogonek
ENCODING 370
SWIDTH 561 0
DWIDTH 5 0
BBX 4 8 0 -2
BITMAP
41
52
52
52
52
29
08
04
ENDCHAR
STARTCHAR uogonek
ENCODING 371
SWIDTH 483 0
DWIDTH 4 0
BBX 4 6 0 -2
BITMAP
95
95
55
69
08
04
ENDCHAR
STARTCHAR Wcircumflex
ENCODING 372
SWIDTH 761 0
DWIDTH 6 0
BBX 6 7 0 0
BITMAP
0500
4510
5620
5A50
2990
25C0
2480
ENDCHAR
STARTCHAR wcircumflex
ENCODING 373
SWIDTH 649 0
DWIDTH 5 0
BBX 5 6 0 0
BITMAP
0900
0000
8C80
5980
3640
2200
ENDCHAR
STARTCHAR Ycircumflex
ENCODING 374
SWIDTH 524 0
DWIDTH 4 0
BBX 4 7 0 0
BITMAP
14
42
56
28
18
14
14
ENDCHAR
STARTCHAR ycircumflex
ENCODING 375
SWIDTH 416 0
DWIDTH 3 0
BBX 3 8 0 -2
BITMAP
24
44
88
58
24
20
20
50
ENDCHAR
STARTCHAR Ydieresis
ENCODING 376
SWIDTH 524 0
DWIDTH 4 0
BBX 4 7 0 0
BITMAP
15
42
56
28
18
14
14
ENDCHAR
STARTCHAR Zacute
ENCODING 377
SWIDTH 522 0
DWIDTH 4 0
BBX 4 7 0 0
BITMAP
08
6A
05
08
24
20
AA
ENDCHAR
STARTCHAR zacute
ENCODING 378
SWIDTH 438 0
DWIDTH 4 0
BBX 3 6 0 0
BITMAP
18
14
5C
14
20
A8
ENDCHAR
STARTCHAR Zdotaccent
ENCODING 379
SWIDTH 522 0
DWIDTH 4 0
BBX 4 7 0 0
BITMAP
14
6A
05
08
24
20
AA
ENDCHAR
STARTCHAR zdotaccent
ENCODING 380
SWIDTH 438 0
DWIDTH 4 0
BBX 3 6 0 0
BITMAP
10
14
5C
14
20
A8
ENDCHAR
STARTCHAR Zcaron
ENCODING 381
SWIDTH 522 0
DWIDTH 4 0
BBX 4 7 0 0
BITMAP
14
6A
05
08
24
20
AA
ENDCHAR
STARTCHAR zcaron
ENCODING 382
SWIDTH 438 0
DWIDTH 4 0
BBX 3 6 0 0
BITMAP
24
14
5C
14
20
A8
ENDCHAR
STARTCHAR longs
ENCODING 383
SWIDTH 234 0
DWIDTH 2 0
BBX 2 6 0 0
BITMAP
60
50
50
50
50
50
ENDCHAR
STARTCHAR uni018F
ENCODING 399
SWIDTH 597 0
DWIDTH 5 0
BBX 5 6 0 0
BITMAP
2900
0200
0140
AA40
9200
2A00
ENDCHAR
STARTCHAR florin
ENCODING 402
SWIDTH 309 0
DWIDTH 2 0
BBX 3 8 0 -2
BITMAP
24
60
60
50
50
50
50
80
ENDCHAR
STARTCHAR Ohorn
ENCODING 416
SWIDTH 592 0
DWIDTH 5 0
BBX 5 6 0 0
BITMAP
1980
5200
8140
8140
5200
2A00
ENDCHAR
STARTCHAR ohorn
ENCODING 417
SWIDTH 502 0
DWIDTH 4 0
BBX 4 5 0 0
BITMAP
15
6A
82
82
28
ENDCHAR
STARTCHAR Uhorn
ENCODING 431
SWIDTH 608 0
DWIDTH 5 0
BBX 6 6 0 0
BITMAP
4150
5240
5200
5200
5200
2900
ENDCHAR
STARTCHAR uhorn
ENCODING 432
SWIDTH 549 0
DWIDTH 4 0
BBX 5 5 0 0
BITMAP
0040
9600
9500
5500
6900
ENDCHAR
STARTCHAR uni01F0
ENCODING 496
SWIDTH 237 0
DWIDTH 2 0
BBX 2 8 0 -2
BITMAP
50
40
50
50
50
50
50
80
ENDCHAR
STARTCHAR Aringacute
ENCODING 506
SWIDTH 576 0
DWIDTH 5 0
BBX 5 8 0 0
BITMAP
0400
0400
0800
1800
2500
2600
6A00
8140
ENDCHAR
STARTCHAR aringacute
ENCODING 507
SWIDTH 479 0
DWIDTH 4 0
BBX 4 7 0 0
BITMAP
04
04
14
68
19
55
69
ENDCHAR
STARTCHAR AEacute
ENCODING 508
SWIDTH 812 0
DWIDTH 7 0
BBX 7 7 0 0
BITMAP
0200
06A0
0A00
1650
2250
6B00
82A4
ENDCHAR
STARTCHAR aeacute
ENCODING 509
SWIDTH 728 0
DWIDTH 6 0
BBX 6 6 0 0
BITMAP
0200
1440
6A90
1AA0
9900
6A90
ENDCHAR
STARTCHAR Oslashacute
ENCODING 510
SWIDTH 600 0
DWIDTH 5 0
BBX 5 8 0 0
BITMAP
0500
0400
1A00
6300
5640
9540
6200
3A00
ENDCHAR
STARTCHAR oslashacute
ENCODING 511
SWIDTH 498 0
DWIDTH 4 0
BBX 4 6 0 0
BITMAP
08
14
69
9A
A6
38
ENDCHAR
STARTCHAR uni0218
ENCODING 536
SWIDTH 518 0
DWIDTH 4 0
BBX 4 8 0 -2
BITMAP
28
52
60
19
42
69
04
14
ENDCHAR
STARTCHAR uni0219
ENCODING 537
SWIDTH 455 0
DWIDTH 4 0
BBX 3 7 0 -2
BITMAP
10
68
64
08
68
10
10
ENDCHAR
STARTCHAR uni021A
ENCODING 538
SWIDTH 520 0
DWIDTH 4 0
BBX 4 8 0 -2
BITMAP
6A
14
14
14
14
14
04
14
ENDCHAR
STARTCHAR uni021B
ENCODING 539
SWIDTH 295 0
DWIDTH 2 0
BBX 2 7 0 -2
BITMAP
60
60
50
50
20
10
20
ENDCHAR
STARTCHAR uni0237
ENCODING 567
SWIDTH 237 0
DWIDTH 2 0
BBX 2 6 0 -2
BITMAP
50
50
50
50
50
80
ENDCHAR
STARTCHAR uni0259
ENCODING 601
SWIDTH 465 0
DWIDTH 4 0
BBX 4 5 0 0
BITMAP
10
58
19
99
68
ENDCHAR
STARTCHAR uni02BC
ENCODING 700
SWIDTH 194 0
DWIDTH 2 0
BBX 2 2 0 4
BITMAP
50
40
ENDCHAR
STARTCHAR circumflex
ENCODING 710
SWIDTH 428 0
DWIDTH 3 0
BBX 2 1 1 5
BITMAP
90
ENDCHAR
STARTCHAR caron
ENCODING 711
SWIDTH 403 0
DWIDTH 3 0
BBX 2 1 1 5
BITMAP
90
ENDCHAR
STARTCHAR uni02C9
ENCODING 713
SWIDTH 414 0
DWIDTH 3 0
BBX 3 1 0 5
BITMAP
64
ENDCHAR
STARTCHAR breve
ENCODING 728
SWIDTH 426 0
DWIDTH 3 0
BBX 3 1 0 5
BITMAP
58
ENDCHAR
STARTCHAR dotaccent
ENCODING 729
SWIDTH 242 0
DWIDTH 2 0
BBX 2 1 0 5
BITMAP
50
ENDCHAR
STARTCHAR ring
ENCODING 730
SWIDTH 334 0
DWIDTH 3 0
BBX 2 3 0 4
BITMAP
10
50
10
ENDCHAR
STARTCHAR ogonek
ENCODING 731
SWIDTH 253 0
DWIDTH 2 0
BBX 2 2 0 -2
BITMAP
80
50
ENDCHAR
STARTCHAR tilde
ENCODING 732
SWIDTH 427 0
DWIDTH 3 0
BBX 3 1 0 5
BITMAP
64
ENDCHAR
STARTCHAR hungarumlaut
ENCODING 733
SWIDTH 331 0
DWIDTH 3 0
BBX 3 1 0 5
BITMAP
64
ENDCHAR
STARTCHAR uni02F3
ENCODING 755
SWIDTH 263 0
DWIDTH 2 0
BBX 2 2 0 -2
BITMAP
50
50
ENDCHAR
STARTCHAR gravecomb
ENCODING 768
SWIDTH 0 0
DWIDTH 0 0
BBX 2 1 -3 5
BITMAP
50
ENDCHAR
STARTCHAR acutecomb
ENCODING 769
SWIDTH 0 0
DWIDTH 0 0
BBX 1 1 -2 5
BITMAP
80
ENDCHAR
STARTCHAR tildecomb
ENCODING 771
SWIDTH 0 0
DWIDTH 0 0
BBX 3 1 -3 5
BITMAP
64
ENDCHAR
STARTCHAR hookabovecomb
ENCODING 777
SWIDTH 0 0
DWIDTH 0 0
BBX 1 2 -2 5
BITMAP
40
80
ENDCHAR
STARTCHAR uni030F
ENCODING 783
SWIDTH 0 0
DWIDTH 0 0
BBX 2 1 -3 5
BITMAP
A0
ENDCHAR
STARTCHAR dotbelowcomb
ENCODING 803
SWIDTH 0 0
DWIDTH 0 0
BBX 1 2 -3 -2
BITMAP
40
40
ENDCHAR
STARTCHAR tonos
ENCODING 900
SWIDTH 256 0
DWIDTH 2 0
BBX 2 1 0 5
BITMAP
50
ENDCHAR
STARTCHAR dieresistonos
ENCODING 901
SWIDTH 452 0
DWIDTH 4 0
BBX 3 2 0 5
BITMAP
10
54
ENDCHAR
STARTCHAR Alphatonos
ENCODING 902
SWIDTH 576 0
DWIDTH 5 0
BBX 5 6 0 0
BITMAP
5400
1800
2500
2600
6A00
8140
ENDCHAR
STARTCHAR anoteleia
ENCODING 903
SWIDTH 243 0
DWIDTH 2 0
BBX 1 1 0 2
BITMAP
40
ENDCHAR
STARTCHAR Epsilontonos
ENCODING 904
SWIDTH 496 0
DWIDTH 4 0
BBX 5 6 -1 0
BITMAP
9A40
1400
1500
1900
1400
1A40
ENDCHAR
STARTCHAR Etatonos
ENCODING 905
SWIDTH 620 0
DWIDTH 5 0
BBX 6 6 -1 0
BITMAP
9450
1450
1590
1990
1450
1450
ENDCHAR
STARTCHAR Iotatonos
ENCODING 906
SWIDTH 250 0
DWIDTH 2 0
BBX 3 6 -1 0
BITMAP
94
14
14
14
14
14
ENDCHAR
STARTCHAR Omicrontonos
ENCODING 908
SWIDTH 610 0
DWIDTH 5 0
BBX 5 6 0 0
BITMAP
9900
6240
5140
5140
5140
2A00
ENDCHAR
STARTCHAR Upsilontonos
ENCODING 910
SWIDTH 573 0
DWIDTH 5 0
BBX 6 6 -1 0
BITMAP
9450
0880
0540
0300
0200
0200
ENDCHAR
STARTCHAR Omegatonos
ENCODING 911
SWIDTH 591 0
DWIDTH 5 0
BBX 5 6 0 0
BITMAP
9900
6200
5240
5200
5200
7700
ENDCHAR
STARTCHAR iotadieresistonos
ENCODING 912
SWIDTH 299 0
DWIDTH 2 0
BBX 3 7 0 0
BITMAP
10
54
00
50
50
50
20
ENDCHAR
STARTCHAR Alpha
ENCODING 913
SWIDTH 576 0
DWIDTH 5 0
BBX 5 6 0 0
BITMAP
0400
1800
2500
2600
6A00
8140
ENDCHAR
STARTCHAR Beta
ENCODING 914
SWIDTH 545 0
DWIDTH 4 0
BBX 4 6 0 0
BITMAP
69
52
66
66
52
69
ENDCHAR
STARTCHAR Gamma
ENCODING 915
SWIDTH 487 0
DWIDTH 4 0
BBX 4 6 0 0
BITMAP
69
50
50
50
50
50
ENDCHAR
STARTCHAR Delta.dup1
ENCODING 916
SWIDTH 614 0
DWIDTH 5 0
BBX 5 6 0 0
BITMAP
0800
1D00
2600
2200
5240
AA80
ENDCHAR
STARTCHAR Epsilon
ENCODING 917
SWIDTH 496 0
DWIDTH 4 0
BBX 4 6 0 0
BITMAP
69
50
54
64
50
69
ENDCHAR
STARTCHAR Zeta
ENCODING 918
SWIDTH 522 0
DWIDTH 4 0
BBX 4 6 0 0
BITMAP
6A
05
08
24
20
AA
ENDCHAR
STARTCHAR Eta
ENCODING 919
SWIDTH 620 0
DWIDTH 5 0
BBX 5 6 0 0
BITMAP
5140
5140
5640
6640
5140
5140
ENDCHAR
STARTCHAR Theta
ENCODING 920
SWIDTH 593 0
DWIDTH 5 0
BBX 5 6 0 0
BITMAP
1900
5200
9640
9640
5200
2A00
ENDCHAR
STARTCHAR Iota
ENCODING 921
SWIDTH 250 0
DWIDTH 2 0
BBX 2 6 0 0
BITMAP
50
50
50
50
50
50
ENDCHAR
STARTCHAR Kappa
ENCODING 922
SWIDTH 544 0
DWIDTH 4 0
BBX 4 6 0 0
BITMAP
52
59
68
68
55
52
ENDCHAR
STARTCHAR Lambda
ENCODING 923
SWIDTH 572 0
DWIDTH 5 0
BBX 5 6 0 0
BITMAP
0400
1C00
2500
2600
5200
8240
ENDCHAR
STARTCHAR Mu
ENCODING 924
SWIDTH 755 0
DWIDTH 6 0
BBX 6 6 0 0
BITMAP
5050
70D0
6590
5A50
5A50
5550
ENDCHAR
STARTCHAR Nu
ENCODING 925
SWIDTH 619 0
DWIDTH 5 0
BBX 5 6 0 0
BITMAP
5140
7140
6540
5940
5740
5240
ENDCHAR
STARTCHAR Xi
ENCODING 926
SWIDTH 502 0
DWIDTH 4 0
BBX 4 6 0 0
BITMAP
69
00
14
14
00
69
ENDCHAR
STARTCHAR Omicron
ENCODING 927
SWIDTH 600 0
DWIDTH 5 0
BBX 5 6 0 0
BITMAP
1900
5200
5140
9140
5240
2A00
ENDCHAR
STARTCHAR Pi
ENCODING 928
SWIDTH 620 0
DWIDTH 5 0
BBX 5 6 0 0
BITMAP
6A40
5140
5140
5140
5140
5140
ENDCHAR
STARTCHAR Rho
ENCODING 929
SWIDTH 554 0
DWIDTH 4 0
BBX 4 6 0 0
BITMAP
69
52
52
69
50
50
ENDCHAR
STARTCHAR Sigma
ENCODING 931
SWIDTH 502 0
DWIDTH 4 0
BBX 4 6 0 0
BITMAP
69
60
24
14
20
A9
ENDCHAR
STARTCHAR Tau
ENCODING 932
SWIDTH 520 0
DWIDTH 4 0
BBX 4 6 0 0
BITMAP
6A
14
14
14
14
14
ENDCHAR
STARTCHAR Upsilon
ENCODING 933
SWIDTH 524 0
DWIDTH 4 0
BBX 4 6 0 0
BITMAP
42
56
28
18
14
14
ENDCHAR
STARTCHAR Phi
ENCODING 934
SWIDTH 621 0
DWIDTH 5 0
BBX 5 6 0 0
BITMAP
0400
2E00
8880
8880
6A40
0800
ENDCHAR
STARTCHAR Chi
ENCODING 935
SWIDTH 550 0
DWIDTH 4 0
BBX 4 6 0 0
BITMAP
52
25
28
18
25
52
ENDCHAR
STARTCHAR Psi
ENCODING 936
SWIDTH 600 0
DWIDTH 5 0
BBX 5 6 0 0
BITMAP
4540
8940
8940
5A00
1D00
0800
ENDCHAR
STARTCHAR Omega.dup2
ENCODING 937
SWIDTH 581 0
DWIDTH 5 0
BBX 4 6 0 0
BITMAP
29
52
92
92
52
76
ENDCHAR
STARTCHAR Iotadieresis
ENCODING 938
SWIDTH 250 0
DWIDTH 2 0
BBX 2 7 0 0
BITMAP
50
50
50
50
50
50
50
ENDCHAR
STARTCHAR Upsilondieresis
ENCODING 939
SWIDTH 524 0
DWIDTH 4 0
BBX 4 7 0 0
BITMAP
15
42
56
28
18
14
14
ENDCHAR
STARTCHAR alphatonos
ENCODING 940
SWIDTH 494 0
DWIDTH 4 0
BBX 4 6 0 0
BITMAP
04
10
69
85
85
6A
ENDCHAR
STARTCHAR epsilontonos
ENCODING 941
SWIDTH 470 0
DWIDTH 4 0
BBX 3 6 0 0
BITMAP
14
10
68
64
50
68
ENDCHAR
STARTCHAR etatonos
ENCODING 942
SWIDTH 498 0
DWIDTH 4 0
BBX 4 8 0 -2
BITMAP
14
04
69
55
55
55
05
01
ENDCHAR
STARTCHAR iotatonos
ENCODING 943
SWIDTH 299 0
DWIDTH 2 0
BBX 2 6 0 0
BITMAP
20
00
50
50
50
20
ENDCHAR
STARTCHAR upsilondieresistonos
ENCODING 944
SWIDTH 480 0
DWIDTH 4 0
BBX 4 7 0 0
BITMAP
04
54
04
55
55
55
68
ENDCHAR
STARTCHAR alpha
ENCODING 945
SWIDTH 494 0
DWIDTH 4 0
BBX 4 5 0 0
BITMAP
10
69
85
85
6A
ENDCHAR
STARTCHAR beta
ENCODING 946
SWIDTH 517 0
DWIDTH 4 0
BBX 4 8 0 -2
BITMAP
28
55
59
55
52
69
50
40
ENDCHAR
STARTCHAR gamma
ENCODING 947
SWIDTH 444 0
DWIDTH 4 0
BBX 3 6 0 -2
BITMAP
88
58
28
24
20
10
ENDCHAR
STARTCHAR delta
ENCODING 948
SWIDTH 498 0
DWIDTH 4 0
BBX 4 6 0 0
BITMAP
28
20
29
86
86
28
ENDCHAR
STARTCHAR epsilon
ENCODING 949
SWIDTH 470 0
DWIDTH 4 0
BBX 3 5 0 0
BITMAP
10
68
64
50
68
ENDCHAR
STARTCHAR zeta
ENCODING 950
SWIDTH 462 0
DWIDTH 4 0
BBX 4 8 0 -2
BITMAP
69
08
24
20
50
24
08
04
ENDCHAR
STARTCHAR eta
ENCODING 951
SWIDTH 498 0
DWIDTH 4 0
BBX 4 7 0 -2
BITMAP
04
69
55
55
55
05
01
ENDCHAR
STARTCHAR theta
ENCODING 952
SWIDTH 496 0
DWIDTH 4 0
BBX 4 6 0 0
BITMAP
28
55
95
AA
55
28
ENDCHAR
STARTCHAR iota
ENCODING 953
SWIDTH 299 0
DWIDTH 2 0
BBX 2 4 0 0
BITMAP
50
50
50
20
ENDCHAR
STARTCHAR kappa
ENCODING 954
SWIDTH 491 0
DWIDTH 4 0
BBX 4 4 0 0
BITMAP
58
64
68
59
ENDCHAR
STARTCHAR lambda
ENCODING 955
SWIDTH 485 0
DWIDTH 4 0
BBX 4 6 0 0
BITMAP
60
20
24
28
58
85
ENDCHAR
STARTCHAR uni03BC
ENCODING 956
SWIDTH 498 0
DWIDTH 4 0
BBX 4 6 0 -2
BITMAP
55
55
55
69
50
40
ENDCHAR
STARTCHAR nu
ENCODING 957
SWIDTH 427 0
DWIDTH 3 0
BBX 3 4 0 0
BITMAP
88
58
24
20
ENDCHAR
STARTCHAR xi
ENCODING 958
SWIDTH 431 0
DWIDTH 3 0
BBX 3 8 0 -2
BITMAP
28
50
24
50
80
24
08
04
ENDCHAR
STARTCHAR omicron
ENCODING 959
SWIDTH 501 0
DWIDTH 4 0
BBX 4 5 0 0
BITMAP
14
69
82
82
69
ENDCHAR
STARTCHAR pi
ENCODING 960
SWIDTH 520 0
DWIDTH 4 0
BBX 4 5 0 0
BITMAP
55
6A
55
55
56
ENDCHAR
STARTCHAR rho
ENCODING 961
SWIDTH 498 0
DWIDTH 4 0
BBX 4 7 0 -2
BITMAP
04
29
52
56
69
50
40
ENDCHAR
STARTCHAR sigma1
ENCODING 962
SWIDTH 472 0
DWIDTH 4 0
BBX 4 7 0 -2
BITMAP
10
69
80
90
24
08
04
ENDCHAR
STARTCHAR sigma
ENCODING 963
SWIDTH 498 0
DWIDTH 4 0
BBX 4 5 0 0
BITMAP
05
69
82
96
28
ENDCHAR
STARTCHAR tau
ENCODING 964
SWIDTH 460 0
DWIDTH 4 0
BBX 3 5 0 0
BITMAP
14
64
20
20
18
ENDCHAR
STARTCHAR upsilon
ENCODING 965
SWIDTH 480 0
DWIDTH 4 0
BBX 4 4 0 0
BITMAP
55
55
55
68
ENDCHAR
STARTCHAR phi
ENCODING 966
SWIDTH 617 0
DWIDTH 5 0
BBX 5 6 0 -2
BITMAP
5A00
8880
8980
2E00
0800
0800
ENDCHAR
STARTCHAR chi
ENCODING 967
SWIDTH 438 0
DWIDTH 4 0
BBX 4 7 0 -2
BITMAP
40
58
28
24
28
58
45
ENDCHAR
STARTCHAR psi
ENCODING 968
SWIDTH 612 0
DWIDTH 5 0
BBX 5 6 0 -2
BITMAP
8940
8880
9940
2E00
0800
0800
ENDCHAR
STARTCHAR omega
ENCODING 969
SWIDTH 711 0
DWIDTH 6 0
BBX 6 5 0 0
BITMAP
0040
5080
5990
5980
2A80
ENDCHAR
STARTCHAR iotadieresis
ENCODING 970
SWIDTH 299 0
DWIDTH 2 0
BBX 3 6 0 0
BITMAP
54
00
50
50
50
20
ENDCHAR
STARTCHAR upsilondieresis
ENCODING 971
SWIDTH 480 0
DWIDTH 4 0
BBX 4 6 0 0
BITMAP
54
04
55
55
55
68
ENDCHAR
STARTCHAR omicrontonos
ENCODING 972
SWIDTH 501 0
DWIDTH 4 0
BBX 4 6 0 0
BITMAP
14
14
69
82
82
69
ENDCHAR
STARTCHAR upsilontonos
ENCODING 973
SWIDTH 480 0
DWIDTH 4 0
BBX 4 6 0 0
BITMAP
14
00
55
55
55
68
ENDCHAR
STARTCHAR omegatonos
ENCODING 974
SWIDTH 711 0
DWIDTH 6 0
BBX 6 6 0 0
BITMAP
0500
0040
5080
5990
5980
2A80
ENDCHAR
STARTCHAR theta1
ENCODING 977
SWIDTH 507 0
DWIDTH 4 0
BBX 4 6 0 0
BITMAP
18
25
25
9A
95
68
ENDCHAR
STARTCHAR Upsilon1
ENCODING 978
SWIDTH 465 0
DWIDTH 4 0
BBX 4 6 0 0
BITMAP
81
58
28
24
14
14
ENDCHAR
STARTCHAR omega1
ENCODING 982
SWIDTH 678 0
DWIDTH 5 0
BBX 5 5 0 0
BITMAP
1540
65C0
5880
5880
2A80
ENDCHAR
STARTCHAR uni0400
ENCODING 1024
SWIDTH 496 0
DWIDTH 4 0
BBX 4 8 0 0
BITMAP
10
14
69
50
54
64
50
69
ENDCHAR
STARTCHAR uni0401
ENCODING 1025
SWIDTH 496 0
DWIDTH 4 0
BBX 4 7 0 0
BITMAP
15
69
50
54
64
50
69
ENDCHAR
STARTCHAR uni0402
ENCODING 1026
SWIDTH 650 0
DWIDTH 5 0
BBX 5 6 0 0
BITMAP
6A00
1400
1900
1580
1480
1540
ENDCHAR
STARTCHAR uni0403
ENCODING 1027
SWIDTH 487 0
DWIDTH 4 0
BBX 4 7 0 0
BITMAP
08
69
50
50
50
50
50
ENDCHAR
STARTCHAR uni0404
ENCODING 1028
SWIDTH 589 0
DWIDTH 5 0
BBX 4 6 0 0
BITMAP
19
62
54
A4
52
2A
ENDCHAR
STARTCHAR uni0405
ENCODING 1029
SWIDTH 518 0
DWIDTH 4 0
BBX 4 6 0 0
BITMAP
28
52
60
19
42
69
ENDCHAR
STARTCHAR uni0406
ENCODING 1030
SWIDTH 250 0
DWIDTH 2 0
BBX 2 6 0 0
BITMAP
50
50
50
50
50
50
ENDCHAR
STARTCHAR uni0407
ENCODING 1031
SWIDTH 250 0
DWIDTH 2 0
BBX 2 7 0 0
BITMAP
50
50
50
50
50
50
50
ENDCHAR
STARTCHAR uni0408
ENCODING 1032
SWIDTH 483 0
DWIDTH 4 0
BBX 4 6 0 0
BITMAP
05
05
05
05
45
68
ENDCHAR
STARTCHAR uni0409
ENCODING 1033
SWIDTH 923 0
DWIDTH 7 0
BBX 7 6 0 0
BITMAP
2A40
2140
2190
2158
2148
91A8
ENDCHAR
STARTCHAR uni040A
ENCODING 1034
SWIDTH 927 0
DWIDTH 7 0
BBX 7 6 0 0
BITMAP
5140
5140
6690
6698
5148
51A8
ENDCHAR
STARTCHAR uni040B
ENCODING 1035
SWIDTH 705 0
DWIDTH 6 0
BBX 5 6 0 0
BITMAP
6A00
1400
1A40
1480
1480
1480
ENDCHAR
STARTCHAR uni040C
ENCODING 1036
SWIDTH 544 0
DWIDTH 4 0
BBX 4 7 0 0
BITMAP
08
52
59
68
68
55
52
ENDCHAR
STARTCHAR uni040D
ENCODING 1037
SWIDTH 619 0
DWIDTH 5 0
BBX 5 7 0 0
BITMAP
0400
5140
5340
5A40
5940
7140
6140
ENDCHAR
STARTCHAR uni040E
ENCODING 1038
SWIDTH 547 0
DWIDTH 4 0
BBX 4 7 0 0
BITMAP
28
52
62
25
1C
08
24
ENDCHAR
STARTCHAR uni040F
ENCODING 1039
SWIDTH 621 0
DWIDTH 5 0
BBX 5 8 0 -2
BITMAP
5140
5140
5140
5140
5140
6A40
0800
0400
ENDCHAR
STARTCHAR uni0410
ENCODING 1040
SWIDTH 576 0
DWIDTH 5 0
BBX 5 6 0 0
BITMAP
0400
1800
2500
2600
6A00
8140
ENDCHAR
STARTCHAR uni0411
ENCODING 1041
SWIDTH 549 0
DWIDTH 4 0
BBX 4 6 0 0
BITMAP
69
50
64
56
52
6A
ENDCHAR
STARTCHAR uni0412
ENCODING 1042
SWIDTH 545 0
DWIDTH 4 0
BBX 4 6 0 0
BITMAP
69
52
66
66
52
69
ENDCHAR
STARTCHAR uni0413
ENCODING 1043
SWIDTH 487 0
DWIDTH 4 0
BBX 4 6 0 0
BITMAP
69
50
50
50
50
50
ENDCHAR
STARTCHAR uni0414
ENCODING 1044
SWIDTH 660 0
DWIDTH 5 0
BBX 5 8 0 -2
BITMAP
1A40
2140
2140
2140
2140
AA80
8080
4040
ENDCHAR
STARTCHAR uni0415
ENCODING 1045
SWIDTH 496 0
DWIDTH 4 0
BBX 4 6 0 0
BITMAP
69
50
54
64
50
69
ENDCHAR
STARTCHAR uni0416
ENCODING 1046
SWIDTH 791 0
DWIDTH 6 0
BBX 6 6 0 0
BITMAP
5120
2250
2680
2A80
2250
9220
ENDCHAR
STARTCHAR uni0417
ENCODING 1047
SWIDTH 517 0
DWIDTH 4 0
BBX 4 6 0 0
BITMAP
28
52
05
19
42
69
ENDCHAR
STARTCHAR uni0418
ENCODING 1048
SWIDTH 619 0
DWIDTH 5 0
BBX 5 6 0 0
BITMAP
5140
5340
5A40
5940
7140
6140
ENDCHAR
STARTCHAR uni0419
ENCODING 1049
SWIDTH 619 0
DWIDTH 5 0
BBX 5 7 0 0
BITMAP
1900
5140
5340
5A40
5940
7140
6140
ENDCHAR
STARTCHAR uni041A
ENCODING 1050
SWIDTH 560 0
DWIDTH 4 0
BBX 4 6 0 0
BITMAP
52
56
68
68
55
52
ENDCHAR
STARTCHAR uni041B
ENCODING 1051
SWIDTH 615 0
DWIDTH 5 0
BBX 5 6 0 0
BITMAP
1A40
2140
2140
2140
2140
9140
ENDCHAR
STARTCHAR uni041C
ENCODING 1052
SWIDTH 755 0
DWIDTH 6 0
BBX 6 6 0 0
BITMAP
5050
70D0
6590
5A50
5A50
5550
ENDCHAR
STARTCHAR uni041D
ENCODING 1053
SWIDTH 620 0
DWIDTH 5 0
BBX 5 6 0 0
BITMAP
5140
5140
5640
6640
5140
5140
ENDCHAR
STARTCHAR uni041E
ENCODING 1054
SWIDTH 600 0
DWIDTH 5 0
BBX 5 6 0 0
BITMAP
1900
5200
5140
9140
5240
2A00
ENDCHAR
STARTCHAR uni041F
ENCODING 1055
SWIDTH 620 0
DWIDTH 5 0
BBX 5 6 0 0
BITMAP
6A40
5140
5140
5140
5140
5140
ENDCHAR
STARTCHAR uni0420
ENCODING 1056
SWIDTH 554 0
DWIDTH 4 0
BBX 4 6 0 0
BITMAP
69
52
52
69
50
50
ENDCHAR
STARTCHAR uni0421
ENCODING 1057
SWIDTH 566 0
DWIDTH 5 0
BBX 4 6 0 0
BITMAP
19
52
50
90
52
2A
ENDCHAR
STARTCHAR uni0422
ENCODING 1058
SWIDTH 520 0
DWIDTH 4 0
BBX 4 6 0 0
BITMAP
6A
14
14
14
14
14
ENDCHAR
STARTCHAR uni0423
ENCODING 1059
SWIDTH 547 0
DWIDTH 4 0
BBX 4 6 0 0
BITMAP
52
62
25
1C
08
24
ENDCHAR
STARTCHAR uni0424
ENCODING 1060
SWIDTH 676 0
DWIDTH 5 0
BBX 5 6 0 0
BITMAP
0800
2A40
4880
8880
6980
1900
ENDCHAR
STARTCHAR uni0425
ENCODING 1061
SWIDTH 550 0
DWIDTH 4 0
BBX 4 6 0 0
BITMAP
52
25
28
18
25
52
ENDCHAR
STARTCHAR uni0426
ENCODING 1062
SWIDTH 639 0
DWIDTH 5 0
BBX 5 8 0 -2
BITMAP
5140
5140
5140
5140
5140
6A80
0080
0040
ENDCHAR
STARTCHAR uni0427
ENCODING 1063
SWIDTH 600 0
DWIDTH 5 0
BBX 4 6 0 0
BITMAP
51
52
52
2A
02
02
ENDCHAR
STARTCHAR uni0428
ENCODING 1064
SWIDTH 814 0
DWIDTH 7 0
BBX 6 6 0 0
BITMAP
5110
5220
5220
5220
5220
6BA0
ENDCHAR
STARTCHAR uni0429
ENCODING 1065
SWIDTH 841 0
DWIDTH 7 0
BBX 7 7 0 -1
BITMAP
5110
5220
5220
5220
5220
6BB4
0014
ENDCHAR
STARTCHAR uni042A
ENCODING 1066
SWIDTH 651 0
DWIDTH 5 0
BBX 5 6 0 0
BITMAP
6000
2000
2500
2580
2080
2A40
ENDCHAR
STARTCHAR uni042B
ENCODING 1067
SWIDTH 755 0
DWIDTH 6 0
BBX 6 6 0 0
BITMAP
5050
5050
6450
6650
5250
6A50
ENDCHAR
STARTCHAR uni042C
ENCODING 1068
SWIDTH 551 0
DWIDTH 4 0
BBX 4 6 0 0
BITMAP
50
50
64
56
52
6A
ENDCHAR
STARTCHAR uni042D
ENCODING 1069
SWIDTH 589 0
DWIDTH 5 0
BBX 5 6 0 0
BITMAP
1900
5200
0240
0640
5200
2A00
ENDCHAR
STARTCHAR uni042E
ENCODING 1070
SWIDTH 765 0
DWIDTH 6 0
BBX 6 6 0 0
BITMAP
5680
5820
5820
6820
5820
5690
ENDCHAR
STARTCHAR uni042F
ENCODING 1071
SWIDTH 562 0
DWIDTH 5 0
BBX 4 6 0 0
BITMAP
1A
52
52
2A
22
52
ENDCHAR
STARTCHAR uni0430
ENCODING 1072
SWIDTH 479 0
DWIDTH 4 0
BBX 4 5 0 0
BITMAP
14
68
19
55
69
ENDCHAR
STARTCHAR uni0431
ENCODING 1073
SWIDTH 484 0
DWIDTH 4 0
BBX 4 6 0 0
BITMAP
19
20
68
86
86
28
ENDCHAR
STARTCHAR uni0432
ENCODING 1074
SWIDTH 503 0
DWIDTH 4 0
BBX 4 5 0 0
BITMAP
10
69
69
55
69
ENDCHAR
STARTCHAR uni0433
ENCODING 1075
SWIDTH 371 0
DWIDTH 3 0
BBX 3 5 0 0
BITMAP
14
64
50
50
50
ENDCHAR
STARTCHAR uni0434
ENCODING 1076
SWIDTH 536 0
DWIDTH 4 0
BBX 4 7 0 -2
BITMAP
14
2A
26
26
AA
82
41
ENDCHAR
STARTCHAR uni0435
ENCODING 1077
SWIDTH 468 0
DWIDTH 4 0
BBX 4 5 0 0
BITMAP
14
69
A9
90
68
ENDCHAR
STARTCHAR uni0436
ENCODING 1078
SWIDTH 662 0
DWIDTH 5 0
BBX 5 5 0 0
BITMAP
0040
5880
2E00
2A40
9880
ENDCHAR
STARTCHAR uni0437
ENCODING 1079
SWIDTH 446 0
DWIDTH 4 0
BBX 3 5 0 0
BITMAP
10
58
18
08
68
ENDCHAR
STARTCHAR uni0438
ENCODING 1080
SWIDTH 509 0
DWIDTH 4 0
BBX 4 4 0 0
BITMAP
59
59
65
65
ENDCHAR
STARTCHAR uni0439
ENCODING 1081
SWIDTH 509 0
DWIDTH 4 0
BBX 4 6 0 0
BITMAP
24
14
59
59
65
65
ENDCHAR
STARTCHAR uni043A
ENCODING 1082
SWIDTH 479 0
DWIDTH 4 0
BBX 4 4 0 0
BITMAP
58
64
68
55
ENDCHAR
STARTCHAR uni043B
ENCODING 1083
SWIDTH 509 0
DWIDTH 4 0
BBX 4 5 0 0
BITMAP
14
26
26
26
96
ENDCHAR
STARTCHAR uni043C
ENCODING 1084
SWIDTH 645 0
DWIDTH 5 0
BBX 5 4 0 0
BITMAP
6280
6280
5980
5880
ENDCHAR
STARTCHAR uni043D
ENCODING 1085
SWIDTH 508 0
DWIDTH 4 0
BBX 4 4 0 0
BITMAP
55
69
55
55
ENDCHAR
STARTCHAR uni043E
ENCODING 1086
SWIDTH 501 0
DWIDTH 4 0
BBX 4 5 0 0
BITMAP
14
69
82
82
69
ENDCHAR
STARTCHAR uni043F
ENCODING 1087
SWIDTH 509 0
DWIDTH 4 0
BBX 4 5 0 0
BITMAP
14
69
55
55
55
ENDCHAR
STARTCHAR uni0440
ENCODING 1088
SWIDTH 493 0
DWIDTH 4 0
BBX 4 7 0 -2
BITMAP
04
69
52
52
69
50
40
ENDCHAR
STARTCHAR uni0441
ENCODING 1089
SWIDTH 461 0
DWIDTH 4 0
BBX 4 5 0 0
BITMAP
14
69
80
80
68
ENDCHAR
STARTCHAR uni0442
ENCODING 1090
SWIDTH 424 0
DWIDTH 3 0
BBX 3 5 0 0
BITMAP
54
64
20
20
20
ENDCHAR
STARTCHAR uni0443
ENCODING 1091
SWIDTH 416 0
DWIDTH 3 0
BBX 3 7 0 -2
BITMAP
40
88
58
24
20
20
50
ENDCHAR
STARTCHAR uni0444
ENCODING 1092
SWIDTH 628 0
DWIDTH 5 0
BBX 5 8 0 -2
BITMAP
0800
1900
6A40
8880
8880
6E40
0800
0400
ENDCHAR
STARTCHAR uni0445
ENCODING 1093
SWIDTH 438 0
DWIDTH 4 0
BBX 3 4 0 0
BITMAP
58
24
24
98
ENDCHAR
STARTCHAR uni0446
ENCODING 1094
SWIDTH 524 0
DWIDTH 4 0
BBX 4 5 0 -1
BITMAP
55
55
55
6A
02
ENDCHAR
STARTCHAR uni0447
ENCODING 1095
SWIDTH 479 0
DWIDTH 4 0
BBX 4 4 0 0
BITMAP
85
95
29
05
ENDCHAR
STARTCHAR uni0448
ENCODING 1096
SWIDTH 703 0
DWIDTH 6 0
BBX 5 4 0 0
BITMAP
5880
5880
5880
6AC0
ENDCHAR
STARTCHAR uni0449
ENCODING 1097
SWIDTH 722 0
DWIDTH 6 0
BBX 6 5 0 -1
BITMAP
5880
5880
5880
6AD0
0010
ENDCHAR
STARTCHAR uni044A
ENCODING 1098
SWIDTH 538 0
DWIDTH 4 0
BBX 4 5 0 0
BITMAP
50
60
29
22
2A
ENDCHAR
STARTCHAR uni044B
ENCODING 1099
SWIDTH 679 0
DWIDTH 5 0
BBX 5 4 0 0
BITMAP
5080
6880
5580
6980
ENDCHAR
STARTCHAR uni044C
ENCODING 1100
SWIDTH 478 0
DWIDTH 4 0
BBX 4 4 0 0
BITMAP
50
68
55
69
ENDCHAR
STARTCHAR uni044D
ENCODING 1101
SWIDTH 472 0
DWIDTH 4 0
BBX 4 5 0 0
BITMAP
10
68
19
49
68
ENDCHAR
STARTCHAR uni044E
ENCODING 1102
SWIDTH 706 0
DWIDTH 6 0
BBX 6 5 0 0
BITMAP
0100
5980
6850
5850
5680
ENDCHAR
STARTCHAR uni044F
ENCODING 1103
SWIDTH 482 0
DWIDTH 4 0
BBX 4 5 0 0
BITMAP
14
69
59
29
95
ENDCHAR
STARTCHAR uni0450
ENCODING 1104
SWIDTH 468 0
DWIDTH 4 0
BBX 4 6 0 0
BITMAP
20
14
69
A9
90
68
ENDCHAR
STARTCHAR uni0451
ENCODING 1105
SWIDTH 468 0
DWIDTH 4 0
BBX 4 6 0 0
BITMAP
54
14
69
A9
90
68
ENDCHAR
STARTCHAR uni0452
ENCODING 1106
SWIDTH 482 0
DWIDTH 4 0
BBX 4 8 0 -2
BITMAP
90
A4
69
55
55
55
05
08
ENDCHAR
STARTCHAR uni0453
ENCODING 1107
SWIDTH 371 0
DWIDTH 3 0
BBX 3 6 0 0
BITMAP
14
14
64
50
50
50
ENDCHAR
STARTCHAR uni0454
ENCODING 1108
SWIDTH 472 0
DWIDTH 4 0
BBX 4 5 0 0
BITMAP
14
69
94
90
28
ENDCHAR
STARTCHAR uni0455
ENCODING 1109
SWIDTH 455 0
DWIDTH 4 0
BBX 3 5 0 0
BITMAP
10
68
64
08
68
ENDCHAR
STARTCHAR uni0456
ENCODING 1110
SWIDTH 229 0
DWIDTH 2 0
BBX 2 6 0 0
BITMAP
50
00
50
50
50
50
ENDCHAR
STARTCHAR uni0457
ENCODING 1111
SWIDTH 234 0
DWIDTH 2 0
BBX 3 6 -1 0
BITMAP
54
00
14
14
14
14
ENDCHAR
STARTCHAR uni0458
ENCODING 1112
SWIDTH 223 0
DWIDTH 2 0
BBX 2 8 0 -2
BITMAP
40
00
50
50
50
50
50
80
ENDCHAR
STARTCHAR uni0459
ENCODING 1113
SWIDTH 729 0
DWIDTH 6 0
BBX 6 5 0 0
BITMAP
1400
2900
2680
2550
9690
ENDCHAR
STARTCHAR uni045A
ENCODING 1114
SWIDTH 743 0
DWIDTH 6 0
BBX 6 4 0 0
BITMAP
5500
6A80
5520
5690
ENDCHAR
STARTCHAR uni045B
ENCODING 1115
SWIDTH 499 0
DWIDTH 4 0
BBX 4 6 0 0
BITMAP
90
94
69
55
55
55
ENDCHAR
STARTCHAR uni045C
ENCODING 1116
SWIDTH 479 0
DWIDTH 4 0
BBX 4 6 0 0
BITMAP
08
10
58
64
68
55
ENDCHAR
STARTCHAR uni045D
ENCODING 1117
SWIDTH 509 0
DWIDTH 4 0
BBX 4 6 0 0
BITMAP
20
00
59
59
65
65
ENDCHAR
STARTCHAR uni045E
ENCODING 1118
SWIDTH 416 0
DWIDTH 3 0
BBX 3 8 0 -2
BITMAP
58
44
88
58
24
20
20
50
ENDCHAR
STARTCHAR uni045F
ENCODING 1119
SWIDTH 509 0
DWIDTH 4 0
BBX 4 5 0 -1
BITMAP
55
55
55
69
14
ENDCHAR
STARTCHAR uni0460
ENCODING 1120
SWIDTH 754 0
DWIDTH 6 0
BBX 6 6 0 0
BITMAP
5510
5560
5560
5560
5550
2A90
ENDCHAR
STARTCHAR uni0461
ENCODING 1121
SWIDTH 650 0
DWIDTH 5 0
BBX 5 4 0 0
BITMAP
8880
8880
9880
6A80
ENDCHAR
STARTCHAR uni0462
ENCODING 1122
SWIDTH 551 0
DWIDTH 4 0
BBX 4 6 0 0
BITMAP
50
A0
64
56
52
6A
ENDCHAR
STARTCHAR uni0463
ENCODING 1123
SWIDTH 477 0
DWIDTH 4 0
BBX 4 6 0 0
BITMAP
50
A4
50
68
55
68
ENDCHAR
STARTCHAR uni0464
ENCODING 1124
SWIDTH 772 0
DWIDTH 6 0
BBX 6 6 0 0
BITMAP
5280
5860
6900
6900
5810
5690
ENDCHAR
STARTCHAR uni0465
ENCODING 1125
SWIDTH 646 0
DWIDTH 5 0
BBX 5 5 0 0
BITMAP
0100
5980
6900
5840
5A40
ENDCHAR
STARTCHAR uni0466
ENCODING 1126
SWIDTH 526 0
DWIDTH 4 0
BBX 4 6 0 0
BITMAP
04
1C
29
29
6A
9A
ENDCHAR
STARTCHAR uni0467
ENCODING 1127
SWIDTH 470 0
DWIDTH 4 0
BBX 4 4 0 0
BITMAP
24
28
6C
A5
ENDCHAR
STARTCHAR uni0468
ENCODING 1128
SWIDTH 759 0
DWIDTH 6 0
BBX 6 6 0 0
BITMAP
5140
5280
5280
6A90
6AA0
5960
ENDCHAR
STARTCHAR uni0469
ENCODING 1129
SWIDTH 654 0
DWIDTH 5 0
BBX 5 4 0 0
BITMAP
5700
5A40
6E80
6680
ENDCHAR
STARTCHAR uni046A
ENCODING 1130
SWIDTH 747 0
DWIDTH 6 0
BBX 6 6 0 0
BITMAP
2A80
1540
0A00
6A80
5550
5550
ENDCHAR
STARTCHAR uni046B
ENCODING 1131
SWIDTH 645 0
DWIDTH 5 0
BBX 5 5 0 0
BITMAP
1500
2A00
1E00
6940
5880
ENDCHAR
STARTCHAR uni046C
ENCODING 1132
SWIDTH 980 0
DWIDTH 8 0
BBX 8 6 0 0
BITMAP
52A8
5254
55A0
6AA8
5855
5855
ENDCHAR
STARTCHAR uni046D
ENCODING 1133
SWIDTH 856 0
DWIDTH 7 0
BBX 7 5 0 0
BITMAP
0150
52A0
66D0
59A0
5894
ENDCHAR
STARTCHAR uni046E
ENCODING 1134
SWIDTH 454 0
DWIDTH 4 0
BBX 3 10 0 -2
BITMAP
14
10
64
08
18
18
08
68
80
50
ENDCHAR
STARTCHAR uni046F
ENCODING 1135
SWIDTH 423 0
DWIDTH 3 0
BBX 3 8 0 -2
BITMAP
24
10
58
18
18
28
80
50
ENDCHAR
STARTCHAR uni0470
ENCODING 1136
SWIDTH 600 0
DWIDTH 5 0
BBX 5 6 0 0
BITMAP
4540
8940
8940
5A00
1D00
0800
ENDCHAR
STARTCHAR uni0471
ENCODING 1137
SWIDTH 612 0
DWIDTH 5 0
BBX 5 6 0 -2
BITMAP
8940
8880
9940
2E00
0800
0800
ENDCHAR
STARTCHAR uni0472
ENCODING 1138
SWIDTH 593 0
DWIDTH 5 0
BBX 5 6 0 0
BITMAP
1900
5200
9240
A640
5200
2A00
ENDCHAR
STARTCHAR uni0473
ENCODING 1139
SWIDTH 497 0
DWIDTH 4 0
BBX 4 5 0 0
BITMAP
14
69
AA
96
28
ENDCHAR
STARTCHAR uni0474
ENCODING 1140
SWIDTH 553 0
DWIDTH 4 0
BBX 4 6 0 0
BITMAP
81
92
55
24
28
18
ENDCHAR
STARTCHAR uni0475
ENCODING 1141
SWIDTH 443 0
DWIDTH 4 0
BBX 4 4 0 0
BITMAP
89
58
24
20
ENDCHAR
STARTCHAR uni0476
ENCODING 1142
SWIDTH 553 0
DWIDTH 4 0
BBX 4 7 0 0
BITMAP
64
81
92
55
24
28
18
ENDCHAR
STARTCHAR uni0477
ENCODING 1143
SWIDTH 443 0
DWIDTH 4 0
BBX 4 6 0 0
BITMAP
60
54
89
58
24
20
ENDCHAR
STARTCHAR uni0478
ENCODING 1144
SWIDTH 1017 0
DWIDTH 8 0
BBX 8 8 0 -2
BITMAP
1900
5211
5162
9165
5259
2A0C
0008
0020
ENDCHAR
STARTCHAR uni0479
ENCODING 1145
SWIDTH 918 0
DWIDTH 7 0
BBX 7 7 0 -2
BITMAP
1440
6988
8258
8224
6920
0020
0050
ENDCHAR
STARTCHAR uni047A
ENCODING 1146
SWIDTH 593 0
DWIDTH 5 0
BBX 5 7 0 -1
BITMAP
1D00
5600
8140
8140
5200
2E00
0400
ENDCHAR
STARTCHAR uni047B
ENCODING 1147
SWIDTH 498 0
DWIDTH 4 0
BBX 4 5 0 0
BITMAP
14
69
82
86
3C
ENDCHAR
STARTCHAR uni047C
ENCODING 1148
SWIDTH 752 0
DWIDTH 6 0
BBX 6 8 0 0
BITMAP
0400
0640
1540
5050
5050
5550
5550
2A90
ENDCHAR
STARTCHAR uni047D
ENCODING 1149
SWIDTH 654 0
DWIDTH 5 0
BBX 5 6 0 0
BITMAP
1A00
0500
5180
8480
9880
6A40
ENDCHAR
STARTCHAR uni047E
ENCODING 1150
SWIDTH 754 0
DWIDTH 6 0
BBX 6 7 0 0
BITMAP
0A40
5510
5560
5560
5560
5550
2A90
ENDCHAR
STARTCHAR uni047F
ENCODING 1151
SWIDTH 650 0
DWIDTH 5 0
BBX 5 6 0 0
BITMAP
1900
0400
8880
8880
9880
6A80
ENDCHAR
STARTCHAR uni0480
ENCODING 1152
SWIDTH 570 0
DWIDTH 5 0
BBX 4 8 0 -2
BITMAP
19
52
90
90
50
24
08
04
ENDCHAR
STARTCHAR uni0481
ENCODING 1153
SWIDTH 472 0
DWIDTH 4 0
BBX 3 7 0 -2
BITMAP
10
68
80
90
24
14
10
ENDCHAR
STARTCHAR uni0482
ENCODING 1154
SWIDTH 547 0
DWIDTH 4 0
BBX 4 5 0 0
BITMAP
15
0D
55
24
10
ENDCHAR
STARTCHAR uni0483
ENCODING 1155
SWIDTH 0 0
DWIDTH 0 0
BBX 3 2 -3 4
BITMAP
A4
40
ENDCHAR
STARTCHAR uni0484
ENCODING 1156
SWIDTH 0 0
DWIDTH 0 0
BBX 3 1 -3 5
BITMAP
54
ENDCHAR
STARTCHAR uni0485
ENCODING 1157
SWIDTH 0 0
DWIDTH 0 0
BBX 1 2 -2 5
BITMAP
40
40
ENDCHAR
STARTCHAR uni0486
ENCODING 1158
SWIDTH 0 0
DWIDTH 0 0
BBX 1 2 -2 5
BITMAP
40
40
ENDCHAR
STARTCHAR uni0488
ENCODING 1160
SWIDTH 0 0
DWIDTH 0 0
BBX 8 7 -6 -1
BITMAP
0140
1014
0000
5005
0000
1014
0140
ENDCHAR
STARTCHAR uni0489
ENCODING 1161
SWIDTH 0 0
DWIDTH 0 0
BBX 7 8 -6 -2
BITMAP
0100
1104
1010
4004
0000
0010
1110
0100
ENDCHAR
STARTCHAR uni048A
ENCODING 1162
SWIDTH 666 0
DWIDTH 5 0
BBX 5 8 0 -1
BITMAP
1900
5140
5340
5A40
5940
7140
6180
0080
ENDCHAR
STARTCHAR uni048B
ENCODING 1163
SWIDTH 550 0
DWIDTH 4 0
BBX 4 8 0 -2
BITMAP
25
04
59
59
65
66
02
01
ENDCHAR
STARTCHAR uni048C
ENCODING 1164
SWIDTH 551 0
DWIDTH 4 0
BBX 4 6 0 0
BITMAP
50
A0
64
56
52
6A
ENDCHAR
STARTCHAR uni048D
ENCODING 1165
SWIDTH 477 0
DWIDTH 4 0
BBX 4 7 0 0
BITMAP
40
A4
50
50
68
55
68
ENDCHAR
STARTCHAR uni048E
ENCODING 1166
SWIDTH 557 0
DWIDTH 4 0
BBX 4 6 0 0
BITMAP
69
52
57
6A
50
50
ENDCHAR
STARTCHAR uni048F
ENCODING 1167
SWIDTH 496 0
DWIDTH 4 0
BBX 4 7 0 -2
BITMAP
04
69
52
56
6D
50
40
ENDCHAR
STARTCHAR uni0490
ENCODING 1168
SWIDTH 479 0
DWIDTH 4 0
BBX 4 7 0 0
BITMAP
02
6A
50
50
50
50
50
ENDCHAR
STARTCHAR uni0491
ENCODING 1169
SWIDTH 395 0
DWIDTH 3 0
BBX 3 6 0 0
BITMAP
04
18
64
50
50
50
ENDCHAR
STARTCHAR uni0492
ENCODING 1170
SWIDTH 487 0
DWIDTH 4 0
BBX 4 6 0 0
BITMAP
69
50
A0
A0
50
50
ENDCHAR
STARTCHAR uni0493
ENCODING 1171
SWIDTH 371 0
DWIDTH 3 0
BBX 3 5 0 0
BITMAP
14
64
A0
50
50
ENDCHAR
STARTCHAR uni0494
ENCODING 1172
SWIDTH 539 0
DWIDTH 4 0
BBX 4 7 0 -1
BITMAP
69
50
60
69
52
52
05
ENDCHAR
STARTCHAR uni0495
ENCODING 1173
SWIDTH 443 0
DWIDTH 4 0
BBX 4 6 0 -1
BITMAP
14
64
64
58
59
08
ENDCHAR
STARTCHAR uni0496
ENCODING 1174
SWIDTH 833 0
DWIDTH 7 0
BBX 7 8 0 -2
BITMAP
5120
2250
2680
2A80
2250
9234
0018
0004
ENDCHAR
STARTCHAR uni0497
ENCODING 1175
SWIDTH 696 0
DWIDTH 6 0
BBX 6 6 0 -1
BITMAP
0040
5880
2E00
2A40
98D0
0050
ENDCHAR
STARTCHAR uni0498
ENCODING 1176
SWIDTH 517 0
DWIDTH 4 0
BBX 4 8 0 -2
BITMAP
28
52
05
19
42
69
14
14
ENDCHAR
STARTCHAR uni0499
ENCODING 1177
SWIDTH 446 0
DWIDTH 4 0
BBX 3 7 0 -2
BITMAP
10
58
18
08
68
20
10
ENDCHAR
STARTCHAR uni049A
ENCODING 1178
SWIDTH 617 0
DWIDTH 5 0
BBX 5 8 0 -2
BITMAP
5200
5600
6800
6800
5500
5240
0080
0040
ENDCHAR
STARTCHAR uni049B
ENCODING 1179
SWIDTH 524 0
DWIDTH 4 0
BBX 4 6 0 -2
BITMAP
58
64
68
56
02
01
ENDCHAR
STARTCHAR uni049C
ENCODING 1180
SWIDTH 553 0
DWIDTH 4 0
BBX 4 6 0 0
BITMAP
52
52
68
78
56
52
ENDCHAR
STARTCHAR uni049D
ENCODING 1181
SWIDTH 498 0
DWIDTH 4 0
BBX 4 5 0 0
BITMAP
01
55
78
68
56
ENDCHAR
STARTCHAR uni049E
ENCODING 1182
SWIDTH 570 0
DWIDTH 5 0
BBX 5 6 0 0
BITMAP
5200
A600
6800
6800
5600
5240
ENDCHAR
STARTCHAR uni049F
ENCODING 1183
SWIDTH 462 0
DWIDTH 4 0
BBX 4 6 0 0
BITMAP
A0
90
58
64
58
55
ENDCHAR
STARTCHAR uni04A0
ENCODING 1184
SWIDTH 710 0
DWIDTH 6 0
BBX 6 6 0 0
BITMAP
6440
1980
1A00
1A00
1980
1890
ENDCHAR
STARTCHAR uni04A1
ENCODING 1185
SWIDTH 607 0
DWIDTH 5 0
BBX 5 5 0 0
BITMAP
1000
6640
1900
1A00
1540
ENDCHAR
STARTCHAR uni04A2
ENCODING 1186
SWIDTH 662 0
DWIDTH 5 0
BBX 5 8 0 -2
BITMAP
5140
5140
5640
6640
5140
5180
0080
0040
ENDCHAR
STARTCHAR uni04A3
ENCODING 1187
SWIDTH 541 0
DWIDTH 4 0
BBX 4 6 0 -2
BITMAP
55
69
55
57
02
01
ENDCHAR
STARTCHAR uni04A4
ENCODING 1188
SWIDTH 829 0
DWIDTH 7 0
BBX 7 6 0 0
BITMAP
51A4
5140
5640
6640
5140
5140
ENDCHAR
STARTCHAR uni04A5
ENCODING 1189
SWIDTH 614 0
DWIDTH 5 0
BBX 5 5 0 0
BITMAP
0100
5640
6900
5500
5500
ENDCHAR
STARTCHAR uni04A6
ENCODING 1190
SWIDTH 880 0
DWIDTH 7 0
BBX 7 7 0 -1
BITMAP
6A40
5140
5140
51A4
5148
5148
0024
ENDCHAR
STARTCHAR uni04A7
ENCODING 1191
SWIDTH 755 0
DWIDTH 6 0
BBX 6 6 0 -1
BITMAP
1400
6900
5640
5660
5520
0050
ENDCHAR
STARTCHAR uni04A8
ENCODING 1192
SWIDTH 641 0
DWIDTH 5 0
BBX 5 6 0 0
BITMAP
2600
5880
9880
9880
5980
2B80
ENDCHAR
STARTCHAR uni04A9
ENCODING 1193
SWIDTH 528 0
DWIDTH 4 0
BBX 4 5 0 0
BITMAP
04
6A
96
5A
2E
ENDCHAR
STARTCHAR uni04AA
ENCODING 1194
SWIDTH 566 0
DWIDTH 5 0
BBX 4 8 0 -2
BITMAP
19
52
50
90
52
2A
08
04
ENDCHAR
STARTCHAR uni04AB
ENCODING 1195
SWIDTH 461 0
DWIDTH 4 0
BBX 4 7 0 -2
BITMAP
14
69
80
80
68
24
10
ENDCHAR
STARTCHAR uni04AC
ENCODING 1196
SWIDTH 520 0
DWIDTH 4 0
BBX 4 8 0 -2
BITMAP
6A
14
14
14
14
18
08
04
ENDCHAR
STARTCHAR uni04AD
ENCODING 1197
SWIDTH 424 0
DWIDTH 3 0
BBX 3 7 0 -2
BITMAP
54
64
20
20
24
08
04
ENDCHAR
STARTCHAR uni04AE
ENCODING 1198
SWIDTH 524 0
DWIDTH 4 0
BBX 4 6 0 0
BITMAP
42
56
28
18
14
14
ENDCHAR
STARTCHAR uni04AF
ENCODING 1199
SWIDTH 444 0
DWIDTH 4 0
BBX 3 6 0 -2
BITMAP
88
58
28
24
20
10
ENDCHAR
STARTCHAR uni04B0
ENCODING 1200
SWIDTH 524 0
DWIDTH 4 0
BBX 4 6 0 0
BITMAP
42
56
28
2C
14
14
ENDCHAR
STARTCHAR uni04B1
ENCODING 1201
SWIDTH 444 0
DWIDTH 4 0
BBX 3 6 0 -2
BITMAP
88
58
28
38
24
10
ENDCHAR
STARTCHAR uni04B2
ENCODING 1202
SWIDTH 559 0
DWIDTH 4 0
BBX 5 7 0 -1
BITMAP
5200
2500
2800
1800
2500
5340
0140
ENDCHAR
STARTCHAR uni04B3
ENCODING 1203
SWIDTH 465 0
DWIDTH 4 0
BBX 4 6 0 -2
BITMAP
58
24
24
99
06
01
ENDCHAR
STARTCHAR uni04B4
ENCODING 1204
SWIDTH 781 0
DWIDTH 6 0
BBX 6 8 0 -2
BITMAP
6940
2480
2480
2480
2480
2AD0
0020
0010
ENDCHAR
STARTCHAR uni04B5
ENCODING 1205
SWIDTH 587 0
DWIDTH 5 0
BBX 5 6 0 -1
BITMAP
5000
6600
2200
2200
3B40
0140
ENDCHAR
STARTCHAR uni04B6
ENCODING 1206
SWIDTH 638 0
DWIDTH 5 0
BBX 5 8 0 -2
BITMAP
5100
5200
5200
2A00
0200
0280
0080
0040
ENDCHAR
STARTCHAR uni04B7
ENCODING 1207
SWIDTH 512 0
DWIDTH 4 0
BBX 4 6 0 -2
BITMAP
85
95
29
06
02
01
ENDCHAR
STARTCHAR uni04B8
ENCODING 1208
SWIDTH 595 0
DWIDTH 5 0
BBX 4 6 0 0
BITMAP
51
52
5A
2A
06
02
ENDCHAR
STARTCHAR uni04B9
ENCODING 1209
SWIDTH 483 0
DWIDTH 4 0
BBX 4 4 0 0
BITMAP
95
69
29
05
ENDCHAR
STARTCHAR uni04BA
ENCODING 1210
SWIDTH 595 0
DWIDTH 5 0
BBX 4 6 0 0
BITMAP
40
90
A9
92
92
92
ENDCHAR
STARTCHAR uni04BB
ENCODING 1211
SWIDTH 482 0
DWIDTH 4 0
BBX 4 6 0 0
BITMAP
50
54
69
55
55
55
ENDCHAR
STARTCHAR uni04BC
ENCODING 1212
SWIDTH 674 0
DWIDTH 5 0
BBX 5 6 0 0
BITMAP
0A00
1480
A580
2540
1400
0A40
ENDCHAR
STARTCHAR uni04BD
ENCODING 1213
SWIDTH 518 0
DWIDTH 4 0
BBX 4 5 0 0
BITMAP
04
65
AA
60
29
ENDCHAR
STARTCHAR uni04BE
ENCODING 1214
SWIDTH 674 0
DWIDTH 5 0
BBX 5 8 0 -2
BITMAP
0A00
1480
A580
2540
1400
0A40
0200
0100
ENDCHAR
STARTCHAR uni04BF
ENCODING 1215
SWIDTH 518 0
DWIDTH 4 0
BBX 4 7 0 -2
BITMAP
04
65
AA
60
29
08
04
ENDCHAR
STARTCHAR uni04C0
ENCODING 1216
SWIDTH 250 0
DWIDTH 2 0
BBX 2 6 0 0
BITMAP
50
50
50
50
50
50
ENDCHAR
STARTCHAR uni04C1
ENCODING 1217
SWIDTH 791 0
DWIDTH 6 0
BBX 6 7 0 0
BITMAP
0A00
5120
2250
2680
2A80
2250
9220
ENDCHAR
STARTCHAR uni04C2
ENCODING 1218
SWIDTH 662 0
DWIDTH 5 0
BBX 5 6 0 0
BITMAP
1500
0440
5880
2E00
2A40
9880
ENDCHAR
STARTCHAR uni04C3
ENCODING 1219
SWIDTH 553 0
DWIDTH 4 0
BBX 4 7 0 -1
BITMAP
52
55
68
6A
52
52
06
ENDCHAR
STARTCHAR uni04C4
ENCODING 1220
SWIDTH 481 0
DWIDTH 4 0
BBX 4 5 0 -1
BITMAP
58
68
59
55
08
ENDCHAR
STARTCHAR uni04C5
ENCODING 1221
SWIDTH 662 0
DWIDTH 5 0
BBX 5 7 0 -1
BITMAP
1A40
2140
2140
2140
2140
9180
0080
ENDCHAR
STARTCHAR uni04C6
ENCODING 1222
SWIDTH 551 0
DWIDTH 4 0
BBX 4 7 0 -2
BITMAP
14
26
26
26
96
02
01
ENDCHAR
STARTCHAR uni04C7
ENCODING 1223
SWIDTH 620 0
DWIDTH 5 0
BBX 5 8 0 -2
BITMAP
5140
5140
5140
6A40
5140
5140
0140
0200
ENDCHAR
STARTCHAR uni04C8
ENCODING 1224
SWIDTH 498 0
DWIDTH 4 0
BBX 4 6 0 -2
BITMAP
55
69
55
55
05
08
ENDCHAR
STARTCHAR uni04C9
ENCODING 1225
SWIDTH 671 0
DWIDTH 5 0
BBX 5 8 0 -2
BITMAP
5140
5140
5640
6640
5140
5180
0080
0040
ENDCHAR
STARTCHAR uni04CA
ENCODING 1226
SWIDTH 550 0
DWIDTH 4 0
BBX 4 6 0 -2
BITMAP
55
69
55
56
02
01
ENDCHAR
STARTCHAR uni04CB
ENCODING 1227
SWIDTH 600 0
DWIDTH 5 0
BBX 4 8 0 -2
BITMAP
51
52
52
2A
02
03
02
01
ENDCHAR
STARTCHAR uni04CC
ENCODING 1228
SWIDTH 479 0
DWIDTH 4 0
BBX 4 6 0 -2
BITMAP
85
95
29
09
08
04
ENDCHAR
STARTCHAR uni04CD
ENCODING 1229
SWIDTH 801 0
DWIDTH 6 0
BBX 6 8 0 -2
BITMAP
5050
70D0
6590
5A50
5A50
5560
0020
0010
ENDCHAR
STARTCHAR uni04CE
ENCODING 1230
SWIDTH 687 0
DWIDTH 6 0
BBX 6 6 0 -2
BITMAP
6280
6280
5980
5890
0050
0040
ENDCHAR
STARTCHAR uni04CF
ENCODING 1231
SWIDTH 250 0
DWIDTH 2 0
BBX 2 6 0 0
BITMAP
50
50
50
50
50
50
ENDCHAR
STARTCHAR uni04D0
ENCODING 1232
SWIDTH 576 0
DWIDTH 5 0
BBX 5 7 0 0
BITMAP
2900
0400
1800
2500
2600
6A00
8140
ENDCHAR
STARTCHAR uni04D1
ENCODING 1233
SWIDTH 479 0
DWIDTH 4 0
BBX 4 6 0 0
BITMAP
28
14
68
19
55
69
ENDCHAR
STARTCHAR uni04D2
ENCODING 1234
SWIDTH 576 0
DWIDTH 5 0
BBX 5 7 0 0
BITMAP
2100
0400
1800
2500
2600
6A00
8140
ENDCHAR
STARTCHAR uni04D3
ENCODING 1235
SWIDTH 479 0
DWIDTH 4 0
BBX 4 6 0 0
BITMAP
14
14
68
19
55
69
ENDCHAR
STARTCHAR uni04D4
ENCODING 1236
SWIDTH 812 0
DWIDTH 7 0
BBX 7 6 0 0
BITMAP
06A0
0A00
1650
2250
6B00
82A4
ENDCHAR
STARTCHAR uni04D5
ENCODING 1237
SWIDTH 728 0
DWIDTH 6 0
BBX 6 5 0 0
BITMAP
1040
6A90
1AA0
9900
6A90
ENDCHAR
STARTCHAR uni04D6
ENCODING 1238
SWIDTH 496 0
DWIDTH 4 0
BBX 4 7 0 0
BITMAP
28
69
50
54
64
50
69
ENDCHAR
STARTCHAR uni04D7
ENCODING 1239
SWIDTH 468 0
DWIDTH 4 0
BBX 4 6 0 0
BITMAP
28
14
69
A9
90
68
ENDCHAR
STARTCHAR uni04D8
ENCODING 1240
SWIDTH 597 0
DWIDTH 5 0
BBX 5 6 0 0
BITMAP
2900
0200
0140
AA40
9200
2A00
ENDCHAR
STARTCHAR uni04D9
ENCODING 1241
SWIDTH 465 0
DWIDTH 4 0
BBX 4 5 0 0
BITMAP
10
58
19
99
68
ENDCHAR
STARTCHAR uni04DA
ENCODING 1242
SWIDTH 597 0
DWIDTH 5 0
BBX 5 7 0 0
BITMAP
1500
2900
0200
0140
AA40
9200
2A00
ENDCHAR
STARTCHAR uni04DB
ENCODING 1243
SWIDTH 465 0
DWIDTH 4 0
BBX 4 6 0 0
BITMAP
54
10
58
19
99
68
ENDCHAR
STARTCHAR uni04DC
ENCODING 1244
SWIDTH 791 0
DWIDTH 6 0
BBX 6 7 0 0
BITMAP
0540
5120
2250
2680
2A80
2250
9220
ENDCHAR
STARTCHAR uni04DD
ENCODING 1245
SWIDTH 662 0
DWIDTH 5 0
BBX 5 6 0 0
BITMAP
1100
0040
5880
2E00
2A40
9880
ENDCHAR
STARTCHAR uni04DE
ENCODING 1246
SWIDTH 517 0
DWIDTH 4 0
BBX 4 7 0 0
BITMAP
15
28
52
05
19
42
69
ENDCHAR
STARTCHAR uni04DF
ENCODING 1247
SWIDTH 446 0
DWIDTH 4 0
BBX 3 6 0 0
BITMAP
54
10
58
18
08
68
ENDCHAR
STARTCHAR uni04E0
ENCODING 1248
SWIDTH 510 0
DWIDTH 4 0
BBX 4 6 0 0
BITMAP
69
08
14
09
42
69
ENDCHAR
STARTCHAR uni04E1
ENCODING 1249
SWIDTH 510 0
DWIDTH 4 0
BBX 4 7 0 -2
BITMAP
14
19
18
18
02
55
14
ENDCHAR
STARTCHAR uni04E2
ENCODING 1250
SWIDTH 619 0
DWIDTH 5 0
BBX 5 7 0 0
BITMAP
1900
5140
5340
5A40
5940
7140
6140
ENDCHAR
STARTCHAR uni04E3
ENCODING 1251
SWIDTH 509 0
DWIDTH 4 0
BBX 4 6 0 0
BITMAP
28
00
59
59
65
65
ENDCHAR
STARTCHAR uni04E4
ENCODING 1252
SWIDTH 619 0
DWIDTH 5 0
BBX 5 7 0 0
BITMAP
1100
5140
5340
5A40
5940
7140
6140
ENDCHAR
STARTCHAR uni04E5
ENCODING 1253
SWIDTH 509 0
DWIDTH 4 0
BBX 4 6 0 0
BITMAP
14
00
59
59
65
65
ENDCHAR
STARTCHAR uni04E6
ENCODING 1254
SWIDTH 600 0
DWIDTH 5 0
BBX 5 7 0 0
BITMAP
2100
1900
5200
5140
9140
5240
2A00
ENDCHAR
STARTCHAR uni04E7
ENCODING 1255
SWIDTH 501 0
DWIDTH 4 0
BBX 4 6 0 0
BITMAP
14
14
69
82
82
69
ENDCHAR
STARTCHAR uni04E8
ENCODING 1256
SWIDTH 593 0
DWIDTH 5 0
BBX 5 6 0 0
BITMAP
1900
5200
9240
A640
5200
2A00
ENDCHAR
STARTCHAR uni04E9
ENCODING 1257
SWIDTH 497 0
DWIDTH 4 0
BBX 4 5 0 0
BITMAP
14
69
AA
96
28
ENDCHAR
STARTCHAR uni04EA
ENCODING 1258
SWIDTH 593 0
DWIDTH 5 0
BBX 5 7 0 0
BITMAP
2100
1900
5200
9240
A640
5200
2A00
ENDCHAR
STARTCHAR uni04EB
ENCODING 1259
SWIDTH 497 0
DWIDTH 4 0
BBX 4 6 0 0
BITMAP
54
14
69
AA
96
28
ENDCHAR
STARTCHAR uni04EC
ENCODING 1260
SWIDTH 589 0
DWIDTH 5 0
BBX 5 7 0 0
BITMAP
1100
1900
5200
0240
0640
5200
2A00
ENDCHAR
STARTCHAR uni04ED
ENCODING 1261
SWIDTH 472 0
DWIDTH 4 0
BBX 4 6 0 0
BITMAP
54
10
68
19
49
68
ENDCHAR
STARTCHAR uni04EE
ENCODING 1262
SWIDTH 547 0
DWIDTH 4 0
BBX 4 7 0 0
BITMAP
29
52
62
25
1C
08
24
ENDCHAR
STARTCHAR uni04EF
ENCODING 1263
SWIDTH 416 0
DWIDTH 3 0
BBX 3 8 0 -2
BITMAP
64
40
88
58
24
20
20
50
ENDCHAR
STARTCHAR uni04F0
ENCODING 1264
SWIDTH 547 0
DWIDTH 4 0
BBX 4 7 0 0
BITMAP
15
52
62
25
1C
08
24
ENDCHAR
STARTCHAR uni04F1
ENCODING 1265
SWIDTH 416 0
DWIDTH 3 0
BBX 3 8 0 -2
BITMAP
58
40
88
58
24
20
20
50
ENDCHAR
STARTCHAR uni04F2
ENCODING 1266
SWIDTH 547 0
DWIDTH 4 0
BBX 4 8 0 0
BITMAP
01
19
52
62
25
1C
08
24
ENDCHAR
STARTCHAR uni04F3
ENCODING 1267
SWIDTH 416 0
DWIDTH 3 0
BBX 3 8 0 -2
BITMAP
28
44
88
58
24
20
20
50
ENDCHAR
STARTCHAR uni04F4
ENCODING 1268
SWIDTH 600 0
DWIDTH 5 0
BBX 4 7 0 0
BITMAP
21
51
52
52
2A
02
02
ENDCHAR
STARTCHAR uni04F5
ENCODING 1269
SWIDTH 479 0
DWIDTH 4 0
BBX 4 6 0 0
BITMAP
54
00
85
95
29
05
ENDCHAR
STARTCHAR uni04F6
ENCODING 1270
SWIDTH 487 0
DWIDTH 4 0
BBX 4 8 0 -2
BITMAP
69
50
50
50
50
60
20
10
ENDCHAR
STARTCHAR uni04F7
ENCODING 1271
SWIDTH 371 0
DWIDTH 3 0
BBX 3 7 0 -2
BITMAP
14
64
50
50
60
20
10
ENDCHAR
STARTCHAR uni04F8
ENCODING 1272
SWIDTH 755 0
DWIDTH 6 0
BBX 6 7 0 0
BITMAP
0500
5050
5050
6450
6650
5250
6A50
ENDCHAR
STARTCHAR uni04F9
ENCODING 1273
SWIDTH 679 0
DWIDTH 5 0
BBX 5 6 0 0
BITMAP
1100
0000
5080
6880
5580
6980
ENDCHAR
STARTCHAR uni04FA
ENCODING 1274
SWIDTH 520 0
DWIDTH 4 0
BBX 4 8 0 -2
BITMAP
2A
20
70
70
20
30
24
20
ENDCHAR
STARTCHAR uni04FB
ENCODING 1275
SWIDTH 410 0
DWIDTH 3 0
BBX 3 7 0 -2
BITMAP
14
24
B4
20
30
20
20
ENDCHAR
STARTCHAR uni04FC
ENCODING 1276
SWIDTH 570 0
DWIDTH 5 0
BBX 5 8 0 -2
BITMAP
5200
2500
2800
1800
2500
5340
0140
0200
ENDCHAR
STARTCHAR uni04FD
ENCODING 1277
SWIDTH 476 0
DWIDTH 4 0
BBX 4 6 0 -2
BITMAP
58
24
24
99
02
09
ENDCHAR
STARTCHAR uni04FE
ENCODING 1278
SWIDTH 550 0
DWIDTH 4 0
BBX 4 6 0 0
BITMAP
52
25
2C
2C
25
52
ENDCHAR
STARTCHAR uni04FF
ENCODING 1279
SWIDTH 438 0
DWIDTH 4 0
BBX 3 4 0 0
BITMAP
58
38
28
98
ENDCHAR
STARTCHAR uni0500
ENCODING 1280
SWIDTH 555 0
DWIDTH 4 0
BBX 4 6 0 0
BITMAP
01
02
16
56
92
6A
ENDCHAR
STARTCHAR uni0501
ENCODING 1281
SWIDTH 496 0
DWIDTH 4 0
BBX 4 6 0 0
BITMAP
05
15
69
85
85
69
ENDCHAR
STARTCHAR uni0502
ENCODING 1282
SWIDTH 723 0
DWIDTH 6 0
BBX 6 6 0 0
BITMAP
0100
0200
1600
5650
9260
6B90
ENDCHAR
STARTCHAR uni0503
ENCODING 1283
SWIDTH 743 0
DWIDTH 6 0
BBX 6 6 0 0
BITMAP
0500
1500
6950
8550
8550
6A80
ENDCHAR
STARTCHAR uni0504
ENCODING 1284
SWIDTH 685 0
DWIDTH 5 0
BBX 5 6 0 0
BITMAP
6400
0800
0840
2880
0880
0640
ENDCHAR
STARTCHAR uni0505
ENCODING 1285
SWIDTH 562 0
DWIDTH 5 0
BBX 5 5 0 0
BITMAP
4000
6400
2600
1640
0A00
ENDCHAR
STARTCHAR uni0506
ENCODING 1286
SWIDTH 470 0
DWIDTH 4 0
BBX 4 7 0 -1
BITMAP
64
08
08
64
08
09
05
ENDCHAR
STARTCHAR uni0507
ENCODING 1287
SWIDTH 443 0
DWIDTH 4 0
BBX 4 6 0 -1
BITMAP
10
58
18
18
09
05
ENDCHAR
STARTCHAR uni0508
ENCODING 1288
SWIDTH 834 0
DWIDTH 7 0
BBX 7 6 0 0
BITMAP
1A00
2140
2150
2154
2154
51A0
ENDCHAR
STARTCHAR uni0509
ENCODING 1289
SWIDTH 698 0
DWIDTH 6 0
BBX 6 5 0 0
BITMAP
1400
2940
2550
2550
9280
ENDCHAR
STARTCHAR uni050A
ENCODING 1290
SWIDTH 864 0
DWIDTH 7 0
BBX 7 6 0 0
BITMAP
5140
5140
5250
6A54
5154
51A0
ENDCHAR
STARTCHAR uni050B
ENCODING 1291
SWIDTH 716 0
DWIDTH 6 0
BBX 6 4 0 0
BITMAP
5500
6950
5550
5280
ENDCHAR
STARTCHAR uni050C
ENCODING 1292
SWIDTH 541 0
DWIDTH 4 0
BBX 4 6 0 0
BITMAP
19
50
90
82
52
2A
ENDCHAR
STARTCHAR uni050D
ENCODING 1293
SWIDTH 452 0
DWIDTH 4 0
BBX 4 5 0 0
BITMAP
14
64
80
95
28
ENDCHAR
STARTCHAR uni050E
ENCODING 1294
SWIDTH 616 0
DWIDTH 5 0
BBX 5 6 0 0
BITMAP
6A00
1400
1540
1580
1540
0A00
ENDCHAR
STARTCHAR uni050F
ENCODING 1295
SWIDTH 558 0
DWIDTH 4 0
BBX 4 5 0 0
BITMAP
14
64
22
22
1A
ENDCHAR
STARTCHAR uni0510
ENCODING 1296
SWIDTH 589 0
DWIDTH 5 0
BBX 4 6 0 0
BITMAP
29
52
24
24
51
2A
ENDCHAR
STARTCHAR uni0511
ENCODING 1297
SWIDTH 470 0
DWIDTH 4 0
BBX 3 5 0 0
BITMAP
10
68
64
50
68
ENDCHAR
STARTCHAR uni0512
ENCODING 1298
SWIDTH 664 0
DWIDTH 5 0
BBX 5 8 0 -2
BITMAP
1A40
2140
2140
2140
2140
9180
0080
0140
ENDCHAR
STARTCHAR uni0513
ENCODING 1299
SWIDTH 553 0
DWIDTH 4 0
BBX 4 7 0 -2
BITMAP
14
26
26
26
96
02
02
ENDCHAR
STARTCHAR uni1E00
ENCODING 7680
SWIDTH 576 0
DWIDTH 5 0
BBX 5 8 0 -2
BITMAP
0400
1800
2500
2600
6A00
8140
0400
0400
ENDCHAR
STARTCHAR uni1E01
ENCODING 7681
SWIDTH 479 0
DWIDTH 4 0
BBX 4 7 0 -2
BITMAP
14
68
19
55
69
10
10
ENDCHAR
STARTCHAR uni1E3E
ENCODING 7742
SWIDTH 755 0
DWIDTH 6 0
BBX 6 7 0 0
BITMAP
0200
5050
70D0
6590
5A50
5A50
5550
ENDCHAR
STARTCHAR uni1E3F
ENCODING 7743
SWIDTH 752 0
DWIDTH 6 0
BBX 6 6 0 0
BITMAP
0200
0440
6A90
5550
5560
5560
ENDCHAR
STARTCHAR Wgrave
ENCODING 7808
SWIDTH 761 0
DWIDTH 6 0
BBX 6 8 0 0
BITMAP
0400
0500
4510
5620
5A50
2990
25C0
2480
ENDCHAR
STARTCHAR wgrave
ENCODING 7809
SWIDTH 649 0
DWIDTH 5 0
BBX 5 6 0 0
BITMAP
1800
0400
8C80
5980
3640
2200
ENDCHAR
STARTCHAR Wacute
ENCODING 7810
SWIDTH 761 0
DWIDTH 6 0
BBX 6 7 0 0
BITMAP
0200
4510
5620
5A50
2990
25C0
2480
ENDCHAR
STARTCHAR wacute
ENCODING 7811
SWIDTH 649 0
DWIDTH 5 0
BBX 5 6 0 0
BITMAP
0500
0400
8C80
5980
3640
2200
ENDCHAR
STARTCHAR Wdieresis
ENCODING 7812
SWIDTH 761 0
DWIDTH 6 0
BBX 6 7 0 0
BITMAP
0540
4510
5620
5A50
2990
25C0
2480
ENDCHAR
STARTCHAR wdieresis
ENCODING 7813
SWIDTH 649 0
DWIDTH 5 0
BBX 5 6 0 0
BITMAP
1200
0000
8C80
5980
3640
2200
ENDCHAR
STARTCHAR uni1EA0
ENCODING 7840
SWIDTH 576 0
DWIDTH 5 0
BBX 5 8 0 -2
BITMAP
0400
1800
2500
2600
6A00
8140
0400
0400
ENDCHAR
STARTCHAR uni1EA1
ENCODING 7841
SWIDTH 479 0
DWIDTH 4 0
BBX 4 7 0 -2
BITMAP
14
68
19
55
69
10
10
ENDCHAR
STARTCHAR uni1EA2
ENCODING 7842
SWIDTH 576 0
DWIDTH 5 0
BBX 5 8 0 0
BITMAP
0400
0800
0400
1800
2500
2600
6A00
8140
ENDCHAR
STARTCHAR uni1EA3
ENCODING 7843
SWIDTH 479 0
DWIDTH 4 0
BBX 4 7 0 0
BITMAP
04
04
14
68
19
55
69
ENDCHAR
STARTCHAR uni1EA4
ENCODING 7844
SWIDTH 576 0
DWIDTH 5 0
BBX 5 8 0 0
BITMAP
0140
1900
0400
1800
2500
2600
6A00
8140
ENDCHAR
STARTCHAR uni1EA5
ENCODING 7845
SWIDTH 479 0
DWIDTH 4 0
BBX 4 7 0 0
BITMAP
01
19
14
68
19
55
69
ENDCHAR
STARTCHAR uni1EA6
ENCODING 7846
SWIDTH 576 0
DWIDTH 5 0
BBX 5 8 0 0
BITMAP
4000
1900
0400
1800
2500
2600
6A00
8140
ENDCHAR
STARTCHAR uni1EA7
ENCODING 7847
SWIDTH 479 0
DWIDTH 4 0
BBX 4 7 0 0
BITMAP
40
54
14
68
19
55
69
ENDCHAR
STARTCHAR uni1EA8
ENCODING 7848
SWIDTH 576 0
DWIDTH 5 0
BBX 5 8 0 0
BITMAP
0100
1900
0400
1800
2500
2600
6A00
8140
ENDCHAR
STARTCHAR uni1EA9
ENCODING 7849
SWIDTH 479 0
DWIDTH 4 0
BBX 4 7 0 0
BITMAP
01
15
14
68
19
55
69
ENDCHAR
STARTCHAR uni1EAA
ENCODING 7850
SWIDTH 576 0
DWIDTH 5 0
BBX 5 8 0 0
BITMAP
1400
1800
0800
1800
2500
2600
6A00
8140
ENDCHAR
STARTCHAR uni1EAB
ENCODING 7851
SWIDTH 479 0
DWIDTH 4 0
BBX 4 7 0 0
BITMAP
14
14
14
68
19
55
69
ENDCHAR
STARTCHAR uni1EAC
ENCODING 7852
SWIDTH 576 0
DWIDTH 5 0
BBX 5 9 0 -2
BITMAP
1800
0400
1800
2500
2600
6A00
8140
0400
0400
ENDCHAR
STARTCHAR uni1EAD
ENCODING 7853
SWIDTH 479 0
DWIDTH 4 0
BBX 4 8 0 -2
BITMAP
14
14
68
19
55
69
10
10
ENDCHAR
STARTCHAR uni1EAE
ENCODING 7854
SWIDTH 576 0
DWIDTH 5 0
BBX 5 8 0 0
BITMAP
0400
1400
0400
1800
2500
2600
6A00
8140
ENDCHAR
STARTCHAR uni1EAF
ENCODING 7855
SWIDTH 479 0
DWIDTH 4 0
BBX 4 7 0 0
BITMAP
04
14
14
68
19
55
69
ENDCHAR
STARTCHAR uni1EB0
ENCODING 7856
SWIDTH 576 0
DWIDTH 5 0
BBX 5 8 0 0
BITMAP
0400
1400
0400
1800
2500
2600
6A00
8140
ENDCHAR
STARTCHAR uni1EB1
ENCODING 7857
SWIDTH 479 0
DWIDTH 4 0
BBX 4 7 0 0
BITMAP
10
24
14
68
19
55
69
ENDCHAR
STARTCHAR uni1EB2
ENCODING 7858
SWIDTH 576 0
DWIDTH 5 0
BBX 5 8 0 0
BITMAP
0800
1400
0400
1800
2500
2600
6A00
8140
ENDCHAR
STARTCHAR uni1EB3
ENCODING 7859
SWIDTH 479 0
DWIDTH 4 0
BBX 4 7 0 0
BITMAP
04
24
14
68
19
55
69
ENDCHAR
STARTCHAR uni1EB4
ENCODING 7860
SWIDTH 576 0
DWIDTH 5 0
BBX 5 8 0 0
BITMAP
1400
1400
0400
1800
2500
2600
6A00
8140
ENDCHAR
STARTCHAR uni1EB5
ENCODING 7861
SWIDTH 479 0
DWIDTH 4 0
BBX 4 7 0 0
BITMAP
14
14
14
68
19
55
69
ENDCHAR
STARTCHAR uni1EB6
ENCODING 7862
SWIDTH 576 0
DWIDTH 5 0
BBX 5 9 0 -2
BITMAP
2900
0400
1800
2500
2600
6A00
8140
0400
0400
ENDCHAR
STARTCHAR uni1EB7
ENCODING 7863
SWIDTH 479 0
DWIDTH 4 0
BBX 4 8 0 -2
BITMAP
28
14
68
19
55
69
10
10
ENDCHAR
STARTCHAR uni1EB8
ENCODING 7864
SWIDTH 496 0
DWIDTH 4 0
BBX 4 7 0 -1
BITMAP
69
50
54
64
50
69
04
ENDCHAR
STARTCHAR uni1EB9
ENCODING 7865
SWIDTH 468 0
DWIDTH 4 0
BBX 4 6 0 -1
BITMAP
14
69
A9
90
68
10
ENDCHAR
STARTCHAR uni1EBA
ENCODING 7866
SWIDTH 496 0
DWIDTH 4 0
BBX 4 8 0 0
BITMAP
04
04
69
50
54
64
50
69
ENDCHAR
STARTCHAR uni1EBB
ENCODING 7867
SWIDTH 468 0
DWIDTH 4 0
BBX 4 7 0 0
BITMAP
04
04
14
69
A9
90
68
ENDCHAR
STARTCHAR uni1EBC
ENCODING 7868
SWIDTH 496 0
DWIDTH 4 0
BBX 4 7 0 0
BITMAP
28
69
50
54
64
50
69
ENDCHAR
STARTCHAR uni1EBD
ENCODING 7869
SWIDTH 468 0
DWIDTH 4 0
BBX 4 6 0 0
BITMAP
28
14
69
A9
90
68
ENDCHAR
STARTCHAR uni1EBE
ENCODING 7870
SWIDTH 496 0
DWIDTH 4 0
BBX 4 8 0 0
BITMAP
01
29
69
50
54
64
50
69
ENDCHAR
STARTCHAR uni1EBF
ENCODING 7871
SWIDTH 468 0
DWIDTH 4 0
BBX 4 7 0 0
BITMAP
01
25
14
69
A9
90
68
ENDCHAR
STARTCHAR uni1EC0
ENCODING 7872
SWIDTH 496 0
DWIDTH 4 0
BBX 4 8 0 0
BITMAP
80
28
69
50
54
64
50
69
ENDCHAR
STARTCHAR uni1EC1
ENCODING 7873
SWIDTH 468 0
DWIDTH 4 0
BBX 4 7 0 0
BITMAP
40
64
14
69
A9
90
68
ENDCHAR
STARTCHAR uni1EC2
ENCODING 7874
SWIDTH 496 0
DWIDTH 4 0
BBX 4 8 0 0
BITMAP
02
29
69
50
54
64
50
69
ENDCHAR
STARTCHAR uni1EC3
ENCODING 7875
SWIDTH 468 0
DWIDTH 4 0
BBX 4 7 0 0
BITMAP
01
19
14
69
A9
90
68
ENDCHAR
STARTCHAR uni1EC4
ENCODING 7876
SWIDTH 496 0
DWIDTH 4 0
BBX 4 8 0 0
BITMAP
14
14
69
50
54
64
50
69
ENDCHAR
STARTCHAR uni1EC5
ENCODING 7877
SWIDTH 468 0
DWIDTH 4 0
BBX 4 7 0 0
BITMAP
14
14
14
69
A9
90
68
ENDCHAR
STARTCHAR uni1EC6
ENCODING 7878
SWIDTH 496 0
DWIDTH 4 0
BBX 4 8 0 -1
BITMAP
14
69
50
54
64
50
69
04
ENDCHAR
STARTCHAR uni1EC7
ENCODING 7879
SWIDTH 468 0
DWIDTH 4 0
BBX 4 7 0 -1
BITMAP
24
14
69
A9
90
68
10
ENDCHAR
STARTCHAR uni1EC8
ENCODING 7880
SWIDTH 250 0
DWIDTH 2 0
BBX 2 8 0 0
BITMAP
10
10
50
50
50
50
50
50
ENDCHAR
STARTCHAR uni1EC9
ENCODING 7881
SWIDTH 234 0
DWIDTH 2 0
BBX 2 7 0 0
BITMAP
10
10
00
50
50
50
50
ENDCHAR
STARTCHAR uni1ECA
ENCODING 7882
SWIDTH 250 0
DWIDTH 2 0
BBX 2 7 0 -1
BITMAP
50
50
50
50
50
50
40
ENDCHAR
STARTCHAR uni1ECB
ENCODING 7883
SWIDTH 229 0
DWIDTH 2 0
BBX 2 7 0 -1
BITMAP
50
00
50
50
50
50
40
ENDCHAR
STARTCHAR uni1ECC
ENCODING 7884
SWIDTH 600 0
DWIDTH 5 0
BBX 5 8 0 -2
BITMAP
1900
5200
5140
9140
5240
2A00
0400
0400
ENDCHAR
STARTCHAR uni1ECD
ENCODING 7885
SWIDTH 501 0
DWIDTH 4 0
BBX 4 5 0 0
BITMAP
14
69
82
82
69
ENDCHAR
STARTCHAR uni1ECE
ENCODING 7886
SWIDTH 600 0
DWIDTH 5 0
BBX 5 8 0 0
BITMAP
0400
0800
1900
5200
5140
9140
5240
2A00
ENDCHAR
STARTCHAR uni1ECF
ENCODING 7887
SWIDTH 501 0
DWIDTH 4 0
BBX 4 7 0 0
BITMAP
04
04
14
69
82
82
69
ENDCHAR
STARTCHAR uni1ED0
ENCODING 7888
SWIDTH 600 0
DWIDTH 5 0
BBX 5 8 0 0
BITMAP
0140
1900
1900
5200
5140
9140
5240
2A00
ENDCHAR
STARTCHAR uni1ED1
ENCODING 7889
SWIDTH 501 0
DWIDTH 4 0
BBX 4 7 0 0
BITMAP
01
29
14
69
82
82
69
ENDCHAR
STARTCHAR uni1ED2
ENCODING 7890
SWIDTH 600 0
DWIDTH 5 0
BBX 5 8 0 0
BITMAP
4000
1900
1900
5200
5140
9140
5240
2A00
ENDCHAR
STARTCHAR uni1ED3
ENCODING 7891
SWIDTH 501 0
DWIDTH 4 0
BBX 4 7 0 0
BITMAP
40
64
14
69
82
82
69
ENDCHAR
STARTCHAR uni1ED4
ENCODING 7892
SWIDTH 600 0
DWIDTH 5 0
BBX 5 8 0 0
BITMAP
0100
1900
1900
5200
5140
9140
5240
2A00
ENDCHAR
STARTCHAR uni1ED5
ENCODING 7893
SWIDTH 501 0
DWIDTH 4 0
BBX 4 7 0 0
BITMAP
01
15
14
69
82
82
69
ENDCHAR
STARTCHAR uni1ED6
ENCODING 7894
SWIDTH 600 0
DWIDTH 5 0
BBX 5 8 0 0
BITMAP
1400
1800
2900
5200
5140
9140
5240
2A00
ENDCHAR
STARTCHAR uni1ED7
ENCODING 7895
SWIDTH 501 0
DWIDTH 4 0
BBX 4 7 0 0
BITMAP
14
14
14
69
82
82
69
ENDCHAR
STARTCHAR uni1ED8
ENCODING 7896
SWIDTH 600 0
DWIDTH 5 0
BBX 5 9 0 -2
BITMAP
1800
1900
5200
5140
9140
5240
2A00
0400
0400
ENDCHAR
STARTCHAR uni1ED9
ENCODING 7897
SWIDTH 501 0
DWIDTH 4 0
BBX 4 6 0 0
BITMAP
14
14
69
82
82
69
ENDCHAR
STARTCHAR uni1EDA
ENCODING 7898
SWIDTH 592 0
DWIDTH 5 0
BBX 5 7 0 0
BITMAP
0800
1980
5200
8140
8140
5200
2A00
ENDCHAR
STARTCHAR uni1EDB
ENCODING 7899
SWIDTH 502 0
DWIDTH 4 0
BBX 4 6 0 0
BITMAP
08
15
6A
82
82
28
ENDCHAR
STARTCHAR uni1EDC
ENCODING 7900
SWIDTH 592 0
DWIDTH 5 0
BBX 5 7 0 0
BITMAP
1400
1980
5200
8140
8140
5200
2A00
ENDCHAR
STARTCHAR uni1EDD
ENCODING 7901
SWIDTH 502 0
DWIDTH 4 0
BBX 4 6 0 0
BITMAP
20
15
6A
82
82
28
ENDCHAR
STARTCHAR uni1EDE
ENCODING 7902
SWIDTH 592 0
DWIDTH 5 0
BBX 5 8 0 0
BITMAP
0400
0800
1980
5200
8140
8140
5200
2A00
ENDCHAR
STARTCHAR uni1EDF
ENCODING 7903
SWIDTH 502 0
DWIDTH 4 0
BBX 4 7 0 0
BITMAP
04
04
15
6A
82
82
28
ENDCHAR
STARTCHAR uni1EE0
ENCODING 7904
SWIDTH 592 0
DWIDTH 5 0
BBX 5 7 0 0
BITMAP
1900
1980
5200
8140
8140
5200
2A00
ENDCHAR
STARTCHAR uni1EE1
ENCODING 7905
SWIDTH 502 0
DWIDTH 4 0
BBX 4 6 0 0
BITMAP
28
15
6A
82
82
28
ENDCHAR
STARTCHAR uni1EE2
ENCODING 7906
SWIDTH 592 0
DWIDTH 5 0
BBX 5 8 0 -2
BITMAP
1980
5200
8140
8140
5200
2A00
0400
0400
ENDCHAR
STARTCHAR uni1EE3
ENCODING 7907
SWIDTH 502 0
DWIDTH 4 0
BBX 4 5 0 0
BITMAP
15
6A
82
82
28
ENDCHAR
STARTCHAR uni1EE4
ENCODING 7908
SWIDTH 561 0
DWIDTH 5 0
BBX 4 8 0 -2
BITMAP
41
52
52
52
52
2A
04
04
ENDCHAR
STARTCHAR uni1EE5
ENCODING 7909
SWIDTH 483 0
DWIDTH 4 0
BBX 4 6 0 -2
BITMAP
95
95
55
69
10
10
ENDCHAR
STARTCHAR uni1EE6
ENCODING 7910
SWIDTH 561 0
DWIDTH 5 0
BBX 4 8 0 0
BITMAP
04
08
41
52
52
52
52
2A
ENDCHAR
STARTCHAR uni1EE7
ENCODING 7911
SWIDTH 483 0
DWIDTH 4 0
BBX 4 7 0 0
BITMAP
04
04
00
95
95
55
69
ENDCHAR
STARTCHAR uni1EE8
ENCODING 7912
SWIDTH 608 0
DWIDTH 5 0
BBX 6 7 0 0
BITMAP
0800
4150
5240
5200
5200
5200
2900
ENDCHAR
STARTCHAR uni1EE9
ENCODING 7913
SWIDTH 549 0
DWIDTH 4 0
BBX 5 6 0 0
BITMAP
0800
0040
9600
9500
5500
6900
ENDCHAR
STARTCHAR uni1EEA
ENCODING 7914
SWIDTH 608 0
DWIDTH 5 0
BBX 6 8 0 0
BITMAP
1000
1400
4150
5240
5200
5200
5200
2900
ENDCHAR
STARTCHAR uni1EEB
ENCODING 7915
SWIDTH 549 0
DWIDTH 4 0
BBX 5 6 0 0
BITMAP
2000
0040
9600
9500
5500
6900
ENDCHAR
STARTCHAR uni1EEC
ENCODING 7916
SWIDTH 608 0
DWIDTH 5 0
BBX 6 8 0 0
BITMAP
0400
0800
4150
5240
5200
5200
5200
2900
ENDCHAR
STARTCHAR uni1EED
ENCODING 7917
SWIDTH 549 0
DWIDTH 4 0
BBX 5 6 0 0
BITMAP
0800
0040
9600
9500
5500
6900
ENDCHAR
STARTCHAR uni1EEE
ENCODING 7918
SWIDTH 608 0
DWIDTH 5 0
BBX 6 7 0 0
BITMAP
1900
4150
5240
5200
5200
5200
2900
ENDCHAR
STARTCHAR uni1EEF
ENCODING 7919
SWIDTH 549 0
DWIDTH 4 0
BBX 5 6 0 0
BITMAP
2800
0040
9600
9500
5500
6900
ENDCHAR
STARTCHAR uni1EF0
ENCODING 7920
SWIDTH 608 0
DWIDTH 5 0
BBX 6 8 0 -2
BITMAP
4150
5240
5200
5200
5200
2900
0400
0400
ENDCHAR
STARTCHAR uni1EF1
ENCODING 7921
SWIDTH 549 0
DWIDTH 4 0
BBX 5 6 0 -1
BITMAP
0040
9600
9500
5500
6900
1000
ENDCHAR
STARTCHAR Ygrave
ENCODING 7922
SWIDTH 524 0
DWIDTH 4 0
BBX 4 8 0 0
BITMAP
10
14
42
56
28
18
14
14
ENDCHAR
STARTCHAR ygrave
ENCODING 7923
SWIDTH 416 0
DWIDTH 3 0
BBX 3 8 0 -2
BITMAP
20
40
88
58
24
20
20
50
ENDCHAR
STARTCHAR uni1EF4
ENCODING 7924
SWIDTH 524 0
DWIDTH 4 0
BBX 4 7 0 -1
BITMAP
42
56
28
18
14
14
04
ENDCHAR
STARTCHAR uni1EF5
ENCODING 7925
SWIDTH 416 0
DWIDTH 3 0
BBX 3 7 0 -2
BITMAP
40
88
58
24
20
20
58
ENDCHAR
STARTCHAR uni1EF6
ENCODING 7926
SWIDTH 524 0
DWIDTH 4 0
BBX 4 8 0 0
BITMAP
04
04
42
56
28
18
14
14
ENDCHAR
STARTCHAR uni1EF7
ENCODING 7927
SWIDTH 416 0
DWIDTH 3 0
BBX 3 9 0 -2
BITMAP
10
14
40
88
58
24
20
20
50
ENDCHAR
STARTCHAR uni1EF8
ENCODING 7928
SWIDTH 524 0
DWIDTH 4 0
BBX 4 7 0 0
BITMAP
28
42
56
28
18
14
14
ENDCHAR
STARTCHAR uni1EF9
ENCODING 7929
SWIDTH 416 0
DWIDTH 3 0
BBX 3 8 0 -2
BITMAP
68
40
88
58
24
20
20
50
ENDCHAR
STARTCHAR uni1F4D
ENCODING 8013
SWIDTH 634 0
DWIDTH 5 0
BBX 7 6 -2 0
BITMAP
55A0
1214
0608
0508
0214
02A0
ENDCHAR
STARTCHAR uni2000
ENCODING 8192
SWIDTH 447 0
DWIDTH 4 0
BBX 1 1 0 0
BITMAP
00
ENDCHAR
STARTCHAR uni2001
ENCODING 8193
SWIDTH 876 0
DWIDTH 7 0
BBX 1 1 0 0
BITMAP
00
ENDCHAR
STARTCHAR uni2002
ENCODING 8194
SWIDTH 447 0
DWIDTH 4 0
BBX 1 1 0 0
BITMAP
00
ENDCHAR
STARTCHAR uni2003
ENCODING 8195
SWIDTH 876 0
DWIDTH 7 0
BBX 1 1 0 0
BITMAP
00
ENDCHAR
STARTCHAR uni2004
ENCODING 8196
SWIDTH 305 0
DWIDTH 2 0
BBX 1 1 0 0
BITMAP
00
ENDCHAR
STARTCHAR uni2005
ENCODING 8197
SWIDTH 233 0
DWIDTH 2 0
BBX 1 1 0 0
BITMAP
00
ENDCHAR
STARTCHAR uni2006
ENCODING 8198
SWIDTH 162 0
DWIDTH 1 0
BBX 1 1 0 0
BITMAP
00
ENDCHAR
STARTCHAR uni2007
ENCODING 8199
SWIDTH 491 0
DWIDTH 4 0
BBX 1 1 0 0
BITMAP
00
ENDCHAR
STARTCHAR uni2008
ENCODING 8200
SWIDTH 249 0
DWIDTH 2 0
BBX 1 1 0 0
BITMAP
00
ENDCHAR
STARTCHAR uni2009
ENCODING 8201
SWIDTH 190 0
DWIDTH 2 0
BBX 1 1 0 0
BITMAP
00
ENDCHAR
STARTCHAR uni200A
ENCODING 8202
SWIDTH 105 0
DWIDTH 1 0
BBX 1 1 0 0
BITMAP
00
ENDCHAR
STARTCHAR uni200B
ENCODING 8203
SWIDTH 0 0
DWIDTH 0 0
BBX 1 1 0 0
BITMAP
00
ENDCHAR
STARTCHAR uni2010
ENCODING 8208
SWIDTH 248 0
DWIDTH 2 0
BBX 2 1 0 2
BITMAP
50
ENDCHAR
STARTCHAR uni2011
ENCODING 8209
SWIDTH 248 0
DWIDTH 2 0
BBX 2 1 0 2
BITMAP
50
ENDCHAR
STARTCHAR endash
ENCODING 8211
SWIDTH 572 0
DWIDTH 5 0
BBX 3 1 1 2
BITMAP
54
ENDCHAR
STARTCHAR emdash
ENCODING 8212
SWIDTH 678 0
DWIDTH 5 0
BBX 4 1 1 2
BITMAP
55
ENDCHAR
STARTCHAR uni2015
ENCODING 8213
SWIDTH 678 0
DWIDTH 5 0
BBX 4 1 1 2
BITMAP
55
ENDCHAR
STARTCHAR underscoredbl
ENCODING 8215
SWIDTH 402 0
DWIDTH 3 0
BBX 3 2 0 -2
BITMAP
A8
A8
ENDCHAR
STARTCHAR quoteleft
ENCODING 8216
SWIDTH 194 0
DWIDTH 2 0
BBX 2 2 0 4
BITMAP
50
40
ENDCHAR
STARTCHAR quoteright
ENCODING 8217
SWIDTH 194 0
DWIDTH 2 0
BBX 2 2 0 4
BITMAP
50
40
ENDCHAR
STARTCHAR quotesinglbase
ENCODING 8218
SWIDTH 194 0
DWIDTH 2 0
BBX 1 2 0 -1
BITMAP
40
80
ENDCHAR
STARTCHAR quotereversed
ENCODING 8219
SWIDTH 194 0
DWIDTH 2 0
BBX 1 2 0 4
BITMAP
80
40
ENDCHAR
STARTCHAR quotedblleft
ENCODING 8220
SWIDTH 333 0
DWIDTH 3 0
BBX 3 2 0 4
BITMAP
54
54
ENDCHAR
STARTCHAR quotedblright
ENCODING 8221
SWIDTH 337 0
DWIDTH 3 0
BBX 3 2 0 4
BITMAP
64
50
ENDCHAR
STARTCHAR quotedblbase
ENCODING 8222
SWIDTH 326 0
DWIDTH 3 0
BBX 3 2 0 -1
BITMAP
64
A0
ENDCHAR
STARTCHAR dagger
ENCODING 8224
SWIDTH 482 0
DWIDTH 4 0
BBX 4 6 0 0
BITMAP
14
24
69
14
14
14
ENDCHAR
STARTCHAR daggerdbl
ENCODING 8225
SWIDTH 500 0
DWIDTH 4 0
BBX 4 8 0 -2
BITMAP
14
24
69
14
14
69
14
14
ENDCHAR
STARTCHAR bullet
ENCODING 8226
SWIDTH 336 0
DWIDTH 3 0
BBX 2 2 0 2
BITMAP
60
60
ENDCHAR
STARTCHAR twodotenleader
ENCODING 8229
SWIDTH 420 0
DWIDTH 3 0
BBX 3 1 0 0
BITMAP
58
ENDCHAR
STARTCHAR ellipsis
ENCODING 8230
SWIDTH 590 0
DWIDTH 5 0
BBX 4 1 0 0
BITMAP
59
ENDCHAR
STARTCHAR uni2027
ENCODING 8231
SWIDTH 181 0
DWIDTH 1 0
BBX 1 1 0 2
BITMAP
40
ENDCHAR
STARTCHAR perthousand
ENCODING 8240
SWIDTH 818 0
DWIDTH 7 0
BBX 7 6 0 0
BITMAP
6000
9500
6400
0550
1594
12A0
ENDCHAR
STARTCHAR minute
ENCODING 8242
SWIDTH 174 0
DWIDTH 1 0
BBX 1 2 0 4
BITMAP
80
40
ENDCHAR
STARTCHAR second
ENCODING 8243
SWIDTH 319 0
DWIDTH 3 0
BBX 2 2 0 4
BITMAP
50
50
ENDCHAR
STARTCHAR guilsinglleft
ENCODING 8249
SWIDTH 271 0
DWIDTH 2 0
BBX 2 4 0 0
BITMAP
10
50
50
10
ENDCHAR
STARTCHAR guilsinglright
ENCODING 8250
SWIDTH 271 0
DWIDTH 2 0
BBX 2 4 0 0
BITMAP
40
20
50
40
ENDCHAR
STARTCHAR exclamdbl
ENCODING 8252
SWIDTH 491 0
DWIDTH 4 0
BBX 4 6 0 0
BITMAP
55
55
55
55
00
55
ENDCHAR
STARTCHAR fraction
ENCODING 8260
SWIDTH 403 0
DWIDTH 3 0
BBX 3 5 0 0
BITMAP
04
14
20
50
40
ENDCHAR
STARTCHAR uni2074
ENCODING 8308
SWIDTH 329 0
DWIDTH 3 0
BBX 3 4 0 2
BITMAP
20
60
64
10
ENDCHAR
STARTCHAR uni207F
ENCODING 8319
SWIDTH 374 0
DWIDTH 3 0
BBX 3 4 0 2
BITMAP
64
98
88
44
ENDCHAR
STARTCHAR franc
ENCODING 8355
SWIDTH 480 0
DWIDTH 4 0
BBX 4 6 0 0
BITMAP
69
50
50
64
F0
50
ENDCHAR
STARTCHAR lira
ENCODING 8356
SWIDTH 510 0
DWIDTH 4 0
BBX 4 6 0 0
BITMAP
19
21
64
64
60
69
ENDCHAR
STARTCHAR uni20A6
ENCODING 8358
SWIDTH 691 0
DWIDTH 6 0
BBX 6 6 0 0
BITMAP
2040
3480
BED0
6A90
2280
2180
ENDCHAR
STARTCHAR peseta
ENCODING 8359
SWIDTH 709 0
DWIDTH 6 0
BBX 5 6 0 0
BITMAP
6800
5680
5680
6980
5180
5080
ENDCHAR
STARTCHAR uni20A8
ENCODING 8360
SWIDTH 911 0
DWIDTH 7 0
BBX 7 6 0 0
BITMAP
6900
5210
5298
6D90
5558
52A8
ENDCHAR
STARTCHAR uni20A9
ENCODING 8361
SWIDTH 634 0
DWIDTH 5 0
BBX 5 6 0 0
BITMAP
4840
8C80
AE80
AA80
3700
2300
ENDCHAR
STARTCHAR uni20AA
ENCODING 8362
SWIDTH 669 0
DWIDTH 5 0
BBX 5 5 0 0
BITMAP
1400
6980
5A80
5980
5A80
ENDCHAR
STARTCHAR dong
ENCODING 8363
SWIDTH 510 0
DWIDTH 4 0
BBX 4 8 0 -2
BITMAP
0B
1A
69
85
85
69
15
14
ENDCHAR
STARTCHAR Euro
ENCODING 8364
SWIDTH 493 0
DWIDTH 4 0
BBX 4 6 0 0
BITMAP
19
20
74
74
20
19
ENDCHAR
STARTCHAR uni20B1
ENCODING 8369
SWIDTH 648 0
DWIDTH 5 0
BBX 5 6 0 0
BITMAP
2900
AB80
AA80
6900
6000
6000
ENDCHAR
STARTCHAR uni20B9
ENCODING 8377
SWIDTH 462 0
DWIDTH 4 0
BBX 4 6 0 0
BITMAP
69
58
58
A4
20
18
ENDCHAR
STARTCHAR uni20BA
ENCODING 8378
SWIDTH 500 0
DWIDTH 4 0
BBX 4 6 0 0
BITMAP
10
34
74
A2
25
38
ENDCHAR
STARTCHAR uni20BC
ENCODING 8380
SWIDTH 575 0
DWIDTH 5 0
BBX 5 4 0 0
BITMAP
1800
6A00
9A00
8940
ENDCHAR
STARTCHAR uni20BD
ENCODING 8381
SWIDTH 583 0
DWIDTH 5 0
BBX 5 6 0 0
BITMAP
2900
2240
2140
BA00
B400
2000
ENDCHAR
STARTCHAR uni2105
ENCODING 8453
SWIDTH 640 0
DWIDTH 5 0
BBX 5 6 0 0
BITMAP
6000
4100
6500
0940
1580
1240
ENDCHAR
STARTCHAR uni2113
ENCODING 8467
SWIDTH 422 0
DWIDTH 3 0
BBX 3 6 0 0
BITMAP
28
28
28
74
60
24
ENDCHAR
STARTCHAR uni2116
ENCODING 8470
SWIDTH 886 0
DWIDTH 7 0
BBX 7 6 0 0
BITMAP
5164
6288
6698
5A10
5654
5300
ENDCHAR
STARTCHAR trademark
ENCODING 8482
SWIDTH 547 0
DWIDTH 4 0
BBX 4 3 0 3
BITMAP
55
19
04
ENDCHAR
STARTCHAR Omega
ENCODING 8486
SWIDTH 581 0
DWIDTH 5 0
BBX 4 6 0 0
BITMAP
29
52
92
92
52
76
ENDCHAR
STARTCHAR estimated
ENCODING 8494
SWIDTH 636 0
DWIDTH 5 0
BBX 5 5 0 0
BITMAP
0400
2100
6640
6000
1500
ENDCHAR
STARTCHAR oneeighth
ENCODING 8539
SWIDTH 666 0
DWIDTH 5 0
BBX 5 6 0 0
BITMAP
5000
2100
2400
1680
1280
1280
ENDCHAR
STARTCHAR threeeighths
ENCODING 8540
SWIDTH 736 0
DWIDTH 6 0
BBX 6 6 0 0
BITMAP
6000
2540
5500
1690
0590
0190
ENDCHAR
STARTCHAR fiveeighths
ENCODING 8541
SWIDTH 736 0
DWIDTH 6 0
BBX 6 6 0 0
BITMAP
6000
A100
5500
1590
0590
1190
ENDCHAR
STARTCHAR seveneighths
ENCODING 8542
SWIDTH 692 0
DWIDTH 6 0
BBX 5 6 0 0
BITMAP
6400
1100
2500
1A80
1280
1280
ENDCHAR
STARTCHAR partialdiff
ENCODING 8706
SWIDTH 497 0
DWIDTH 4 0
BBX 4 6 0 0
BITMAP
28
05
2A
92
95
28
ENDCHAR
STARTCHAR Delta
ENCODING 8710
SWIDTH 614 0
DWIDTH 5 0
BBX 5 6 0 0
BITMAP
0800
1D00
2600
2200
5240
AA80
ENDCHAR
STARTCHAR product
ENCODING 8719
SWIDTH 614 0
DWIDTH 5 0
BBX 5 7 0 -1
BITMAP
6A40
5140
5140
5140
5140
5140
5140
ENDCHAR
STARTCHAR summation
ENCODING 8721
SWIDTH 513 0
DWIDTH 4 0
BBX 4 7 0 -1
BITMAP
69
60
24
08
14
20
AA
ENDCHAR
STARTCHAR minus
ENCODING 8722
SWIDTH 499 0
DWIDTH 4 0
BBX 3 1 1 2
BITMAP
54
ENDCHAR
STARTCHAR radical
ENCODING 8730
SWIDTH 536 0
DWIDTH 4 0
BBX 4 6 0 0
BITMAP
01
02
05
68
28
14
ENDCHAR
STARTCHAR infinity
ENCODING 8734
SWIDTH 874 0
DWIDTH 7 0
BBX 7 5 0 0
BITMAP
1040
69A4
8308
8314
29A0
ENDCHAR
STARTCHAR integral
ENCODING 8747
SWIDTH 235 0
DWIDTH 2 0
BBX 2 8 0 -2
BITMAP
20
50
50
50
50
50
50
80
ENDCHAR
STARTCHAR approxequal
ENCODING 8776
SWIDTH 492 0
DWIDTH 4 0
BBX 4 3 0 1
BITMAP
65
14
59
ENDCHAR
STARTCHAR notequal
ENCODING 8800
SWIDTH 479 0
DWIDTH 4 0
BBX 4 4 0 1
BITMAP
04
69
14
64
ENDCHAR
STARTCHAR lessequal
ENCODING 8804
SWIDTH 445 0
DWIDTH 4 0
BBX 3 4 0 0
BITMAP
18
A0
18
68
ENDCHAR
STARTCHAR greaterequal
ENCODING 8805
SWIDTH 460 0
DWIDTH 4 0
BBX 4 4 0 0
BITMAP
64
19
50
68
ENDCHAR
STARTCHAR lozenge
ENCODING 9674
SWIDTH 442 0
DWIDTH 4 0
BBX 4 6 0 0
BITMAP
10
28
58
89
68
24
ENDCHAR
STARTCHAR uniEE01
ENCODING 60929
SWIDTH 271 0
DWIDTH 2 0
BBX 1 4 1 1
BITMAP
40
00
00
40
ENDCHAR
STARTCHAR uniEE02
ENCODING 60930
SWIDTH 298 0
DWIDTH 2 0
BBX 2 2 0 2
BITMAP
A0
50
ENDCHAR
STARTCHAR uniF6C3
ENCODING 63171
SWIDTH 235 0
DWIDTH 2 0
BBX 2 2 0 -1
BITMAP
50
40
ENDCHAR
STARTCHAR uniFB01
ENCODING 64257
SWIDTH 489 0
DWIDTH 4 0
BBX 4 6 0 0
BITMAP
28
60
65
55
55
55
ENDCHAR
STARTCHAR uniFB02
ENCODING 64258
SWIDTH 503 0
DWIDTH 4 0
BBX 4 6 0 0
BITMAP
29
65
65
65
65
65
ENDCHAR
STARTCHAR uniFB03
ENCODING 64259
SWIDTH 744 0
DWIDTH 6 0
BBX 6 6 0 0
BITMAP
2680
6600
6650
6550
6550
6550
ENDCHAR
STARTCHAR uniFB04
ENCODING 64260
SWIDTH 744 0
DWIDTH 6 0
BBX 6 6 0 0
BITMAP
2690
6650
6650
6550
6550
6550
ENDCHAR
STARTCHAR uniFEFF
ENCODING 65279
SWIDTH 0 0
DWIDTH 0 0
BBX 1 1 0 0
BITMAP
00
ENDCHAR
STARTCHAR uniFFFC
ENCODING 65532
SWIDTH 1024 0
DWIDTH 8 0
BBX 8 8 0 -2
BITMAP
5556
4001
4001
5685
5695
4001
4001
5555
ENDCHAR
STARTCHAR uniFFFD
ENCODING 65533
SWIDTH 1025 0
DWIDTH 8 0
BBX 8 7 0 -1
BITMAP
0280
0BE0
2D68
7F7E
2EB8
0AA0
0280
ENDCHAR
STARTCHAR .notdef
ENCODING -1
SWIDTH 392 0
DWIDTH 3 0
BBX 3 6 0 0
BITMAP
54
44
54
54
54
54
ENDCHAR
STARTCHAR glyph369
ENCODING -1
SWIDTH 364 0
DWIDTH 3 0
BBX 3 2 0 4
BITMAP
54
10
ENDCHAR
STARTCHAR uni2009.locl
ENCODING -1
SWIDTH 124 0
DWIDTH 1 0
BBX 1 1 0 0
BITMAP
00
ENDCHAR
STARTCHAR f_f.dlig
ENCODING -1
SWIDTH 546 0
DWIDTH 4 0
BBX 4 6 0 0
BITMAP
26
6A
6A
65
65
65
ENDCHAR
STARTCHAR longs_t.dlig
ENCODING -1
SWIDTH 544 0
DWIDTH 4 0
BBX 4 6 0 0
BITMAP
29
66
6A
65
65
66
ENDCHAR
STARTCHAR s_t.dlig
ENCODING -1
SWIDTH 710 0
DWIDTH 6 0
BBX 6 6 0 0
BITMAP
0A40
1880
6980
6480
0880
6890
ENDCHAR
STARTCHAR two.dnom
ENCODING -1
SWIDTH 329 0
DWIDTH 3 0
BBX 3 3 0 0
BITMAP
60
20
A4
ENDCHAR
STARTCHAR one.dnom
ENCODING -1
SWIDTH 329 0
DWIDTH 3 0
BBX 2 3 0 0
BITMAP
60
20
20
ENDCHAR
STARTCHAR zero.dnom
ENCODING -1
SWIDTH 329 0
DWIDTH 3 0
BBX 3 3 0 0
BITMAP
60
94
60
ENDCHAR
STARTCHAR nine.c2sc
ENCODING -1
SWIDTH 447 0
DWIDTH 4 0
BBX 3 5 0 0
BITMAP
24
98
98
18
24
ENDCHAR
STARTCHAR eight.c2sc
ENCODING -1
SWIDTH 447 0
DWIDTH 4 0
BBX 3 5 0 0
BITMAP
24
58
68
98
68
ENDCHAR
STARTCHAR seven.c2sc
ENCODING -1
SWIDTH 447 0
DWIDTH 4 0
BBX 3 5 0 0
BITMAP
68
08
08
20
20
ENDCHAR
STARTCHAR six.c2sc
ENCODING -1
SWIDTH 447 0
DWIDTH 4 0
BBX 4 5 0 0
BITMAP
14
60
A8
99
68
ENDCHAR
STARTCHAR five.c2sc
ENCODING -1
SWIDTH 447 0
DWIDTH 4 0
BBX 4 5 0 0
BITMAP
28
50
68
05
68
ENDCHAR
STARTCHAR four.c2sc
ENCODING -1
SWIDTH 447 0
DWIDTH 4 0
BBX 4 5 0 0
BITMAP
04
28
58
AD
08
ENDCHAR
STARTCHAR three.c2sc
ENCODING -1
SWIDTH 447 0
DWIDTH 4 0
BBX 3 5 0 0
BITMAP
24
48
18
08
68
ENDCHAR
STARTCHAR two.c2sc
ENCODING -1
SWIDTH 447 0
DWIDTH 4 0
BBX 4 5 0 0
BITMAP
24
58
08
24
69
ENDCHAR
STARTCHAR one.c2sc
ENCODING -1
SWIDTH 447 0
DWIDTH 4 0
BBX 3 5 0 0
BITMAP
14
64
14
14
14
ENDCHAR
STARTCHAR zero.c2sc
ENCODING -1
SWIDTH 447 0
DWIDTH 4 0
BBX 4 5 0 0
BITMAP
24
58
89
88
68
ENDCHAR
STARTCHAR Z.c2sc
ENCODING -1
SWIDTH 454 0
DWIDTH 4 0
BBX 4 5 0 0
BITMAP
68
08
14
20
A9
ENDCHAR
STARTCHAR Y.c2sc
ENCODING -1
SWIDTH 458 0
DWIDTH 4 0
BBX 4 5 0 0
BITMAP
45
58
28
24
24
ENDCHAR
STARTCHAR X.c2sc
ENCODING -1
SWIDTH 478 0
DWIDTH 4 0
BBX 4 5 0 0
BITMAP
45
68
24
28
95
ENDCHAR
STARTCHAR W.c2sc
ENCODING -1
SWIDTH 655 0
DWIDTH 5 0
BBX 5 5 0 0
BITMAP
4440
8980
5980
2640
3240
ENDCHAR
STARTCHAR V.c2sc
ENCODING -1
SWIDTH 487 0
DWIDTH 4 0
BBX 4 5 0 0
BITMAP
41
95
58
28
24
ENDCHAR
STARTCHAR U.c2sc
ENCODING -1
SWIDTH 488 0
DWIDTH 4 0
BBX 4 5 0 0
BITMAP
41
85
85
85
68
ENDCHAR
STARTCHAR T.c2sc
ENCODING -1
SWIDTH 456 0
DWIDTH 4 0
BBX 4 5 0 0
BITMAP
69
24
24
24
24
ENDCHAR
STARTCHAR S.c2sc
ENCODING -1
SWIDTH 453 0
DWIDTH 4 0
BBX 4 5 0 0
BITMAP
24
95
64
49
68
ENDCHAR
STARTCHAR R.c2sc
ENCODING -1
SWIDTH 465 0
DWIDTH 4 0
BBX 4 5 0 0
BITMAP
64
55
59
58
55
ENDCHAR
STARTCHAR Q.c2sc
ENCODING -1
SWIDTH 519 0
DWIDTH 4 0
BBX 4 6 0 -1
BITMAP
14
56
82
82
29
05
ENDCHAR
STARTCHAR P.c2sc
ENCODING -1
SWIDTH 481 0
DWIDTH 4 0
BBX 4 5 0 0
BITMAP
64
55
59
54
50
ENDCHAR
STARTCHAR O.c2sc
ENCODING -1
SWIDTH 519 0
DWIDTH 4 0
BBX 4 5 0 0
BITMAP
14
56
82
82
29
ENDCHAR
STARTCHAR N.c2sc
ENCODING -1
SWIDTH 533 0
DWIDTH 4 0
BBX 4 5 0 0
BITMAP
51
62
66
5A
56
ENDCHAR
STARTCHAR M.c2sc
ENCODING -1
SWIDTH 652 0
DWIDTH 5 0
BBX 5 5 0 0
BITMAP
5040
6280
6280
5980
5880
ENDCHAR
STARTCHAR L.c2sc
ENCODING -1
SWIDTH 411 0
DWIDTH 3 0
BBX 3 5 0 0
BITMAP
40
50
50
50
68
ENDCHAR
STARTCHAR K.c2sc
ENCODING -1
SWIDTH 473 0
DWIDTH 4 0
BBX 4 5 0 0
BITMAP
45
58
74
58
55
ENDCHAR
STARTCHAR J.c2sc
ENCODING -1
SWIDTH 419 0
DWIDTH 3 0
BBX 3 5 0 0
BITMAP
04
08
08
48
A8
ENDCHAR
STARTCHAR I.c2sc
ENCODING -1
SWIDTH 221 0
DWIDTH 2 0
BBX 2 5 0 0
BITMAP
40
50
50
50
50
ENDCHAR
STARTCHAR H.c2sc
ENCODING -1
SWIDTH 533 0
DWIDTH 4 0
BBX 4 5 0 0
BITMAP
41
52
6A
52
52
ENDCHAR
STARTCHAR G.c2sc
ENCODING -1
SWIDTH 509 0
DWIDTH 4 0
BBX 4 5 0 0
BITMAP
18
55
85
96
29
ENDCHAR
STARTCHAR F.c2sc
ENCODING -1
SWIDTH 415 0
DWIDTH 3 0
BBX 3 5 0 0
BITMAP
68
50
64
50
50
ENDCHAR
STARTCHAR dollar.c2sc
ENCODING -1
SWIDTH 453 0
DWIDTH 4 0
BBX 4 7 0 -1
BITMAP
10
28
95
64
49
68
10
ENDCHAR
STARTCHAR sterling.c2sc
ENCODING -1
SWIDTH 467 0
DWIDTH 4 0
BBX 4 5 0 0
BITMAP
14
69
64
50
69
ENDCHAR
STARTCHAR yen.c2sc
ENCODING -1
SWIDTH 400 0
DWIDTH 3 0
BBX 3 5 0 0
BITMAP
44
58
34
78
20
ENDCHAR
STARTCHAR Gamma.c2sc
ENCODING -1
SWIDTH 405 0
DWIDTH 3 0
BBX 3 5 0 0
BITMAP
68
50
50
50
50
ENDCHAR
STARTCHAR Delta.c2sc
ENCODING -1
SWIDTH 487 0
DWIDTH 4 0
BBX 4 5 0 0
BITMAP
14
28
28
55
AA
ENDCHAR
STARTCHAR Theta.c2sc
ENCODING -1
SWIDTH 519 0
DWIDTH 4 0
BBX 4 5 0 0
BITMAP
14
56
96
92
29
ENDCHAR
STARTCHAR Lambda.c2sc
ENCODING -1
SWIDTH 487 0
DWIDTH 4 0
BBX 4 5 0 0
BITMAP
14
28
28
55
82
ENDCHAR
STARTCHAR Xi.c2sc
ENCODING -1
SWIDTH 389 0
DWIDTH 3 0
BBX 3 5 0 0
BITMAP
64
00
64
00
68
ENDCHAR
STARTCHAR Pi.c2sc
ENCODING -1
SWIDTH 525 0
DWIDTH 4 0
BBX 4 5 0 0
BITMAP
69
52
52
52
52
ENDCHAR
STARTCHAR Sigma.c2sc
ENCODING -1
SWIDTH 435 0
DWIDTH 3 0
BBX 3 5 0 0
BITMAP
68
50
20
20
A8
ENDCHAR
STARTCHAR Phi.c2sc
ENCODING -1
SWIDTH 587 0
DWIDTH 5 0
BBX 5 5 0 0
BITMAP
0400
6E00
8940
5A00
1D00
ENDCHAR
STARTCHAR Psi.c2sc
ENCODING -1
SWIDTH 560 0
DWIDTH 4 0
BBX 4 5 0 0
BITMAP
45
9A
5A
2D
08
ENDCHAR
STARTCHAR Omega.c2sc
ENCODING -1
SWIDTH 540 0
DWIDTH 4 0
BBX 4 5 0 0
BITMAP
18
52
82
52
7A
ENDCHAR
STARTCHAR uni0402.c2sc
ENCODING -1
SWIDTH 596 0
DWIDTH 5 0
BBX 5 5 0 0
BITMAP
6800
2000
2A00
2140
2240
ENDCHAR
STARTCHAR uni0404.c2sc
ENCODING -1
SWIDTH 490 0
DWIDTH 4 0
BBX 4 5 0 0
BITMAP
18
55
A4
81
29
ENDCHAR
STARTCHAR uni0409.c2sc
ENCODING -1
SWIDTH 782 0
DWIDTH 6 0
BBX 6 5 0 0
BITMAP
2900
2200
2390
2220
93A0
ENDCHAR
STARTCHAR uni040A.c2sc
ENCODING -1
SWIDTH 788 0
DWIDTH 6 0
BBX 6 5 0 0
BITMAP
4100
5200
6B90
5220
53A0
ENDCHAR
STARTCHAR uni040B.c2sc
ENCODING -1
SWIDTH 596 0
DWIDTH 5 0
BBX 5 5 0 0
BITMAP
6800
2000
2A00
2140
2140
ENDCHAR
STARTCHAR uni040F.c2sc
ENCODING -1
SWIDTH 524 0
DWIDTH 4 0
BBX 4 7 0 -2
BITMAP
41
52
52
52
6A
14
04
ENDCHAR
STARTCHAR uni0411.c2sc
ENCODING -1
SWIDTH 479 0
DWIDTH 4 0
BBX 4 5 0 0
BITMAP
68
50
68
55
69
ENDCHAR
STARTCHAR uni0414.c2sc
ENCODING -1
SWIDTH 563 0
DWIDTH 5 0
BBX 5 7 0 -2
BITMAP
1900
2200
2200
2200
AB00
8140
4000
ENDCHAR
STARTCHAR uni0416.c2sc
ENCODING -1
SWIDTH 651 0
DWIDTH 5 0
BBX 5 5 0 0
BITMAP
4440
6940
2E00
2A40
9880
ENDCHAR
STARTCHAR uni0417.c2sc
ENCODING -1
SWIDTH 466 0
DWIDTH 4 0
BBX 4 5 0 0
BITMAP
24
49
18
49
68
ENDCHAR
STARTCHAR uni0418.c2sc
ENCODING -1
SWIDTH 537 0
DWIDTH 4 0
BBX 4 5 0 0
BITMAP
41
56
5A
62
52
ENDCHAR
STARTCHAR uni041A.c2sc
ENCODING -1
SWIDTH 473 0
DWIDTH 4 0
BBX 4 5 0 0
BITMAP
45
58
64
58
59
ENDCHAR
STARTCHAR uni041B.c2sc
ENCODING -1
SWIDTH 521 0
DWIDTH 4 0
BBX 4 5 0 0
BITMAP
29
22
22
22
92
ENDCHAR
STARTCHAR uni0423.c2sc
ENCODING -1
SWIDTH 454 0
DWIDTH 4 0
BBX 4 5 0 0
BITMAP
45
58
28
24
20
ENDCHAR
STARTCHAR uni0426.c2sc
ENCODING -1
SWIDTH 564 0
DWIDTH 5 0
BBX 5 6 0 -1
BITMAP
4100
5200
5200
5200
6B40
0140
ENDCHAR
STARTCHAR uni0427.c2sc
ENCODING -1
SWIDTH 487 0
DWIDTH 4 0
BBX 4 5 0 0
BITMAP
41
85
99
19
05
ENDCHAR
STARTCHAR uni0428.c2sc
ENCODING -1
SWIDTH 691 0
DWIDTH 6 0
BBX 5 5 0 0
BITMAP
4440
5880
5880
5880
6AC0
ENDCHAR
STARTCHAR uni0429.c2sc
ENCODING -1
SWIDTH 731 0
DWIDTH 6 0
BBX 6 7 0 -2
BITMAP
4440
5880
5880
5880
6AD0
0020
0010
ENDCHAR
STARTCHAR uni042A.c2sc
ENCODING -1
SWIDTH 559 0
DWIDTH 4 0
BBX 4 5 0 0
BITMAP
50
20
2A
22
2A
ENDCHAR
STARTCHAR uni042B.c2sc
ENCODING -1
SWIDTH 658 0
DWIDTH 5 0
BBX 5 5 0 0
BITMAP
4040
5080
6880
5580
6980
ENDCHAR
STARTCHAR uni042C.c2sc
ENCODING -1
SWIDTH 475 0
DWIDTH 4 0
BBX 4 5 0 0
BITMAP
40
50
68
55
69
ENDCHAR
STARTCHAR uni042D.c2sc
ENCODING -1
SWIDTH 491 0
DWIDTH 4 0
BBX 4 5 0 0
BITMAP
24
95
1A
45
68
ENDCHAR
STARTCHAR uni042E.c2sc
ENCODING -1
SWIDTH 705 0
DWIDTH 6 0
BBX 6 5 0 0
BITMAP
4640
5880
6850
5880
5A80
ENDCHAR
STARTCHAR uni042F.c2sc
ENCODING -1
SWIDTH 499 0
DWIDTH 4 0
BBX 4 5 0 0
BITMAP
19
55
69
25
55
ENDCHAR
STARTCHAR uni0492.c2sc
ENCODING -1
SWIDTH 444 0
DWIDTH 4 0
BBX 4 5 0 0
BITMAP
29
60
A0
60
60
ENDCHAR
STARTCHAR uni0496.c2sc
ENCODING -1
SWIDTH 676 0
DWIDTH 5 0
BBX 6 6 0 -1
BITMAP
4440
6940
2E00
2A40
9880
0050
ENDCHAR
STARTCHAR uni049A.c2sc
ENCODING -1
SWIDTH 492 0
DWIDTH 4 0
BBX 4 7 0 -2
BITMAP
45
58
64
58
59
02
01
ENDCHAR
STARTCHAR uni049C.c2sc
ENCODING -1
SWIDTH 562 0
DWIDTH 5 0
BBX 4 5 0 0
BITMAP
41
56
78
69
52
ENDCHAR
STARTCHAR uni04A0.c2sc
ENCODING -1
SWIDTH 571 0
DWIDTH 5 0
BBX 4 5 0 0
BITMAP
61
26
28
25
22
ENDCHAR
STARTCHAR uni04A8.c2sc
ENCODING -1
SWIDTH 625 0
DWIDTH 5 0
BBX 5 5 0 0
BITMAP
1600
5940
8940
5940
2B40
ENDCHAR
STARTCHAR uni04B0.c2sc
ENCODING -1
SWIDTH 480 0
DWIDTH 4 0
BBX 4 5 0 0
BITMAP
45
58
28
38
24
ENDCHAR
STARTCHAR uni04B2.c2sc
ENCODING -1
SWIDTH 514 0
DWIDTH 4 0
BBX 4 7 0 -2
BITMAP
45
68
24
28
96
02
01
ENDCHAR
STARTCHAR uni04B4.c2sc
ENCODING -1
SWIDTH 695 0
DWIDTH 6 0
BBX 5 7 0 -2
BITMAP
6940
2080
2080
2080
2A80
0080
0040
ENDCHAR
STARTCHAR uni04B8.c2sc
ENCODING -1
SWIDTH 487 0
DWIDTH 4 0
BBX 4 5 0 0
BITMAP
41
85
A9
29
05
ENDCHAR
STARTCHAR uni04BA.c2sc
ENCODING -1
SWIDTH 487 0
DWIDTH 4 0
BBX 4 5 0 0
BITMAP
40
50
69
52
52
ENDCHAR
STARTCHAR uni04BC.c2sc
ENCODING -1
SWIDTH 632 0
DWIDTH 5 0
BBX 5 5 0 0
BITMAP
0500
6540
BA80
2000
1A00
ENDCHAR
STARTCHAR uni04D8.c2sc
ENCODING -1
SWIDTH 527 0
DWIDTH 4 0
BBX 4 5 0 0
BITMAP
24
06
6A
92
29
ENDCHAR
STARTCHAR uni04E0.c2sc
ENCODING -1
SWIDTH 466 0
DWIDTH 4 0
BBX 4 5 0 0
BITMAP
68
18
28
45
68
ENDCHAR
STARTCHAR uni04E8.c2sc
ENCODING -1
SWIDTH 519 0
DWIDTH 4 0
BBX 4 5 0 0
BITMAP
14
56
AA
82
29
ENDCHAR
STARTCHAR lira.c2sc
ENCODING -1
SWIDTH 467 0
DWIDTH 4 0
BBX 4 5 0 0
BITMAP
14
69
64
A4
69
ENDCHAR
STARTCHAR Euro.c2sc
ENCODING -1
SWIDTH 433 0
DWIDTH 3 0
BBX 3 5 0 0
BITMAP
18
20
64
64
28
ENDCHAR
STARTCHAR uni2116.c2sc
ENCODING -1
SWIDTH 884 0
DWIDTH 7 0
BBX 7 5 0 0
BITMAP
5160
6288
6694
5A60
5610
ENDCHAR
STARTCHAR uni20BD.c2sc
ENCODING -1
SWIDTH 512 0
DWIDTH 4 0
BBX 4 5 0 0
BITMAP
28
22
66
B4
60
ENDCHAR
STARTCHAR three.dnom
ENCODING -1
SWIDTH 329 0
DWIDTH 3 0
BBX 2 3 0 0
BITMAP
60
20
60
ENDCHAR
STARTCHAR four.dnom
ENCODING -1
SWIDTH 329 0
DWIDTH 3 0
BBX 2 3 0 0
BITMAP
30
60
60
ENDCHAR
STARTCHAR five.dnom
ENCODING -1
SWIDTH 329 0
DWIDTH 3 0
BBX 3 3 0 0
BITMAP
50
60
64
ENDCHAR
STARTCHAR six.dnom
ENCODING -1
SWIDTH 329 0
DWIDTH 3 0
BBX 3 3 0 0
BITMAP
60
A4
64
ENDCHAR
STARTCHAR seven.dnom
ENCODING -1
SWIDTH 329 0
DWIDTH 3 0
BBX 3 3 0 0
BITMAP
64
20
50
ENDCHAR
STARTCHAR eight.dnom
ENCODING -1
SWIDTH 329 0
DWIDTH 3 0
BBX 3 3 0 0
BITMAP
60
60
64
ENDCHAR
STARTCHAR nine.dnom
ENCODING -1
SWIDTH 329 0
DWIDTH 3 0
BBX 3 3 0 0
BITMAP
A0
64
20
ENDCHAR
STARTCHAR glyph550
ENCODING -1
SWIDTH 404 0
DWIDTH 3 0
BBX 3 1 0 2
BITMAP
54
ENDCHAR
STARTCHAR glyph551
ENCODING -1
SWIDTH 306 0
DWIDTH 2 0
BBX 2 3 0 4
BITMAP
10
10
50
ENDCHAR
STARTCHAR E.c2sc
ENCODING -1
SWIDTH 428 0
DWIDTH 3 0
BBX 3 5 0 0
BITMAP
68
50
68
50
68
ENDCHAR
STARTCHAR g.ss01
ENCODING -1
SWIDTH 463 0
DWIDTH 4 0
BBX 4 7 0 -2
BITMAP
14
59
98
64
68
85
68
ENDCHAR
STARTCHAR alpha.ss02
ENCODING -1
SWIDTH 523 0
DWIDTH 4 0
BBX 4 5 0 0
BITMAP
10
6A
85
85
6A
ENDCHAR
STARTCHAR R.ss03
ENCODING -1
SWIDTH 577 0
DWIDTH 5 0
BBX 4 6 0 0
BITMAP
69
52
52
6A
52
52
ENDCHAR
STARTCHAR K.ss04
ENCODING -1
SWIDTH 560 0
DWIDTH 4 0
BBX 4 6 0 0
BITMAP
52
56
68
68
55
52
ENDCHAR
STARTCHAR k.ss04
ENCODING -1
SWIDTH 453 0
DWIDTH 4 0
BBX 4 6 0 0
BITMAP
50
50
58
64
58
59
ENDCHAR
STARTCHAR K.ss05
ENCODING -1
SWIDTH 572 0
DWIDTH 5 0
BBX 4 6 0 0
BITMAP
52
59
68
64
59
52
ENDCHAR
STARTCHAR k.ss05
ENCODING -1
SWIDTH 454 0
DWIDTH 4 0
BBX 3 6 0 0
BITMAP
50
50
58
70
64
58
ENDCHAR
STARTCHAR D.c2sc
ENCODING -1
SWIDTH 492 0
DWIDTH 4 0
BBX 4 5 0 0
BITMAP
64
55
52
55
68
ENDCHAR
STARTCHAR C.c2sc
ENCODING -1
SWIDTH 490 0
DWIDTH 4 0
BBX 4 5 0 0
BITMAP
18
55
80
81
29
ENDCHAR
STARTCHAR B.c2sc
ENCODING -1
SWIDTH 475 0
DWIDTH 4 0
BBX 4 5 0 0
BITMAP
64
59
68
55
68
ENDCHAR
STARTCHAR A.c2sc
ENCODING -1
SWIDTH 501 0
DWIDTH 4 0
BBX 4 5 0 0
BITMAP
14
28
28
69
82
ENDCHAR
STARTCHAR glyph564
ENCODING -1
SWIDTH 236 0
DWIDTH 2 0
BBX 2 2 0 4
BITMAP
50
40
ENDCHAR
STARTCHAR glyph565
ENCODING -1
SWIDTH 402 0
DWIDTH 3 0
BBX 3 2 0 5
BITMAP
10
54
ENDCHAR
STARTCHAR glyph566
ENCODING -1
SWIDTH 0 0
DWIDTH 0 0
BBX 2 2 -3 5
BITMAP
10
50
ENDCHAR
STARTCHAR glyph567
ENCODING -1
SWIDTH 455 0
DWIDTH 4 0
BBX 3 2 1 5
BITMAP
04
90
ENDCHAR
STARTCHAR glyph568
ENCODING -1
SWIDTH 454 0
DWIDTH 4 0
BBX 4 2 -1 5
BITMAP
50
19
ENDCHAR
STARTCHAR glyph569
ENCODING -1
SWIDTH 446 0
DWIDTH 4 0
BBX 3 2 1 5
BITMAP
14
A0
ENDCHAR
STARTCHAR glyph570
ENCODING -1
SWIDTH 453 0
DWIDTH 4 0
BBX 2 2 1 5
BITMAP
50
50
ENDCHAR
STARTCHAR uni0490.c2sc
ENCODING -1
SWIDTH 405 0
DWIDTH 3 0
BBX 3 6 0 0
BITMAP
04
6C
50
50
50
50
ENDCHAR
STARTCHAR glyph572
ENCODING -1
SWIDTH 404 0
DWIDTH 3 0
BBX 3 2 0 5
BITMAP
10
54
ENDCHAR
STARTCHAR glyph573
ENCODING -1
SWIDTH 404 0
DWIDTH 3 0
BBX 3 2 0 5
BITMAP
20
64
ENDCHAR
STARTCHAR zero.numr
ENCODING -1
SWIDTH 329 0
DWIDTH 3 0
BBX 3 4 0 2
BITMAP
60
94
94
10
ENDCHAR
STARTCHAR four.numr
ENCODING -1
SWIDTH 329 0
DWIDTH 3 0
BBX 3 4 0 2
BITMAP
10
60
64
10
ENDCHAR
STARTCHAR five.numr
ENCODING -1
SWIDTH 329 0
DWIDTH 3 0
BBX 3 4 0 2
BITMAP
60
A0
54
10
ENDCHAR
STARTCHAR six.numr
ENCODING -1
SWIDTH 329 0
DWIDTH 3 0
BBX 3 4 0 2
BITMAP
20
A0
94
10
ENDCHAR
STARTCHAR seven.numr
ENCODING -1
SWIDTH 329 0
DWIDTH 3 0
BBX 3 3 0 3
BITMAP
64
20
20
ENDCHAR
STARTCHAR eight.numr
ENCODING -1
SWIDTH 329 0
DWIDTH 3 0
BBX 3 4 0 2
BITMAP
60
60
A4
10
ENDCHAR
STARTCHAR nine.numr
ENCODING -1
SWIDTH 329 0
DWIDTH 3 0
BBX 3 4 0 2
BITMAP
60
94
20
10
ENDCHAR
STARTCHAR C.ss06
ENCODING -1
SWIDTH 603 0
DWIDTH 5 0
BBX 5 6 0 0
BITMAP
1900
6240
5000
5000
5140
2A00
ENDCHAR
STARTCHAR G.ss06
ENCODING -1
SWIDTH 618 0
DWIDTH 5 0
BBX 5 6 0 0
BITMAP
1900
6140
5000
5640
5140
2A40
ENDCHAR
STARTCHAR D.ss06
ENCODING -1
SWIDTH 608 0
DWIDTH 5 0
BBX 5 6 0 0
BITMAP
6900
5200
5140
5140
5200
6900
ENDCHAR
STARTCHAR O.ss06
ENCODING -1
SWIDTH 643 0
DWIDTH 5 0
BBX 5 6 0 0
BITMAP
1900
6240
5080
5080
5140
2A00
ENDCHAR
STARTCHAR Q.ss06
ENCODING -1
SWIDTH 644 0
DWIDTH 5 0
BBX 5 7 0 -1
BITMAP
1900
6240
5080
5080
5140
2A00
0200
ENDCHAR
STARTCHAR one.oldstyle.pnum
ENCODING -1
SWIDTH 421 0
DWIDTH 3 0
BBX 3 5 0 0
BITMAP
04
68
18
18
18
ENDCHAR
STARTCHAR two.oldstyle.pnum
ENCODING -1
SWIDTH 492 0
DWIDTH 4 0
BBX 4 5 0 0
BITMAP
18
55
08
14
79
ENDCHAR
STARTCHAR three.oldstyle.pnum
ENCODING -1
SWIDTH 474 0
DWIDTH 4 0
BBX 4 7 0 -2
BITMAP
68
08
24
08
05
58
10
ENDCHAR
STARTCHAR four.oldstyle.pnum
ENCODING -1
SWIDTH 524 0
DWIDTH 4 0
BBX 4 6 0 -1
BITMAP
05
0D
29
25
AA
05
ENDCHAR
STARTCHAR five.oldstyle.pnum
ENCODING -1
SWIDTH 483 0
DWIDTH 4 0
BBX 4 7 0 -2
BITMAP
29
50
64
59
05
59
10
ENDCHAR
STARTCHAR seven.oldstyle.pnum
ENCODING -1
SWIDTH 458 0
DWIDTH 4 0
BBX 4 6 0 -1
BITMAP
69
08
08
14
20
20
ENDCHAR
STARTCHAR glyph592
ENCODING -1
SWIDTH 402 0
DWIDTH 3 0
BBX 3 2 0 5
BITMAP
54
54
ENDCHAR
STARTCHAR glyph593
ENCODING -1
SWIDTH 183 0
DWIDTH 1 0
BBX 1 3 0 -2
BITMAP
40
80
40
ENDCHAR
STARTCHAR OE.c2sc
ENCODING -1
SWIDTH 714 0
DWIDTH 6 0
BBX 6 5 0 0
BITMAP
1A90
5600
8680
8600
2A90
ENDCHAR
STARTCHAR nine.oldstyle.pnum
ENCODING -1
SWIDTH 520 0
DWIDTH 4 0
BBX 4 7 0 -2
BITMAP
18
56
52
66
16
19
10
ENDCHAR
STARTCHAR glyph596
ENCODING -1
SWIDTH 234 0
DWIDTH 2 0
BBX 2 3 0 -2
BITMAP
50
50
80
ENDCHAR
STARTCHAR three.oldstyle
ENCODING -1
SWIDTH 494 0
DWIDTH 4 0
BBX 4 7 0 -2
BITMAP
69
08
18
05
05
58
10
ENDCHAR
STARTCHAR five.oldstyle
ENCODING -1
SWIDTH 494 0
DWIDTH 4 0
BBX 4 7 0 -2
BITMAP
29
50
64
55
05
59
14
ENDCHAR
STARTCHAR four.oldstyle
ENCODING -1
SWIDTH 494 0
DWIDTH 4 0
BBX 4 6 0 -1
BITMAP
04
0D
29
55
AA
05
ENDCHAR
STARTCHAR two.oldstyle
ENCODING -1
SWIDTH 494 0
DWIDTH 4 0
BBX 4 5 0 0
BITMAP
14
55
08
24
79
ENDCHAR
STARTCHAR seven.oldstyle
ENCODING -1
SWIDTH 494 0
DWIDTH 4 0
BBX 4 7 0 -2
BITMAP
69
05
08
08
14
20
10
ENDCHAR
STARTCHAR zero.oldstyle
ENCODING -1
SWIDTH 494 0
DWIDTH 4 0
BBX 4 5 0 0
BITMAP
14
95
82
82
69
ENDCHAR
STARTCHAR six.oldstyle
ENCODING -1
SWIDTH 494 0
DWIDTH 4 0
BBX 4 6 0 0
BITMAP
18
20
68
55
55
28
ENDCHAR
STARTCHAR nine.oldstyle
ENCODING -1
SWIDTH 494 0
DWIDTH 4 0
BBX 4 7 0 -2
BITMAP
14
55
82
6A
15
18
10
ENDCHAR
STARTCHAR eight.oldstyle
ENCODING -1
SWIDTH 494 0
DWIDTH 4 0
BBX 4 6 0 0
BITMAP
28
55
68
68
95
69
ENDCHAR
STARTCHAR one.oldstyle
ENCODING -1
SWIDTH 494 0
DWIDTH 4 0
BBX 2 5 1 0
BITMAP
10
A0
20
20
20
ENDCHAR
STARTCHAR glyph607
ENCODING -1
SWIDTH 237 0
DWIDTH 2 0
BBX 2 6 0 -2
BITMAP
50
50
50
50
50
80
ENDCHAR
STARTCHAR glyph608
ENCODING -1
SWIDTH 238 0
DWIDTH 2 0
BBX 2 6 0 -2
BITMAP
50
50
50
50
50
80
ENDCHAR
STARTCHAR glyph609
ENCODING -1
SWIDTH 235 0
DWIDTH 2 0
BBX 2 4 0 0
BITMAP
50
50
50
50
ENDCHAR
STARTCHAR glyph610
ENCODING -1
SWIDTH 235 0
DWIDTH 2 0
BBX 2 6 0 -2
BITMAP
50
50
50
50
80
40
ENDCHAR
STARTCHAR glyph611
ENCODING -1
SWIDTH 235 0
DWIDTH 2 0
BBX 2 4 0 0
BITMAP
50
50
50
50
ENDCHAR
STARTCHAR germandbls.sc
ENCODING -1
SWIDTH 475 0
DWIDTH 4 0
BBX 4 5 0 0
BITMAP
24
58
58
55
69
ENDCHAR
STARTCHAR zero.oldstyle.pnum
ENCODING -1
SWIDTH 545 0
DWIDTH 4 0
BBX 4 5 0 0
BITMAP
18
52
92
52
29
ENDCHAR
STARTCHAR seven.pnum
ENCODING -1
SWIDTH 458 0
DWIDTH 4 0
BBX 4 6 0 0
BITMAP
69
08
08
14
20
20
ENDCHAR
STARTCHAR b.ss06
ENCODING -1
SWIDTH 493 0
DWIDTH 4 0
BBX 4 6 0 0
BITMAP
50
54
69
52
52
69
ENDCHAR
STARTCHAR c.ss06
ENCODING -1
SWIDTH 460 0
DWIDTH 4 0
BBX 4 5 0 0
BITMAP
14
69
80
80
68
ENDCHAR
STARTCHAR d.ss06
ENCODING -1
SWIDTH 503 0
DWIDTH 4 0
BBX 4 6 0 0
BITMAP
05
15
69
85
95
29
ENDCHAR
STARTCHAR g.ss06
ENCODING -1
SWIDTH 500 0
DWIDTH 4 0
BBX 4 7 0 -2
BITMAP
10
69
85
85
29
05
28
ENDCHAR
STARTCHAR o.ss06
ENCODING -1
SWIDTH 508 0
DWIDTH 4 0
BBX 4 5 0 0
BITMAP
14
69
82
82
29
ENDCHAR
STARTCHAR p.ss06
ENCODING -1
SWIDTH 500 0
DWIDTH 4 0
BBX 4 7 0 -2
BITMAP
04
69
52
52
69
50
40
ENDCHAR
STARTCHAR q.ss06
ENCODING -1
SWIDTH 508 0
DWIDTH 4 0
BBX 4 7 0 -2
BITMAP
10
69
85
85
69
05
01
ENDCHAR
STARTCHAR e.ss07
ENCODING -1
SWIDTH 468 0
DWIDTH 4 0
BBX 4 5 0 0
BITMAP
10
69
A9
90
28
ENDCHAR
STARTCHAR g.ss07
ENCODING -1
SWIDTH 492 0
DWIDTH 4 0
BBX 4 7 0 -2
BITMAP
10
69
85
85
69
05
24
ENDCHAR
STARTCHAR one.pnum
ENCODING -1
SWIDTH 382 0
DWIDTH 3 0
BBX 3 6 0 0
BITMAP
10
64
14
14
14
14
ENDCHAR
STARTCHAR ampersand.c2sc
ENCODING -1
SWIDTH 526 0
DWIDTH 4 0
BBX 4 5 0 0
BITMAP
24
58
35
5A
6A
ENDCHAR
STARTCHAR Lslash.c2sc
ENCODING -1
SWIDTH 411 0
DWIDTH 3 0
BBX 3 5 0 0
BITMAP
40
50
A0
90
68
ENDCHAR
STARTCHAR AE.c2sc
ENCODING -1
SWIDTH 676 0
DWIDTH 5 0
BBX 5 5 0 0
BITMAP
0680
1900
2640
6900
8680
ENDCHAR
STARTCHAR Thorn.c2sc
ENCODING -1
SWIDTH 440 0
DWIDTH 4 0
BBX 4 5 0 0
BITMAP
40
68
59
68
50
ENDCHAR
STARTCHAR Oslash.c2sc
ENCODING -1
SWIDTH 519 0
DWIDTH 4 0
BBX 4 5 0 0
BITMAP
19
5A
96
A2
69
ENDCHAR
STARTCHAR Hbar.c2sc
ENCODING -1
SWIDTH 533 0
DWIDTH 4 0
BBX 4 5 0 0
BITMAP
41
AB
6A
52
52
ENDCHAR
STARTCHAR Eng.c2sc
ENCODING -1
SWIDTH 533 0
DWIDTH 4 0
BBX 4 7 0 -2
BITMAP
51
62
66
5A
56
02
05
ENDCHAR
STARTCHAR Dcroat.c2sc
ENCODING -1
SWIDTH 492 0
DWIDTH 4 0
BBX 4 5 0 0
BITMAP
64
55
E2
55
68
ENDCHAR
STARTCHAR Eth.c2sc
ENCODING -1
SWIDTH 492 0
DWIDTH 4 0
BBX 4 5 0 0
BITMAP
64
55
E2
55
68
ENDCHAR
STARTCHAR Tbar.c2sc
ENCODING -1
SWIDTH 456 0
DWIDTH 4 0
BBX 4 5 0 0
BITMAP
69
24
38
24
24
ENDCHAR
STARTCHAR Agrave.c2sc
ENCODING -1
SWIDTH 501 0
DWIDTH 4 0
BBX 4 6 0 0
BITMAP
20
14
28
28
69
82
ENDCHAR
STARTCHAR Aacute.c2sc
ENCODING -1
SWIDTH 501 0
DWIDTH 4 0
BBX 4 6 0 0
BITMAP
08
14
28
28
69
82
ENDCHAR
STARTCHAR Acircumflex.c2sc
ENCODING -1
SWIDTH 501 0
DWIDTH 4 0
BBX 4 6 0 0
BITMAP
28
14
28
28
69
82
ENDCHAR
STARTCHAR Atilde.c2sc
ENCODING -1
SWIDTH 501 0
DWIDTH 4 0
BBX 4 6 0 0
BITMAP
28
14
28
28
69
82
ENDCHAR
STARTCHAR Adieresis.c2sc
ENCODING -1
SWIDTH 501 0
DWIDTH 4 0
BBX 4 6 0 0
BITMAP
14
14
28
28
69
82
ENDCHAR
STARTCHAR Aring.c2sc
ENCODING -1
SWIDTH 501 0
DWIDTH 4 0
BBX 4 7 0 0
BITMAP
14
14
14
28
28
69
82
ENDCHAR
STARTCHAR Aringacute.c2sc
ENCODING -1
SWIDTH 501 0
DWIDTH 4 0
BBX 4 7 0 0
BITMAP
04
14
14
28
28
69
82
ENDCHAR
STARTCHAR Ccedilla.c2sc
ENCODING -1
SWIDTH 490 0
DWIDTH 4 0
BBX 4 7 0 -2
BITMAP
18
55
80
81
29
04
04
ENDCHAR
STARTCHAR Egrave.c2sc
ENCODING -1
SWIDTH 428 0
DWIDTH 3 0
BBX 3 6 0 0
BITMAP
20
68
50
68
50
68
ENDCHAR
STARTCHAR Eacute.c2sc
ENCODING -1
SWIDTH 428 0
DWIDTH 3 0
BBX 3 6 0 0
BITMAP
14
68
50
68
50
68
ENDCHAR
STARTCHAR Ecircumflex.c2sc
ENCODING -1
SWIDTH 428 0
DWIDTH 3 0
BBX 3 6 0 0
BITMAP
24
68
50
68
50
68
ENDCHAR
STARTCHAR Edieresis.c2sc
ENCODING -1
SWIDTH 428 0
DWIDTH 3 0
BBX 3 6 0 0
BITMAP
54
68
50
68
50
68
ENDCHAR
STARTCHAR Igrave.c2sc
ENCODING -1
SWIDTH 221 0
DWIDTH 2 0
BBX 2 6 0 0
BITMAP
80
40
50
50
50
50
ENDCHAR
STARTCHAR Iacute.c2sc
ENCODING -1
SWIDTH 221 0
DWIDTH 2 0
BBX 2 6 0 0
BITMAP
60
40
50
50
50
50
ENDCHAR
STARTCHAR Icircumflex.c2sc
ENCODING -1
SWIDTH 221 0
DWIDTH 2 0
BBX 2 6 0 0
BITMAP
90
40
50
50
50
50
ENDCHAR
STARTCHAR Idieresis.c2sc
ENCODING -1
SWIDTH 221 0
DWIDTH 2 0
BBX 3 6 -1 0
BITMAP
54
10
14
14
14
14
ENDCHAR
STARTCHAR Ntilde.c2sc
ENCODING -1
SWIDTH 533 0
DWIDTH 4 0
BBX 4 6 0 0
BITMAP
28
51
62
66
5A
56
ENDCHAR
STARTCHAR Ograve.c2sc
ENCODING -1
SWIDTH 519 0
DWIDTH 4 0
BBX 4 6 0 0
BITMAP
24
18
56
82
82
29
ENDCHAR
STARTCHAR Oacute.c2sc
ENCODING -1
SWIDTH 519 0
DWIDTH 4 0
BBX 4 6 0 0
BITMAP
08
18
56
82
82
29
ENDCHAR
STARTCHAR Ocircumflex.c2sc
ENCODING -1
SWIDTH 519 0
DWIDTH 4 0
BBX 4 6 0 0
BITMAP
18
14
56
82
82
29
ENDCHAR
STARTCHAR Otilde.c2sc
ENCODING -1
SWIDTH 519 0
DWIDTH 4 0
BBX 4 6 0 0
BITMAP
28
14
56
82
82
29
ENDCHAR
STARTCHAR Odieresis.c2sc
ENCODING -1
SWIDTH 519 0
DWIDTH 4 0
BBX 4 6 0 0
BITMAP
15
14
56
82
82
29
ENDCHAR
STARTCHAR Ugrave.c2sc
ENCODING -1
SWIDTH 488 0
DWIDTH 4 0
BBX 4 6 0 0
BITMAP
20
41
85
85
85
68
ENDCHAR
STARTCHAR Uacute.c2sc
ENCODING -1
SWIDTH 488 0
DWIDTH 4 0
BBX 4 6 0 0
BITMAP
08
41
85
85
85
68
ENDCHAR
STARTCHAR Ucircumflex.c2sc
ENCODING -1
SWIDTH 488 0
DWIDTH 4 0
BBX 4 6 0 0
BITMAP
24
41
85
85
85
68
ENDCHAR
STARTCHAR Udieresis.c2sc
ENCODING -1
SWIDTH 488 0
DWIDTH 4 0
BBX 4 6 0 0
BITMAP
14
41
85
85
85
68
ENDCHAR
STARTCHAR Yacute.c2sc
ENCODING -1
SWIDTH 458 0
DWIDTH 4 0
BBX 4 6 0 0
BITMAP
14
45
58
28
24
24
ENDCHAR
STARTCHAR Amacron.c2sc
ENCODING -1
SWIDTH 501 0
DWIDTH 4 0
BBX 4 6 0 0
BITMAP
28
14
28
28
69
82
ENDCHAR
STARTCHAR Abreve.c2sc
ENCODING -1
SWIDTH 501 0
DWIDTH 4 0
BBX 4 6 0 0
BITMAP
28
14
28
28
69
82
ENDCHAR
STARTCHAR Aogonek.c2sc
ENCODING -1
SWIDTH 501 0
DWIDTH 4 0
BBX 4 7 0 -2
BITMAP
14
28
28
69
82
05
05
ENDCHAR
STARTCHAR Cacute.c2sc
ENCODING -1
SWIDTH 490 0
DWIDTH 4 0
BBX 4 6 0 0
BITMAP
08
18
55
80
81
29
ENDCHAR
STARTCHAR Ccircumflex.c2sc
ENCODING -1
SWIDTH 490 0
DWIDTH 4 0
BBX 4 6 0 0
BITMAP
28
18
55
80
81
29
ENDCHAR
STARTCHAR Cdotaccent.c2sc
ENCODING -1
SWIDTH 490 0
DWIDTH 4 0
BBX 4 6 0 0
BITMAP
14
18
55
80
81
29
ENDCHAR
STARTCHAR Ccaron.c2sc
ENCODING -1
SWIDTH 490 0
DWIDTH 4 0
BBX 4 6 0 0
BITMAP
14
18
55
80
81
29
ENDCHAR
STARTCHAR Dcaron.c2sc
ENCODING -1
SWIDTH 492 0
DWIDTH 4 0
BBX 4 6 0 0
BITMAP
24
64
55
52
55
68
ENDCHAR
STARTCHAR Emacron.c2sc
ENCODING -1
SWIDTH 428 0
DWIDTH 3 0
BBX 3 6 0 0
BITMAP
28
68
50
68
50
68
ENDCHAR
STARTCHAR Ebreve.c2sc
ENCODING -1
SWIDTH 428 0
DWIDTH 3 0
BBX 3 6 0 0
BITMAP
28
68
50
68
50
68
ENDCHAR
STARTCHAR Edotaccent.c2sc
ENCODING -1
SWIDTH 428 0
DWIDTH 3 0
BBX 3 6 0 0
BITMAP
10
68
50
68
50
68
ENDCHAR
STARTCHAR Eogonek.c2sc
ENCODING -1
SWIDTH 428 0
DWIDTH 3 0
BBX 3 7 0 -2
BITMAP
68
50
68
50
68
08
08
ENDCHAR
STARTCHAR Ecaron.c2sc
ENCODING -1
SWIDTH 428 0
DWIDTH 3 0
BBX 3 6 0 0
BITMAP
24
68
50
68
50
68
ENDCHAR
STARTCHAR Gcircumflex.c2sc
ENCODING -1
SWIDTH 509 0
DWIDTH 4 0
BBX 4 6 0 0
BITMAP
28
18
55
85
96
29
ENDCHAR
STARTCHAR Gbreve.c2sc
ENCODING -1
SWIDTH 509 0
DWIDTH 4 0
BBX 4 6 0 0
BITMAP
28
18
55
85
96
29
ENDCHAR
STARTCHAR Gdotaccent.c2sc
ENCODING -1
SWIDTH 509 0
DWIDTH 4 0
BBX 4 6 0 0
BITMAP
14
18
55
85
96
29
ENDCHAR
STARTCHAR uni0122.c2sc
ENCODING -1
SWIDTH 509 0
DWIDTH 4 0
BBX 4 7 0 -2
BITMAP
18
55
85
96
29
14
10
ENDCHAR
STARTCHAR Hcircumflex.c2sc
ENCODING -1
SWIDTH 533 0
DWIDTH 4 0
BBX 4 6 0 0
BITMAP
18
41
52
6A
52
52
ENDCHAR
STARTCHAR Itilde.c2sc
ENCODING -1
SWIDTH 221 0
DWIDTH 2 0
BBX 2 6 0 0
BITMAP
A0
40
50
50
50
50
ENDCHAR
STARTCHAR Imacron.c2sc
ENCODING -1
SWIDTH 221 0
DWIDTH 2 0
BBX 2 6 0 0
BITMAP
A0
40
50
50
50
50
ENDCHAR
STARTCHAR Ibreve.c2sc
ENCODING -1
SWIDTH 221 0
DWIDTH 2 0
BBX 2 6 0 0
BITMAP
A0
40
50
50
50
50
ENDCHAR
STARTCHAR Iogonek.c2sc
ENCODING -1
SWIDTH 221 0
DWIDTH 2 0
BBX 2 7 0 -2
BITMAP
40
50
50
50
50
80
40
ENDCHAR
STARTCHAR Idotaccent.c2sc
ENCODING -1
SWIDTH 221 0
DWIDTH 2 0
BBX 2 6 0 0
BITMAP
40
40
50
50
50
50
ENDCHAR
STARTCHAR Jcircumflex.c2sc
ENCODING -1
SWIDTH 419 0
DWIDTH 3 0
BBX 4 6 0 0
BITMAP
19
04
08
08
48
A8
ENDCHAR
STARTCHAR uni0136.c2sc
ENCODING -1
SWIDTH 473 0
DWIDTH 4 0
BBX 4 7 0 -2
BITMAP
45
58
74
58
55
10
20
ENDCHAR
STARTCHAR Lacute.c2sc
ENCODING -1
SWIDTH 411 0
DWIDTH 3 0
BBX 3 6 0 0
BITMAP
60
40
50
50
50
68
ENDCHAR
STARTCHAR uni013B.c2sc
ENCODING -1
SWIDTH 411 0
DWIDTH 3 0
BBX 3 7 0 -2
BITMAP
40
50
50
50
68
10
20
ENDCHAR
STARTCHAR Lcaron.c2sc
ENCODING -1
SWIDTH 411 0
DWIDTH 3 0
BBX 3 5 0 0
BITMAP
54
54
50
50
68
ENDCHAR
STARTCHAR Ldot.c2sc
ENCODING -1
SWIDTH 411 0
DWIDTH 3 0
BBX 3 5 0 0
BITMAP
40
50
54
50
68
ENDCHAR
STARTCHAR Nacute.c2sc
ENCODING -1
SWIDTH 533 0
DWIDTH 4 0
BBX 4 6 0 0
BITMAP
08
51
62
66
5A
56
ENDCHAR
STARTCHAR uni0145.c2sc
ENCODING -1
SWIDTH 533 0
DWIDTH 4 0
BBX 4 7 0 -2
BITMAP
51
62
66
5A
56
04
14
ENDCHAR
STARTCHAR Ncaron.c2sc
ENCODING -1
SWIDTH 533 0
DWIDTH 4 0
BBX 4 6 0 0
BITMAP
18
51
62
66
5A
56
ENDCHAR
STARTCHAR Omacron.c2sc
ENCODING -1
SWIDTH 519 0
DWIDTH 4 0
BBX 4 6 0 0
BITMAP
28
14
56
82
82
29
ENDCHAR
STARTCHAR Obreve.c2sc
ENCODING -1
SWIDTH 519 0
DWIDTH 4 0
BBX 4 6 0 0
BITMAP
28
18
56
82
82
29
ENDCHAR
STARTCHAR Ohungarumlaut.c2sc
ENCODING -1
SWIDTH 519 0
DWIDTH 4 0
BBX 4 6 0 0
BITMAP
19
18
56
82
82
29
ENDCHAR
STARTCHAR Racute.c2sc
ENCODING -1
SWIDTH 465 0
DWIDTH 4 0
BBX 4 6 0 0
BITMAP
14
64
55
59
58
55
ENDCHAR
STARTCHAR uni0156.c2sc
ENCODING -1
SWIDTH 465 0
DWIDTH 4 0
BBX 4 7 0 -2
BITMAP
64
55
59
58
55
10
20
ENDCHAR
STARTCHAR Rcaron.c2sc
ENCODING -1
SWIDTH 465 0
DWIDTH 4 0
BBX 4 6 0 0
BITMAP
24
64
55
59
58
55
ENDCHAR
STARTCHAR Sacute.c2sc
ENCODING -1
SWIDTH 453 0
DWIDTH 4 0
BBX 4 6 0 0
BITMAP
18
24
95
64
49
68
ENDCHAR
STARTCHAR Scircumflex.c2sc
ENCODING -1
SWIDTH 453 0
DWIDTH 4 0
BBX 4 6 0 0
BITMAP
24
24
95
64
49
68
ENDCHAR
STARTCHAR Scedilla.c2sc
ENCODING -1
SWIDTH 453 0
DWIDTH 4 0
BBX 4 7 0 -2
BITMAP
24
95
64
49
68
14
14
ENDCHAR
STARTCHAR Scaron.c2sc
ENCODING -1
SWIDTH 453 0
DWIDTH 4 0
BBX 4 6 0 0
BITMAP
24
24
95
64
49
68
ENDCHAR
STARTCHAR uni021A.c2sc
ENCODING -1
SWIDTH 456 0
DWIDTH 4 0
BBX 4 7 0 -2
BITMAP
69
24
24
24
24
10
20
ENDCHAR
STARTCHAR Tcaron.c2sc
ENCODING -1
SWIDTH 456 0
DWIDTH 4 0
BBX 4 6 0 0
BITMAP
24
69
24
24
24
24
ENDCHAR
STARTCHAR uni0162.c2sc
ENCODING -1
SWIDTH 456 0
DWIDTH 4 0
BBX 4 7 0 -2
BITMAP
69
24
24
24
24
14
14
ENDCHAR
STARTCHAR Utilde.c2sc
ENCODING -1
SWIDTH 488 0
DWIDTH 4 0
BBX 4 6 0 0
BITMAP
28
41
85
85
85
68
ENDCHAR
STARTCHAR Umacron.c2sc
ENCODING -1
SWIDTH 488 0
DWIDTH 4 0
BBX 4 6 0 0
BITMAP
28
41
85
85
85
68
ENDCHAR
STARTCHAR Ubreve.c2sc
ENCODING -1
SWIDTH 488 0
DWIDTH 4 0
BBX 4 6 0 0
BITMAP
28
41
85
85
85
68
ENDCHAR
STARTCHAR Uring.c2sc
ENCODING -1
SWIDTH 488 0
DWIDTH 4 0
BBX 4 7 0 0
BITMAP
14
14
41
85
85
85
68
ENDCHAR
STARTCHAR Uhungarumlaut.c2sc
ENCODING -1
SWIDTH 488 0
DWIDTH 4 0
BBX 4 6 0 0
BITMAP
28
41
85
85
85
68
ENDCHAR
STARTCHAR Uogonek.c2sc
ENCODING -1
SWIDTH 488 0
DWIDTH 4 0
BBX 4 7 0 -2
BITMAP
41
85
85
85
68
14
04
ENDCHAR
STARTCHAR Wcircumflex.c2sc
ENCODING -1
SWIDTH 655 0
DWIDTH 5 0
BBX 5 6 0 0
BITMAP
0900
4440
8980
5980
2640
3240
ENDCHAR
STARTCHAR Ycircumflex.c2sc
ENCODING -1
SWIDTH 458 0
DWIDTH 4 0
BBX 4 6 0 0
BITMAP
24
45
58
28
24
24
ENDCHAR
STARTCHAR Ydieresis.c2sc
ENCODING -1
SWIDTH 458 0
DWIDTH 4 0
BBX 4 6 0 0
BITMAP
54
45
58
28
24
24
ENDCHAR
STARTCHAR Zacute.c2sc
ENCODING -1
SWIDTH 454 0
DWIDTH 4 0
BBX 4 6 0 0
BITMAP
14
68
08
14
20
A9
ENDCHAR
STARTCHAR Zdotaccent.c2sc
ENCODING -1
SWIDTH 454 0
DWIDTH 4 0
BBX 4 6 0 0
BITMAP
10
68
08
14
20
A9
ENDCHAR
STARTCHAR Zcaron.c2sc
ENCODING -1
SWIDTH 454 0
DWIDTH 4 0
BBX 4 6 0 0
BITMAP
24
68
08
14
20
A9
ENDCHAR
STARTCHAR two.pnum
ENCODING -1
SWIDTH 493 0
DWIDTH 4 0
BBX 4 6 0 0
BITMAP
28
95
05
08
20
69
ENDCHAR
STARTCHAR three.pnum
ENCODING -1
SWIDTH 493 0
DWIDTH 4 0
BBX 4 6 0 0
BITMAP
28
55
08
18
45
68
ENDCHAR
STARTCHAR four.pnum
ENCODING -1
SWIDTH 493 0
DWIDTH 4 0
BBX 4 6 0 0
BITMAP
08
1C
28
58
6D
08
ENDCHAR
STARTCHAR five.pnum
ENCODING -1
SWIDTH 493 0
DWIDTH 4 0
BBX 4 6 0 0
BITMAP
29
20
68
05
42
29
ENDCHAR
STARTCHAR six.pnum
ENCODING -1
SWIDTH 503 0
DWIDTH 4 0
BBX 4 6 0 0
BITMAP
18
20
68
56
52
29
ENDCHAR
STARTCHAR eight.pnum
ENCODING -1
SWIDTH 513 0
DWIDTH 4 0
BBX 4 6 0 0
BITMAP
28
55
29
29
56
29
ENDCHAR
STARTCHAR nine.pnum
ENCODING -1
SWIDTH 503 0
DWIDTH 4 0
BBX 4 6 0 0
BITMAP
28
55
85
69
05
28
ENDCHAR
STARTCHAR zero.pnum
ENCODING -1
SWIDTH 513 0
DWIDTH 4 0
BBX 4 6 0 0
BITMAP
28
55
52
52
55
28
ENDCHAR
STARTCHAR G_acutecomb.ccmp
ENCODING -1
SWIDTH 590 0
DWIDTH 5 0
BBX 5 7 0 0
BITMAP
0800
2900
5200
5000
9600
5240
2A00
ENDCHAR
STARTCHAR g_acutecomb.ccmp
ENCODING -1
SWIDTH 492 0
DWIDTH 4 0
BBX 4 8 0 -2
BITMAP
08
10
69
85
85
69
05
28
ENDCHAR
STARTCHAR N_gravecomb.ccmp
ENCODING -1
SWIDTH 619 0
DWIDTH 5 0
BBX 5 7 0 0
BITMAP
1400
5140
7140
6540
5940
5740
5240
ENDCHAR
STARTCHAR n_gravecomb.ccmp
ENCODING -1
SWIDTH 483 0
DWIDTH 4 0
BBX 4 6 0 0
BITMAP
20
14
69
55
55
55
ENDCHAR
STARTCHAR A_uni030F.ccmp
ENCODING -1
SWIDTH 576 0
DWIDTH 5 0
BBX 5 7 0 0
BITMAP
2800
0400
1800
2500
2600
6A00
8140
ENDCHAR
STARTCHAR a_uni030F.ccmp
ENCODING -1
SWIDTH 479 0
DWIDTH 4 0
BBX 4 6 0 0
BITMAP
64
14
68
19
55
69
ENDCHAR
STARTCHAR E_uni030F.ccmp
ENCODING -1
SWIDTH 496 0
DWIDTH 4 0
BBX 4 7 0 0
BITMAP
24
69
50
54
64
50
69
ENDCHAR
STARTCHAR e_uni030F.ccmp
ENCODING -1
SWIDTH 468 0
DWIDTH 4 0
BBX 4 6 0 0
BITMAP
64
14
69
A9
90
68
ENDCHAR
STARTCHAR I_uni030F.ccmp
ENCODING -1
SWIDTH 250 0
DWIDTH 2 0
BBX 3 7 -1 0
BITMAP
64
14
14
14
14
14
14
ENDCHAR
STARTCHAR dotlessi_uni030F.ccmp
ENCODING -1
SWIDTH 234 0
DWIDTH 2 0
BBX 3 6 -1 0
BITMAP
64
10
14
14
14
14
ENDCHAR
STARTCHAR O_uni030F.ccmp
ENCODING -1
SWIDTH 600 0
DWIDTH 5 0
BBX 5 7 0 0
BITMAP
2800
1900
5200
5140
9140
5240
2A00
ENDCHAR
STARTCHAR o_uni030F.ccmp
ENCODING -1
SWIDTH 501 0
DWIDTH 4 0
BBX 4 6 0 0
BITMAP
64
14
69
82
82
69
ENDCHAR
STARTCHAR R_uni030F.ccmp
ENCODING -1
SWIDTH 530 0
DWIDTH 4 0
BBX 4 7 0 0
BITMAP
24
69
52
52
6D
55
52
ENDCHAR
STARTCHAR r_uni030F.ccmp
ENCODING -1
SWIDTH 304 0
DWIDTH 2 0
BBX 2 6 0 0
BITMAP
A0
10
60
50
50
50
ENDCHAR
STARTCHAR U_uni030F.ccmp
ENCODING -1
SWIDTH 561 0
DWIDTH 5 0
BBX 4 7 0 0
BITMAP
28
41
52
52
52
52
2A
ENDCHAR
STARTCHAR u_uni030F.ccmp
ENCODING -1
SWIDTH 483 0
DWIDTH 4 0
BBX 4 6 0 0
BITMAP
64
00
95
95
55
69
ENDCHAR
STARTCHAR Upsilon1_acutecomb.ccmp
ENCODING -1
SWIDTH 514 0
DWIDTH 4 0
BBX 5 6 -1 0
BITMAP
9480
0980
0A00
0600
0200
0200
ENDCHAR
STARTCHAR B_dotbelowcomb.ccmp
ENCODING -1
SWIDTH 545 0
DWIDTH 4 0
BBX 4 7 0 -1
BITMAP
69
52
66
66
52
69
04
ENDCHAR
STARTCHAR b_dotbelowcomb.ccmp
ENCODING -1
SWIDTH 493 0
DWIDTH 4 0
BBX 4 7 0 -1
BITMAP
50
54
69
52
52
69
04
ENDCHAR
STARTCHAR D_dotbelowcomb.ccmp
ENCODING -1
SWIDTH 570 0
DWIDTH 5 0
BBX 4 7 0 -1
BITMAP
68
52
52
52
52
69
04
ENDCHAR
STARTCHAR d_dotbelowcomb.ccmp
ENCODING -1
SWIDTH 496 0
DWIDTH 4 0
BBX 4 7 0 -1
BITMAP
05
15
69
85
85
69
04
ENDCHAR
STARTCHAR D_uniF6C3.ccmp
ENCODING -1
SWIDTH 570 0
DWIDTH 5 0
BBX 4 8 0 -2
BITMAP
68
52
52
52
52
69
04
14
ENDCHAR
STARTCHAR d_uniF6C3.ccmp
ENCODING -1
SWIDTH 496 0
DWIDTH 4 0
BBX 4 8 0 -2
BITMAP
05
15
69
85
85
69
04
14
ENDCHAR
STARTCHAR H_dotbelowcomb.ccmp
ENCODING -1
SWIDTH 620 0
DWIDTH 5 0
BBX 5 8 0 -2
BITMAP
5140
5140
5640
6640
5140
5140
0400
0400
ENDCHAR
STARTCHAR h_dotbelowcomb.ccmp
ENCODING -1
SWIDTH 482 0
DWIDTH 4 0
BBX 4 7 0 -1
BITMAP
50
54
69
55
55
55
10
ENDCHAR
STARTCHAR K_acutecomb.ccmp
ENCODING -1
SWIDTH 544 0
DWIDTH 4 0
BBX 4 7 0 0
BITMAP
08
52
59
68
68
55
52
ENDCHAR
STARTCHAR k_acutecomb.ccmp
ENCODING -1
SWIDTH 450 0
DWIDTH 4 0
BBX 4 8 0 0
BITMAP
04
14
50
50
58
74
58
59
ENDCHAR
STARTCHAR K_dotbelowcomb.ccmp
ENCODING -1
SWIDTH 544 0
DWIDTH 4 0
BBX 4 7 0 -1
BITMAP
52
59
68
68
55
52
04
ENDCHAR
STARTCHAR k_dotbelowcomb.ccmp
ENCODING -1
SWIDTH 450 0
DWIDTH 4 0
BBX 4 7 0 -1
BITMAP
50
50
58
74
58
59
10
ENDCHAR
STARTCHAR L_dotbelowcomb.ccmp
ENCODING -1
SWIDTH 475 0
DWIDTH 4 0
BBX 4 7 0 -1
BITMAP
50
50
50
50
50
69
04
ENDCHAR
STARTCHAR l_dotbelowcomb.ccmp
ENCODING -1
SWIDTH 229 0
DWIDTH 2 0
BBX 2 7 0 -1
BITMAP
50
50
50
50
50
50
40
ENDCHAR
STARTCHAR M_dotbelowcomb.ccmp
ENCODING -1
SWIDTH 755 0
DWIDTH 6 0
BBX 6 7 0 -1
BITMAP
5050
70D0
6590
5A50
5A50
5550
0400
ENDCHAR
STARTCHAR m_dotbelowcomb.ccmp
ENCODING -1
SWIDTH 752 0
DWIDTH 6 0
BBX 6 6 0 -1
BITMAP
0440
6A90
5550
5560
5560
0400
ENDCHAR
STARTCHAR N_dotbelowcomb.ccmp
ENCODING -1
SWIDTH 619 0
DWIDTH 5 0
BBX 5 8 0 -2
BITMAP
5140
7140
6540
5940
5740
5240
0400
0400
ENDCHAR
STARTCHAR n_dotbelowcomb.ccmp
ENCODING -1
SWIDTH 483 0
DWIDTH 4 0
BBX 4 6 0 -1
BITMAP
04
69
55
55
55
10
ENDCHAR
STARTCHAR O_tildecomb_acutecomb.ccmp
ENCODING -1
SWIDTH 600 0
DWIDTH 5 0
BBX 5 8 0 0
BITMAP
0400
1400
1900
5200
5140
9140
5240
2A00
ENDCHAR
STARTCHAR P_acutecomb.ccmp
ENCODING -1
SWIDTH 554 0
DWIDTH 4 0
BBX 4 8 0 0
BITMAP
04
08
69
52
52
69
50
50
ENDCHAR
STARTCHAR p_acutecomb.ccmp
ENCODING -1
SWIDTH 493 0
DWIDTH 4 0
BBX 4 8 0 -2
BITMAP
08
04
69
52
52
69
50
40
ENDCHAR
STARTCHAR R_dotbelowcomb.ccmp
ENCODING -1
SWIDTH 530 0
DWIDTH 4 0
BBX 4 7 0 -1
BITMAP
69
52
52
6D
55
52
04
ENDCHAR
STARTCHAR r_dotbelowcomb.ccmp
ENCODING -1
SWIDTH 304 0
DWIDTH 2 0
BBX 2 6 0 -1
BITMAP
10
60
50
50
50
40
ENDCHAR
STARTCHAR S_dotbelowcomb.ccmp
ENCODING -1
SWIDTH 518 0
DWIDTH 4 0
BBX 4 7 0 -1
BITMAP
28
52
60
19
42
69
04
ENDCHAR
STARTCHAR s_dotbelowcomb.ccmp
ENCODING -1
SWIDTH 455 0
DWIDTH 4 0
BBX 3 6 0 -1
BITMAP
10
68
64
08
68
10
ENDCHAR
STARTCHAR T_dotbelowcomb.ccmp
ENCODING -1
SWIDTH 520 0
DWIDTH 4 0
BBX 4 7 0 -1
BITMAP
6A
14
14
14
14
14
04
ENDCHAR
STARTCHAR t_dotbelowcomb.ccmp
ENCODING -1
SWIDTH 295 0
DWIDTH 2 0
BBX 2 7 0 -2
BITMAP
60
60
50
50
20
10
10
ENDCHAR
STARTCHAR U_tildecomb_acutecomb.ccmp
ENCODING -1
SWIDTH 561 0
DWIDTH 5 0
BBX 4 8 0 0
BITMAP
04
14
41
52
52
52
52
2A
ENDCHAR
STARTCHAR V_tildecomb.ccmp
ENCODING -1
SWIDTH 560 0
DWIDTH 4 0
BBX 4 7 0 0
BITMAP
29
41
52
22
25
28
18
ENDCHAR
STARTCHAR v_tildecomb.ccmp
ENCODING -1
SWIDTH 427 0
DWIDTH 3 0
BBX 3 6 0 0
BITMAP
68
40
88
58
24
20
ENDCHAR
STARTCHAR V_dotbelowcomb.ccmp
ENCODING -1
SWIDTH 560 0
DWIDTH 4 0
BBX 4 7 0 -1
BITMAP
41
52
22
25
28
18
04
ENDCHAR
STARTCHAR v_dotbelowcomb.ccmp
ENCODING -1
SWIDTH 427 0
DWIDTH 3 0
BBX 3 6 0 -2
BITMAP
88
58
24
20
10
10
ENDCHAR
STARTCHAR W_dotbelowcomb.ccmp
ENCODING -1
SWIDTH 761 0
DWIDTH 6 0
BBX 6 7 0 -1
BITMAP
4510
5620
5A50
2990
25C0
2480
0100
ENDCHAR
STARTCHAR w_dotbelowcomb.ccmp
ENCODING -1
SWIDTH 649 0
DWIDTH 5 0
BBX 5 6 0 -2
BITMAP
8C80
5980
3640
2200
0400
0400
ENDCHAR
STARTCHAR Z_dotbelowcomb.ccmp
ENCODING -1
SWIDTH 522 0
DWIDTH 4 0
BBX 4 7 0 -1
BITMAP
6A
05
08
24
20
AA
04
ENDCHAR
STARTCHAR z_dotbelowcomb.ccmp
ENCODING -1
SWIDTH 438 0
DWIDTH 4 0
BBX 3 6 0 -1
BITMAP
14
5C
14
20
A8
10
ENDCHAR
STARTCHAR Alphatonos.c2sc
ENCODING -1
SWIDTH 501 0
DWIDTH 4 0
BBX 4 5 0 0
BITMAP
54
28
28
69
82
ENDCHAR
STARTCHAR Epsilontonos.c2sc
ENCODING -1
SWIDTH 458 0
DWIDTH 4 0
BBX 5 5 -1 0
BITMAP
5A40
1400
1A00
1400
1A40
ENDCHAR
STARTCHAR Etatonos.c2sc
ENCODING -1
SWIDTH 562 0
DWIDTH 5 0
BBX 5 5 -1 0
BITMAP
5440
1480
1AC0
1480
1480
ENDCHAR
STARTCHAR Iotatonos.c2sc
ENCODING -1
SWIDTH 250 0
DWIDTH 2 0
BBX 3 5 -1 0
BITMAP
54
14
14
14
14
ENDCHAR
STARTCHAR Omicrontonos.c2sc
ENCODING -1
SWIDTH 523 0
DWIDTH 4 0
BBX 4 5 0 0
BITMAP
98
56
82
52
29
ENDCHAR
STARTCHAR Upsilontonos.c2sc
ENCODING -1
SWIDTH 487 0
DWIDTH 4 0
BBX 5 5 -1 0
BITMAP
9040
1940
0A00
0500
0500
ENDCHAR
STARTCHAR Omegatonos.c2sc
ENCODING -1
SWIDTH 545 0
DWIDTH 4 0
BBX 4 5 0 0
BITMAP
98
52
52
52
76
ENDCHAR
STARTCHAR Alpha.c2sc
ENCODING -1
SWIDTH 501 0
DWIDTH 4 0
BBX 4 5 0 0
BITMAP
14
28
28
69
82
ENDCHAR
STARTCHAR Beta.c2sc
ENCODING -1
SWIDTH 475 0
DWIDTH 4 0
BBX 4 5 0 0
BITMAP
64
59
68
55
68
ENDCHAR
STARTCHAR Epsilon.c2sc
ENCODING -1
SWIDTH 428 0
DWIDTH 3 0
BBX 3 5 0 0
BITMAP
68
50
68
50
68
ENDCHAR
STARTCHAR Zeta.c2sc
ENCODING -1
SWIDTH 454 0
DWIDTH 4 0
BBX 4 5 0 0
BITMAP
68
08
14
20
A9
ENDCHAR
STARTCHAR Eta.c2sc
ENCODING -1
SWIDTH 533 0
DWIDTH 4 0
BBX 4 5 0 0
BITMAP
41
52
6A
52
52
ENDCHAR
STARTCHAR Iota.c2sc
ENCODING -1
SWIDTH 221 0
DWIDTH 2 0
BBX 2 5 0 0
BITMAP
40
50
50
50
50
ENDCHAR
STARTCHAR Kappa.c2sc
ENCODING -1
SWIDTH 473 0
DWIDTH 4 0
BBX 4 5 0 0
BITMAP
45
58
74
58
55
ENDCHAR
STARTCHAR Mu.c2sc
ENCODING -1
SWIDTH 652 0
DWIDTH 5 0
BBX 5 5 0 0
BITMAP
5040
6280
6280
5980
5880
ENDCHAR
STARTCHAR Nu.c2sc
ENCODING -1
SWIDTH 533 0
DWIDTH 4 0
BBX 4 5 0 0
BITMAP
51
62
66
5A
56
ENDCHAR
STARTCHAR Omicron.c2sc
ENCODING -1
SWIDTH 519 0
DWIDTH 4 0
BBX 4 5 0 0
BITMAP
14
56
82
82
29
ENDCHAR
STARTCHAR Rho.c2sc
ENCODING -1
SWIDTH 481 0
DWIDTH 4 0
BBX 4 5 0 0
BITMAP
64
55
59
54
50
ENDCHAR
STARTCHAR Tau.c2sc
ENCODING -1
SWIDTH 456 0
DWIDTH 4 0
BBX 4 5 0 0
BITMAP
69
24
24
24
24
ENDCHAR
STARTCHAR Upsilon.c2sc
ENCODING -1
SWIDTH 458 0
DWIDTH 4 0
BBX 4 5 0 0
BITMAP
45
58
28
24
24
ENDCHAR
STARTCHAR Chi.c2sc
ENCODING -1
SWIDTH 478 0
DWIDTH 4 0
BBX 4 5 0 0
BITMAP
45
68
24
28
95
ENDCHAR
STARTCHAR Iotadieresis.c2sc
ENCODING -1
SWIDTH 221 0
DWIDTH 2 0
BBX 3 6 -1 0
BITMAP
54
10
14
14
14
14
ENDCHAR
STARTCHAR Upsilondieresis.c2sc
ENCODING -1
SWIDTH 458 0
DWIDTH 4 0
BBX 4 6 0 0
BITMAP
54
45
58
28
24
24
ENDCHAR
STARTCHAR uni0401.c2sc
ENCODING -1
SWIDTH 428 0
DWIDTH 3 0
BBX 3 6 0 0
BITMAP
54
68
50
68
50
68
ENDCHAR
STARTCHAR uni0403.c2sc
ENCODING -1
SWIDTH 405 0
DWIDTH 3 0
BBX 3 6 0 0
BITMAP
14
68
50
50
50
50
ENDCHAR
STARTCHAR uni0405.c2sc
ENCODING -1
SWIDTH 453 0
DWIDTH 4 0
BBX 4 5 0 0
BITMAP
24
95
64
49
68
ENDCHAR
STARTCHAR uni0406.c2sc
ENCODING -1
SWIDTH 221 0
DWIDTH 2 0
BBX 2 5 0 0
BITMAP
40
50
50
50
50
ENDCHAR
STARTCHAR uni0407.c2sc
ENCODING -1
SWIDTH 221 0
DWIDTH 2 0
BBX 3 6 -1 0
BITMAP
54
10
14
14
14
14
ENDCHAR
STARTCHAR uni0408.c2sc
ENCODING -1
SWIDTH 419 0
DWIDTH 3 0
BBX 3 5 0 0
BITMAP
04
08
08
48
A8
ENDCHAR
STARTCHAR uni040C.c2sc
ENCODING -1
SWIDTH 473 0
DWIDTH 4 0
BBX 4 6 0 0
BITMAP
14
45
58
74
58
55
ENDCHAR
STARTCHAR uni040E.c2sc
ENCODING -1
SWIDTH 454 0
DWIDTH 4 0
BBX 4 6 0 0
BITMAP
68
45
58
28
24
20
ENDCHAR
STARTCHAR uni0410.c2sc
ENCODING -1
SWIDTH 501 0
DWIDTH 4 0
BBX 4 5 0 0
BITMAP
14
28
28
69
82
ENDCHAR
STARTCHAR uni0412.c2sc
ENCODING -1
SWIDTH 475 0
DWIDTH 4 0
BBX 4 5 0 0
BITMAP
64
59
68
55
68
ENDCHAR
STARTCHAR uni0413.c2sc
ENCODING -1
SWIDTH 405 0
DWIDTH 3 0
BBX 3 5 0 0
BITMAP
68
50
50
50
50
ENDCHAR
STARTCHAR uni0415.c2sc
ENCODING -1
SWIDTH 428 0
DWIDTH 3 0
BBX 3 5 0 0
BITMAP
68
50
68
50
68
ENDCHAR
STARTCHAR uni0419.c2sc
ENCODING -1
SWIDTH 537 0
DWIDTH 4 0
BBX 4 6 0 0
BITMAP
28
41
56
5A
62
52
ENDCHAR
STARTCHAR uni041C.c2sc
ENCODING -1
SWIDTH 652 0
DWIDTH 5 0
BBX 5 5 0 0
BITMAP
5040
6280
6280
5980
5880
ENDCHAR
STARTCHAR uni041D.c2sc
ENCODING -1
SWIDTH 533 0
DWIDTH 4 0
BBX 4 5 0 0
BITMAP
41
52
6A
52
52
ENDCHAR
STARTCHAR uni041E.c2sc
ENCODING -1
SWIDTH 519 0
DWIDTH 4 0
BBX 4 5 0 0
BITMAP
14
56
82
82
29
ENDCHAR
STARTCHAR uni041F.c2sc
ENCODING -1
SWIDTH 525 0
DWIDTH 4 0
BBX 4 5 0 0
BITMAP
69
52
52
52
52
ENDCHAR
STARTCHAR uni0420.c2sc
ENCODING -1
SWIDTH 481 0
DWIDTH 4 0
BBX 4 5 0 0
BITMAP
64
55
59
54
50
ENDCHAR
STARTCHAR uni0421.c2sc
ENCODING -1
SWIDTH 490 0
DWIDTH 4 0
BBX 4 5 0 0
BITMAP
18
55
80
81
29
ENDCHAR
STARTCHAR uni0422.c2sc
ENCODING -1
SWIDTH 456 0
DWIDTH 4 0
BBX 4 5 0 0
BITMAP
69
24
24
24
24
ENDCHAR
STARTCHAR uni0425.c2sc
ENCODING -1
SWIDTH 478 0
DWIDTH 4 0
BBX 4 5 0 0
BITMAP
45
68
24
28
95
ENDCHAR
STARTCHAR uni0498.c2sc
ENCODING -1
SWIDTH 466 0
DWIDTH 4 0
BBX 4 7 0 -2
BITMAP
24
49
18
49
68
20
10
ENDCHAR
STARTCHAR uni04A2.c2sc
ENCODING -1
SWIDTH 533 0
DWIDTH 4 0
BBX 5 6 0 -1
BITMAP
4100
5200
6A00
5200
5340
0140
ENDCHAR
STARTCHAR uni04AA.c2sc
ENCODING -1
SWIDTH 490 0
DWIDTH 4 0
BBX 4 7 0 -2
BITMAP
18
55
80
81
29
14
14
ENDCHAR
STARTCHAR uni04AE.c2sc
ENCODING -1
SWIDTH 458 0
DWIDTH 4 0
BBX 4 5 0 0
BITMAP
45
58
28
24
24
ENDCHAR
STARTCHAR uni04BE.c2sc
ENCODING -1
SWIDTH 632 0
DWIDTH 5 0
BBX 5 7 0 -2
BITMAP
0500
6540
BA80
2000
1A00
0500
0500
ENDCHAR
STARTCHAR uni04E2.c2sc
ENCODING -1
SWIDTH 537 0
DWIDTH 4 0
BBX 4 6 0 0
BITMAP
29
41
56
5A
62
52
ENDCHAR
STARTCHAR uni04EE.c2sc
ENCODING -1
SWIDTH 454 0
DWIDTH 4 0
BBX 4 6 0 0
BITMAP
28
45
58
28
24
20
ENDCHAR
STARTCHAR uni0424.c2sc
ENCODING -1
SWIDTH 587 0
DWIDTH 5 0
BBX 5 5 0 0
BITMAP
0400
6E00
8940
5A00
1D00
ENDCHAR
STARTCHAR IJ.c2sc
ENCODING -1
SWIDTH 641 0
DWIDTH 5 0
BBX 5 5 0 0
BITMAP
4040
5080
5080
5480
5A40
ENDCHAR
STARTCHAR AEacute.c2sc
ENCODING -1
SWIDTH 676 0
DWIDTH 5 0
BBX 5 6 0 0
BITMAP
0200
0A80
1900
2640
6900
8680
ENDCHAR
STARTCHAR Oslashacute.c2sc
ENCODING -1
SWIDTH 519 0
DWIDTH 4 0
BBX 4 6 0 0
BITMAP
08
19
5A
96
A2
69
ENDCHAR
STARTCHAR uni0218.c2sc
ENCODING -1
SWIDTH 453 0
DWIDTH 4 0
BBX 4 7 0 -2
BITMAP
24
95
64
49
68
10
10
ENDCHAR
STARTCHAR Wgrave.c2sc
ENCODING -1
SWIDTH 655 0
DWIDTH 5 0
BBX 5 6 0 0
BITMAP
0800
4440
8980
5980
2640
3240
ENDCHAR
STARTCHAR Wacute.c2sc
ENCODING -1
SWIDTH 655 0
DWIDTH 5 0
BBX 5 6 0 0
BITMAP
0500
4440
8980
5980
2640
3240
ENDCHAR
STARTCHAR Wdieresis.c2sc
ENCODING -1
SWIDTH 655 0
DWIDTH 5 0
BBX 5 6 0 0
BITMAP
1200
4440
8980
5980
2640
3240
ENDCHAR
STARTCHAR Ygrave.c2sc
ENCODING -1
SWIDTH 458 0
DWIDTH 4 0
BBX 4 6 0 0
BITMAP
20
45
58
28
24
24
ENDCHAR
STARTCHAR Aogonek.locl
ENCODING -1
SWIDTH 576 0
DWIDTH 5 0
BBX 5 8 0 -2
BITMAP
0400
1800
2500
2600
6A00
8140
1400
1400
ENDCHAR
STARTCHAR aogonek.locl
ENCODING -1
SWIDTH 479 0
DWIDTH 4 0
BBX 4 7 0 -2
BITMAP
14
68
19
55
69
20
20
ENDCHAR
STARTCHAR Eogonek.locl
ENCODING -1
SWIDTH 496 0
DWIDTH 4 0
BBX 4 8 0 -2
BITMAP
69
50
54
64
50
69
20
14
ENDCHAR
STARTCHAR eogonek.locl
ENCODING -1
SWIDTH 468 0
DWIDTH 4 0
BBX 4 7 0 -2
BITMAP
14
69
A9
90
68
20
10
ENDCHAR
STARTCHAR Aogonek.c2sc.locl
ENCODING -1
SWIDTH 501 0
DWIDTH 4 0
BBX 4 7 0 -2
BITMAP
14
28
28
69
82
20
14
ENDCHAR
STARTCHAR Eogonek.c2sc.locl
ENCODING -1
SWIDTH 428 0
DWIDTH 3 0
BBX 3 7 0 -2
BITMAP
68
50
68
50
68
20
10
ENDCHAR
STARTCHAR glyph1293
ENCODING -1
SWIDTH 234 0
DWIDTH 2 0
BBX 2 5 0 -1
BITMAP
50
50
50
50
40
ENDCHAR
ENDFONT
